<?xml version="1.0" encoding="UTF-8" standalone="no"?>
<!DOCTYPE svg PUBLIC "-//W3C//DTD SVG 1.1//EN"
 "http://www.w3.org/Graphics/SVG/1.1/DTD/svg11.dtd">
<!-- Generated by graphviz version 2.40.1 (20161225.0304)
 -->
<!-- Title: dependencies Pages: 1 -->
<svg width="504pt" height="284pt"
 viewBox="0.00 0.00 504.00 284.00" xmlns="http://www.w3.org/2000/svg" xmlns:xlink="http://www.w3.org/1999/xlink">
<g id="graph0" class="graph" transform="scale(1 1) rotate(0) translate(4 280)">
<title>dependencies</title>
<polygon fill="#ffffff" stroke="transparent" points="-4,4 -4,-280 500,-280 500,4 -4,4"/>
<text text-anchor="start" x="227.0091" y="-42.4" font-family="sans-serif" font-weight="bold" font-size="14.00" fill="#000000">Legend</text>
<polygon fill="#ffffb3" stroke="transparent" points="14,-10 14,-30 34,-30 34,-10 14,-10"/>
<text text-anchor="start" x="37.629" y="-15.4" font-family="sans-serif" font-size="14.00" fill="#000000"> &#160;Declarations</text>
<polygon fill="#8dd3c7" stroke="transparent" points="127,-10 127,-30 147,-30 147,-10 127,-10"/>
<text text-anchor="start" x="150.7251" y="-15.4" font-family="sans-serif" font-size="14.00" fill="#000000"> &#160;Module</text>
<polygon fill="#80b1d3" stroke="transparent" points="213,-10 213,-30 233,-30 233,-10 213,-10"/>
<text text-anchor="start" x="236.7812" y="-15.4" font-family="sans-serif" font-size="14.00" fill="#000000"> &#160;Bootstrap</text>
<polygon fill="#fdb462" stroke="transparent" points="310,-10 310,-30 330,-30 330,-10 310,-10"/>
<text text-anchor="start" x="333.6732" y="-15.4" font-family="sans-serif" font-size="14.00" fill="#000000"> &#160;Providers</text>
<polygon fill="#fb8072" stroke="transparent" points="406,-10 406,-30 426,-30 426,-10 406,-10"/>
<text text-anchor="start" x="429.7258" y="-15.4" font-family="sans-serif" font-size="14.00" fill="#000000"> &#160;Exports</text>
<g id="clust1" class="cluster">
<title>cluster_PinToModule</title>
<polygon fill="none" stroke="#000000" stroke-dasharray="1,5" points="179,-70 179,-268 317,-268 317,-70 179,-70"/>
</g>
<g id="clust2" class="cluster">
<title>cluster_PinToModule_declarations</title>
<polygon fill="none" stroke="#000000" points="189,-78 189,-130 307,-130 307,-78 189,-78"/>
</g>
<g id="clust5" class="cluster">
<title>cluster_PinToModule_exports</title>
<polygon fill="none" stroke="#000000" points="187,-208 187,-260 309,-260 309,-208 187,-208"/>
</g>
<!-- PinToDirective -->
<g id="node1" class="node">
<title>PinToDirective</title>
<polygon fill="#ffffb3" stroke="#000000" points="299.3091,-122 196.6909,-122 196.6909,-86 299.3091,-86 299.3091,-122"/>
<text text-anchor="middle" x="248" y="-99.8" font-family="Times,serif" font-size="14.00" fill="#000000">PinToDirective</text>
</g>
<!-- PinToModule -->
<g id="node2" class="node">
<title>PinToModule</title>
<polygon fill="#8dd3c7" stroke="#000000" points="294.7759,-187 291.7759,-191 270.7759,-191 267.7759,-187 201.2241,-187 201.2241,-151 294.7759,-151 294.7759,-187"/>
<text text-anchor="middle" x="248" y="-164.8" font-family="Times,serif" font-size="14.00" fill="#000000">PinToModule</text>
</g>
<!-- PinToDirective&#45;&gt;PinToModule -->
<g id="edge1" class="edge">
<title>PinToDirective&#45;&gt;PinToModule</title>
<path fill="none" stroke="#000000" d="M248,-122.1061C248,-122.1061 248,-140.991 248,-140.991"/>
<polygon fill="#000000" stroke="#000000" points="244.5001,-140.9909 248,-150.991 251.5001,-140.991 244.5001,-140.9909"/>
</g>
<!-- PinToDirective  -->
<g id="node3" class="node">
<title>PinToDirective </title>
<polygon fill="#fb8072" stroke="#000000" points="300.8088,-252 195.1912,-252 195.1912,-216 300.8088,-216 300.8088,-252"/>
<text text-anchor="middle" x="248" y="-229.8" font-family="Times,serif" font-size="14.00" fill="#000000">PinToDirective </text>
</g>
<!-- PinToModule&#45;&gt;PinToDirective  -->
<g id="edge2" class="edge">
<title>PinToModule&#45;&gt;PinToDirective </title>
<path fill="none" stroke="#000000" stroke-dasharray="5,2" d="M248,-187.1061C248,-187.1061 248,-205.991 248,-205.991"/>
<polygon fill="#000000" stroke="#000000" points="244.5001,-205.9909 248,-215.991 251.5001,-205.991 244.5001,-205.9909"/>
</g>
</g>
</svg>
