<?xml version="1.0" encoding="UTF-8" standalone="no"?>
<!DOCTYPE svg PUBLIC "-//W3C//DTD SVG 1.1//EN"
 "http://www.w3.org/Graphics/SVG/1.1/DTD/svg11.dtd">
<!-- Generated by graphviz version 2.40.1 (20161225.0304)
 -->
<!-- Title: dependencies Pages: 1 -->
<svg width="541pt" height="211pt"
 viewBox="0.00 0.00 541.00 211.00" xmlns="http://www.w3.org/2000/svg" xmlns:xlink="http://www.w3.org/1999/xlink">
<g id="graph0" class="graph" transform="scale(1 1) rotate(0) translate(4 207)">
<title>dependencies</title>
<polygon fill="#ffffff" stroke="transparent" points="-4,4 -4,-207 537,-207 537,4 -4,4"/>
<text text-anchor="start" x="245.5091" y="-42.4" font-family="sans-serif" font-weight="bold" font-size="14.00" fill="#000000">Legend</text>
<polygon fill="#ffffb3" stroke="transparent" points="32.5,-10 32.5,-30 52.5,-30 52.5,-10 32.5,-10"/>
<text text-anchor="start" x="56.129" y="-15.4" font-family="sans-serif" font-size="14.00" fill="#000000"> &#160;Declarations</text>
<polygon fill="#8dd3c7" stroke="transparent" points="145.5,-10 145.5,-30 165.5,-30 165.5,-10 145.5,-10"/>
<text text-anchor="start" x="169.2251" y="-15.4" font-family="sans-serif" font-size="14.00" fill="#000000"> &#160;Module</text>
<polygon fill="#80b1d3" stroke="transparent" points="231.5,-10 231.5,-30 251.5,-30 251.5,-10 231.5,-10"/>
<text text-anchor="start" x="255.2812" y="-15.4" font-family="sans-serif" font-size="14.00" fill="#000000"> &#160;Bootstrap</text>
<polygon fill="#fdb462" stroke="transparent" points="328.5,-10 328.5,-30 348.5,-30 348.5,-10 328.5,-10"/>
<text text-anchor="start" x="352.1732" y="-15.4" font-family="sans-serif" font-size="14.00" fill="#000000"> &#160;Providers</text>
<polygon fill="#fb8072" stroke="transparent" points="424.5,-10 424.5,-30 444.5,-30 444.5,-10 424.5,-10"/>
<text text-anchor="start" x="448.2258" y="-15.4" font-family="sans-serif" font-size="14.00" fill="#000000"> &#160;Exports</text>
<g id="clust1" class="cluster">
<title>cluster_FilterDataModule</title>
<polygon fill="none" stroke="#000000" stroke-dasharray="1,5" points="8,-70 8,-195 525,-195 525,-70 8,-70"/>
</g>
<g id="clust2" class="cluster">
<title>cluster_FilterDataModule_declarations</title>
<polygon fill="none" stroke="#000000" points="16,-78 16,-130 517,-130 517,-78 16,-78"/>
</g>
<!-- AdvancedFilterComponent -->
<g id="node1" class="node">
<title>AdvancedFilterComponent</title>
<polygon fill="#ffffb3" stroke="#000000" points="509.4129,-122 340.5871,-122 340.5871,-86 509.4129,-86 509.4129,-122"/>
<text text-anchor="middle" x="425" y="-99.8" font-family="Times,serif" font-size="14.00" fill="#000000">AdvancedFilterComponent</text>
</g>
<!-- FilterDataModule -->
<g id="node4" class="node">
<title>FilterDataModule</title>
<polygon fill="#8dd3c7" stroke="#000000" points="309.3062,-187 306.3062,-191 285.3062,-191 282.3062,-187 192.6938,-187 192.6938,-151 309.3062,-151 309.3062,-187"/>
<text text-anchor="middle" x="251" y="-164.8" font-family="Times,serif" font-size="14.00" fill="#000000">FilterDataModule</text>
</g>
<!-- AdvancedFilterComponent&#45;&gt;FilterDataModule -->
<g id="edge1" class="edge">
<title>AdvancedFilterComponent&#45;&gt;FilterDataModule</title>
<path fill="none" stroke="#000000" d="M425,-122.1061C425,-141.3391 425,-169 425,-169 425,-169 319.4235,-169 319.4235,-169"/>
<polygon fill="#000000" stroke="#000000" points="319.4236,-165.5001 309.4235,-169 319.4235,-172.5001 319.4236,-165.5001"/>
</g>
<!-- BasicFilterComponent -->
<g id="node2" class="node">
<title>BasicFilterComponent</title>
<polygon fill="#ffffb3" stroke="#000000" points="322.2632,-122 179.7368,-122 179.7368,-86 322.2632,-86 322.2632,-122"/>
<text text-anchor="middle" x="251" y="-99.8" font-family="Times,serif" font-size="14.00" fill="#000000">BasicFilterComponent</text>
</g>
<!-- BasicFilterComponent&#45;&gt;FilterDataModule -->
<g id="edge2" class="edge">
<title>BasicFilterComponent&#45;&gt;FilterDataModule</title>
<path fill="none" stroke="#000000" d="M251,-122.1061C251,-122.1061 251,-140.991 251,-140.991"/>
<polygon fill="#000000" stroke="#000000" points="247.5001,-140.9909 251,-150.991 254.5001,-140.991 247.5001,-140.9909"/>
</g>
<!-- FilterDataComponent -->
<g id="node3" class="node">
<title>FilterDataComponent</title>
<polygon fill="#ffffb3" stroke="#000000" points="162.0884,-122 23.9116,-122 23.9116,-86 162.0884,-86 162.0884,-122"/>
<text text-anchor="middle" x="93" y="-99.8" font-family="Times,serif" font-size="14.00" fill="#000000">FilterDataComponent</text>
</g>
<!-- FilterDataComponent&#45;&gt;FilterDataModule -->
<g id="edge3" class="edge">
<title>FilterDataComponent&#45;&gt;FilterDataModule</title>
<path fill="none" stroke="#000000" d="M93,-122.1061C93,-141.3391 93,-169 93,-169 93,-169 182.6155,-169 182.6155,-169"/>
<polygon fill="#000000" stroke="#000000" points="182.6156,-172.5001 192.6155,-169 182.6155,-165.5001 182.6156,-172.5001"/>
</g>
</g>
</svg>
