<?xml version="1.0" encoding="UTF-8" standalone="no"?>
<!DOCTYPE svg PUBLIC "-//W3C//DTD SVG 1.1//EN"
 "http://www.w3.org/Graphics/SVG/1.1/DTD/svg11.dtd">
<!-- Generated by graphviz version 2.40.1 (20161225.0304)
 -->
<!-- Title: dependencies Pages: 1 -->
<svg width="830pt" height="284pt"
 viewBox="0.00 0.00 830.00 284.00" xmlns="http://www.w3.org/2000/svg" xmlns:xlink="http://www.w3.org/1999/xlink">
<g id="graph0" class="graph" transform="scale(1 1) rotate(0) translate(4 280)">
<title>dependencies</title>
<polygon fill="#ffffff" stroke="transparent" points="-4,4 -4,-280 826,-280 826,4 -4,4"/>
<text text-anchor="start" x="390.0091" y="-42.4" font-family="sans-serif" font-weight="bold" font-size="14.00" fill="#000000">Legend</text>
<polygon fill="#ffffb3" stroke="transparent" points="177,-10 177,-30 197,-30 197,-10 177,-10"/>
<text text-anchor="start" x="200.629" y="-15.4" font-family="sans-serif" font-size="14.00" fill="#000000"> &#160;Declarations</text>
<polygon fill="#8dd3c7" stroke="transparent" points="290,-10 290,-30 310,-30 310,-10 290,-10"/>
<text text-anchor="start" x="313.7251" y="-15.4" font-family="sans-serif" font-size="14.00" fill="#000000"> &#160;Module</text>
<polygon fill="#80b1d3" stroke="transparent" points="376,-10 376,-30 396,-30 396,-10 376,-10"/>
<text text-anchor="start" x="399.7812" y="-15.4" font-family="sans-serif" font-size="14.00" fill="#000000"> &#160;Bootstrap</text>
<polygon fill="#fdb462" stroke="transparent" points="473,-10 473,-30 493,-30 493,-10 473,-10"/>
<text text-anchor="start" x="496.6732" y="-15.4" font-family="sans-serif" font-size="14.00" fill="#000000"> &#160;Providers</text>
<polygon fill="#fb8072" stroke="transparent" points="569,-10 569,-30 589,-30 589,-10 569,-10"/>
<text text-anchor="start" x="592.7258" y="-15.4" font-family="sans-serif" font-size="14.00" fill="#000000"> &#160;Exports</text>
<g id="clust1" class="cluster">
<title>cluster_DeleteReasonDialogModule</title>
<polygon fill="none" stroke="#000000" stroke-dasharray="1,5" points="8,-70 8,-268 814,-268 814,-70 8,-70"/>
</g>
<g id="clust2" class="cluster">
<title>cluster_DeleteReasonDialogModule_declarations</title>
<polygon fill="none" stroke="#000000" points="592,-78 592,-130 806,-130 806,-78 592,-78"/>
</g>
<g id="clust4" class="cluster">
<title>cluster_DeleteReasonDialogModule_imports</title>
<polygon fill="none" stroke="#000000" points="280,-78 280,-130 584,-130 584,-78 280,-78"/>
</g>
<g id="clust5" class="cluster">
<title>cluster_DeleteReasonDialogModule_exports</title>
<polygon fill="none" stroke="#000000" points="329,-208 329,-260 545,-260 545,-208 329,-208"/>
</g>
<g id="clust7" class="cluster">
<title>cluster_DeleteReasonDialogModule_providers</title>
<polygon fill="none" stroke="#000000" points="16,-78 16,-130 272,-130 272,-78 16,-78"/>
</g>
<!-- DeleteReasonDialogComponent -->
<g id="node1" class="node">
<title>DeleteReasonDialogComponent</title>
<polygon fill="#ffffb3" stroke="#000000" points="797.6769,-122 600.3231,-122 600.3231,-86 797.6769,-86 797.6769,-122"/>
<text text-anchor="middle" x="699" y="-99.8" font-family="Times,serif" font-size="14.00" fill="#000000">DeleteReasonDialogComponent</text>
</g>
<!-- DeleteReasonDialogModule -->
<g id="node2" class="node">
<title>DeleteReasonDialogModule</title>
<polygon fill="#8dd3c7" stroke="#000000" points="524.8946,-187 521.8946,-191 500.8946,-191 497.8946,-187 349.1054,-187 349.1054,-151 524.8946,-151 524.8946,-187"/>
<text text-anchor="middle" x="437" y="-164.8" font-family="Times,serif" font-size="14.00" fill="#000000">DeleteReasonDialogModule</text>
</g>
<!-- DeleteReasonDialogComponent&#45;&gt;DeleteReasonDialogModule -->
<g id="edge1" class="edge">
<title>DeleteReasonDialogComponent&#45;&gt;DeleteReasonDialogModule</title>
<path fill="none" stroke="#000000" d="M699,-122.1061C699,-141.3391 699,-169 699,-169 699,-169 534.9711,-169 534.9711,-169"/>
<polygon fill="#000000" stroke="#000000" points="534.9711,-165.5001 524.9711,-169 534.971,-172.5001 534.9711,-165.5001"/>
</g>
<!-- DeleteReasonDialogComponent  -->
<g id="node5" class="node">
<title>DeleteReasonDialogComponent </title>
<polygon fill="#fb8072" stroke="#000000" points="537.1771,-252 336.8229,-252 336.8229,-216 537.1771,-216 537.1771,-252"/>
<text text-anchor="middle" x="437" y="-229.8" font-family="Times,serif" font-size="14.00" fill="#000000">DeleteReasonDialogComponent </text>
</g>
<!-- DeleteReasonDialogModule&#45;&gt;DeleteReasonDialogComponent  -->
<g id="edge4" class="edge">
<title>DeleteReasonDialogModule&#45;&gt;DeleteReasonDialogComponent </title>
<path fill="none" stroke="#000000" stroke-dasharray="5,2" d="M437,-187.1061C437,-187.1061 437,-205.991 437,-205.991"/>
<polygon fill="#000000" stroke="#000000" points="433.5001,-205.9909 437,-215.991 440.5001,-205.991 433.5001,-205.9909"/>
</g>
<!-- ButtonTitleModule -->
<g id="node3" class="node">
<title>ButtonTitleModule</title>
<polygon fill="#8dd3c7" stroke="#000000" points="576.1066,-122 573.1066,-126 552.1066,-126 549.1066,-122 451.8934,-122 451.8934,-86 576.1066,-86 576.1066,-122"/>
<text text-anchor="middle" x="514" y="-99.8" font-family="Times,serif" font-size="14.00" fill="#000000">ButtonTitleModule</text>
</g>
<!-- ButtonTitleModule&#45;&gt;DeleteReasonDialogModule -->
<g id="edge2" class="edge">
<title>ButtonTitleModule&#45;&gt;DeleteReasonDialogModule</title>
<path fill="none" stroke="#000000" d="M488.3219,-122.1061C488.3219,-122.1061 488.3219,-140.991 488.3219,-140.991"/>
<polygon fill="#000000" stroke="#000000" points="484.822,-140.9909 488.3219,-150.991 491.822,-140.991 484.822,-140.9909"/>
</g>
<!-- ConfirmDialogModule -->
<g id="node4" class="node">
<title>ConfirmDialogModule</title>
<polygon fill="#8dd3c7" stroke="#000000" points="433.5912,-122 430.5912,-126 409.5912,-126 406.5912,-122 288.4088,-122 288.4088,-86 433.5912,-86 433.5912,-122"/>
<text text-anchor="middle" x="361" y="-99.8" font-family="Times,serif" font-size="14.00" fill="#000000">ConfirmDialogModule</text>
</g>
<!-- ConfirmDialogModule&#45;&gt;DeleteReasonDialogModule -->
<g id="edge3" class="edge">
<title>ConfirmDialogModule&#45;&gt;DeleteReasonDialogModule</title>
<path fill="none" stroke="#000000" d="M391.4243,-122.1061C391.4243,-122.1061 391.4243,-140.991 391.4243,-140.991"/>
<polygon fill="#000000" stroke="#000000" points="387.9243,-140.9909 391.4243,-150.991 394.9243,-140.991 387.9243,-140.9909"/>
</g>
<!-- DeleteReasonDialogService -->
<g id="node6" class="node">
<title>DeleteReasonDialogService</title>
<ellipse fill="#fdb462" stroke="#000000" cx="144" cy="-104" rx="119.7986" ry="18"/>
<text text-anchor="middle" x="144" y="-99.8" font-family="Times,serif" font-size="14.00" fill="#000000">DeleteReasonDialogService</text>
</g>
<!-- DeleteReasonDialogService&#45;&gt;DeleteReasonDialogModule -->
<g id="edge5" class="edge">
<title>DeleteReasonDialogService&#45;&gt;DeleteReasonDialogModule</title>
<path fill="none" stroke="#000000" d="M144,-122.1061C144,-141.3391 144,-169 144,-169 144,-169 339.0903,-169 339.0903,-169"/>
<polygon fill="#000000" stroke="#000000" points="339.0904,-172.5001 349.0903,-169 339.0903,-165.5001 339.0904,-172.5001"/>
</g>
</g>
</svg>
