<?xml version="1.0" encoding="UTF-8" standalone="no"?>
<!DOCTYPE svg PUBLIC "-//W3C//DTD SVG 1.1//EN"
 "http://www.w3.org/Graphics/SVG/1.1/DTD/svg11.dtd">
<!-- Generated by graphviz version 2.40.1 (20161225.0304)
 -->
<!-- Title: dependencies Pages: 1 -->
<svg width="837pt" height="284pt"
 viewBox="0.00 0.00 837.00 284.00" xmlns="http://www.w3.org/2000/svg" xmlns:xlink="http://www.w3.org/1999/xlink">
<g id="graph0" class="graph" transform="scale(1 1) rotate(0) translate(4 280)">
<title>dependencies</title>
<polygon fill="#ffffff" stroke="transparent" points="-4,4 -4,-280 833,-280 833,4 -4,4"/>
<text text-anchor="start" x="393.5091" y="-42.4" font-family="sans-serif" font-weight="bold" font-size="14.00" fill="#000000">Legend</text>
<polygon fill="#ffffb3" stroke="transparent" points="180.5,-10 180.5,-30 200.5,-30 200.5,-10 180.5,-10"/>
<text text-anchor="start" x="204.129" y="-15.4" font-family="sans-serif" font-size="14.00" fill="#000000"> &#160;Declarations</text>
<polygon fill="#8dd3c7" stroke="transparent" points="293.5,-10 293.5,-30 313.5,-30 313.5,-10 293.5,-10"/>
<text text-anchor="start" x="317.2251" y="-15.4" font-family="sans-serif" font-size="14.00" fill="#000000"> &#160;Module</text>
<polygon fill="#80b1d3" stroke="transparent" points="379.5,-10 379.5,-30 399.5,-30 399.5,-10 379.5,-10"/>
<text text-anchor="start" x="403.2812" y="-15.4" font-family="sans-serif" font-size="14.00" fill="#000000"> &#160;Bootstrap</text>
<polygon fill="#fdb462" stroke="transparent" points="476.5,-10 476.5,-30 496.5,-30 496.5,-10 476.5,-10"/>
<text text-anchor="start" x="500.1732" y="-15.4" font-family="sans-serif" font-size="14.00" fill="#000000"> &#160;Providers</text>
<polygon fill="#fb8072" stroke="transparent" points="572.5,-10 572.5,-30 592.5,-30 592.5,-10 572.5,-10"/>
<text text-anchor="start" x="596.2258" y="-15.4" font-family="sans-serif" font-size="14.00" fill="#000000"> &#160;Exports</text>
<g id="clust1" class="cluster">
<title>cluster_NewsWidgetModule</title>
<polygon fill="none" stroke="#000000" stroke-dasharray="1,5" points="8,-70 8,-268 821,-268 821,-70 8,-70"/>
</g>
<g id="clust2" class="cluster">
<title>cluster_NewsWidgetModule_declarations</title>
<polygon fill="none" stroke="#000000" points="384,-78 384,-130 813,-130 813,-78 384,-78"/>
</g>
<g id="clust5" class="cluster">
<title>cluster_NewsWidgetModule_imports</title>
<polygon fill="none" stroke="#000000" points="200,-78 200,-130 376,-130 376,-78 200,-78"/>
</g>
<g id="clust6" class="cluster">
<title>cluster_NewsWidgetModule_exports</title>
<polygon fill="none" stroke="#000000" points="313,-208 313,-260 487,-260 487,-208 313,-208"/>
</g>
<g id="clust8" class="cluster">
<title>cluster_NewsWidgetModule_providers</title>
<polygon fill="none" stroke="#000000" points="16,-78 16,-130 192,-130 192,-78 16,-78"/>
</g>
<!-- NewsWidgetComponent -->
<g id="node1" class="node">
<title>NewsWidgetComponent</title>
<polygon fill="#ffffb3" stroke="#000000" points="805.4158,-122 650.5842,-122 650.5842,-86 805.4158,-86 805.4158,-122"/>
<text text-anchor="middle" x="728" y="-99.8" font-family="Times,serif" font-size="14.00" fill="#000000">NewsWidgetComponent</text>
</g>
<!-- NewsWidgetModule -->
<g id="node3" class="node">
<title>NewsWidgetModule</title>
<polygon fill="#8dd3c7" stroke="#000000" points="466.1331,-187 463.1331,-191 442.1331,-191 439.1331,-187 333.8669,-187 333.8669,-151 466.1331,-151 466.1331,-187"/>
<text text-anchor="middle" x="400" y="-164.8" font-family="Times,serif" font-size="14.00" fill="#000000">NewsWidgetModule</text>
</g>
<!-- NewsWidgetComponent&#45;&gt;NewsWidgetModule -->
<g id="edge1" class="edge">
<title>NewsWidgetComponent&#45;&gt;NewsWidgetModule</title>
<path fill="none" stroke="#000000" d="M728,-122.1061C728,-141.3391 728,-169 728,-169 728,-169 476.3757,-169 476.3757,-169"/>
<polygon fill="#000000" stroke="#000000" points="476.3757,-165.5001 466.3757,-169 476.3757,-172.5001 476.3757,-165.5001"/>
</g>
<!-- NewsWidgetPersonalizationComponent -->
<g id="node2" class="node">
<title>NewsWidgetPersonalizationComponent</title>
<polygon fill="#ffffb3" stroke="#000000" points="632.224,-122 391.776,-122 391.776,-86 632.224,-86 632.224,-122"/>
<text text-anchor="middle" x="512" y="-99.8" font-family="Times,serif" font-size="14.00" fill="#000000">NewsWidgetPersonalizationComponent</text>
</g>
<!-- NewsWidgetPersonalizationComponent&#45;&gt;NewsWidgetModule -->
<g id="edge2" class="edge">
<title>NewsWidgetPersonalizationComponent&#45;&gt;NewsWidgetModule</title>
<path fill="none" stroke="#000000" d="M428.9772,-122.1061C428.9772,-122.1061 428.9772,-140.991 428.9772,-140.991"/>
<polygon fill="#000000" stroke="#000000" points="425.4773,-140.9909 428.9772,-150.991 432.4773,-140.991 425.4773,-140.9909"/>
</g>
<!-- NewsWidgetComponent  -->
<g id="node5" class="node">
<title>NewsWidgetComponent </title>
<polygon fill="#fb8072" stroke="#000000" points="478.9152,-252 321.0848,-252 321.0848,-216 478.9152,-216 478.9152,-252"/>
<text text-anchor="middle" x="400" y="-229.8" font-family="Times,serif" font-size="14.00" fill="#000000">NewsWidgetComponent </text>
</g>
<!-- NewsWidgetModule&#45;&gt;NewsWidgetComponent  -->
<g id="edge4" class="edge">
<title>NewsWidgetModule&#45;&gt;NewsWidgetComponent </title>
<path fill="none" stroke="#000000" stroke-dasharray="5,2" d="M400,-187.1061C400,-187.1061 400,-205.991 400,-205.991"/>
<polygon fill="#000000" stroke="#000000" points="396.5001,-205.9909 400,-215.991 403.5001,-205.991 396.5001,-205.9909"/>
</g>
<!-- WidgetTemplatesModule -->
<g id="node4" class="node">
<title>WidgetTemplatesModule</title>
<polygon fill="#8dd3c7" stroke="#000000" points="367.573,-122 364.573,-126 343.573,-126 340.573,-122 208.427,-122 208.427,-86 367.573,-86 367.573,-122"/>
<text text-anchor="middle" x="288" y="-99.8" font-family="Times,serif" font-size="14.00" fill="#000000">WidgetTemplatesModule</text>
</g>
<!-- WidgetTemplatesModule&#45;&gt;NewsWidgetModule -->
<g id="edge3" class="edge">
<title>WidgetTemplatesModule&#45;&gt;NewsWidgetModule</title>
<path fill="none" stroke="#000000" d="M350.6101,-122.1061C350.6101,-122.1061 350.6101,-140.991 350.6101,-140.991"/>
<polygon fill="#000000" stroke="#000000" points="347.1102,-140.9909 350.6101,-150.991 354.1102,-140.991 347.1102,-140.9909"/>
</g>
<!-- NewsDataService -->
<g id="node6" class="node">
<title>NewsDataService</title>
<ellipse fill="#fdb462" stroke="#000000" cx="104" cy="-104" rx="80.4112" ry="18"/>
<text text-anchor="middle" x="104" y="-99.8" font-family="Times,serif" font-size="14.00" fill="#000000">NewsDataService</text>
</g>
<!-- NewsDataService&#45;&gt;NewsWidgetModule -->
<g id="edge5" class="edge">
<title>NewsDataService&#45;&gt;NewsWidgetModule</title>
<path fill="none" stroke="#000000" d="M104,-122.1061C104,-141.3391 104,-169 104,-169 104,-169 323.5718,-169 323.5718,-169"/>
<polygon fill="#000000" stroke="#000000" points="323.5719,-172.5001 333.5718,-169 323.5718,-165.5001 323.5719,-172.5001"/>
</g>
</g>
</svg>
