<?xml version="1.0" encoding="UTF-8" standalone="no"?>
<!DOCTYPE svg PUBLIC "-//W3C//DTD SVG 1.1//EN"
 "http://www.w3.org/Graphics/SVG/1.1/DTD/svg11.dtd">
<!-- Generated by graphviz version 2.40.1 (20161225.0304)
 -->
<!-- Title: dependencies Pages: 1 -->
<svg width="926pt" height="211pt"
 viewBox="0.00 0.00 926.00 211.00" xmlns="http://www.w3.org/2000/svg" xmlns:xlink="http://www.w3.org/1999/xlink">
<g id="graph0" class="graph" transform="scale(1 1) rotate(0) translate(4 207)">
<title>dependencies</title>
<polygon fill="#ffffff" stroke="transparent" points="-4,4 -4,-207 922,-207 922,4 -4,4"/>
<text text-anchor="start" x="438.0091" y="-42.4" font-family="sans-serif" font-weight="bold" font-size="14.00" fill="#000000">Legend</text>
<polygon fill="#ffffb3" stroke="transparent" points="225,-10 225,-30 245,-30 245,-10 225,-10"/>
<text text-anchor="start" x="248.629" y="-15.4" font-family="sans-serif" font-size="14.00" fill="#000000"> &#160;Declarations</text>
<polygon fill="#8dd3c7" stroke="transparent" points="338,-10 338,-30 358,-30 358,-10 338,-10"/>
<text text-anchor="start" x="361.7251" y="-15.4" font-family="sans-serif" font-size="14.00" fill="#000000"> &#160;Module</text>
<polygon fill="#80b1d3" stroke="transparent" points="424,-10 424,-30 444,-30 444,-10 424,-10"/>
<text text-anchor="start" x="447.7812" y="-15.4" font-family="sans-serif" font-size="14.00" fill="#000000"> &#160;Bootstrap</text>
<polygon fill="#fdb462" stroke="transparent" points="521,-10 521,-30 541,-30 541,-10 521,-10"/>
<text text-anchor="start" x="544.6732" y="-15.4" font-family="sans-serif" font-size="14.00" fill="#000000"> &#160;Providers</text>
<polygon fill="#fb8072" stroke="transparent" points="617,-10 617,-30 637,-30 637,-10 617,-10"/>
<text text-anchor="start" x="640.7258" y="-15.4" font-family="sans-serif" font-size="14.00" fill="#000000"> &#160;Exports</text>
<g id="clust1" class="cluster">
<title>cluster_DocumentsFolderViewerModule</title>
<polygon fill="none" stroke="#000000" stroke-dasharray="1,5" points="8,-70 8,-195 910,-195 910,-70 8,-70"/>
</g>
<g id="clust2" class="cluster">
<title>cluster_DocumentsFolderViewerModule_declarations</title>
<polygon fill="none" stroke="#000000" points="336,-78 336,-130 902,-130 902,-78 336,-78"/>
</g>
<g id="clust8" class="cluster">
<title>cluster_DocumentsFolderViewerModule_providers</title>
<polygon fill="none" stroke="#000000" points="16,-78 16,-130 328,-130 328,-78 16,-78"/>
</g>
<!-- DocumentsFolderViewerComponent -->
<g id="node1" class="node">
<title>DocumentsFolderViewerComponent</title>
<polygon fill="#ffffb3" stroke="#000000" points="894.3361,-122 671.6639,-122 671.6639,-86 894.3361,-86 894.3361,-122"/>
<text text-anchor="middle" x="783" y="-99.8" font-family="Times,serif" font-size="14.00" fill="#000000">DocumentsFolderViewerComponent</text>
</g>
<!-- DocumentsFolderViewerModule -->
<g id="node3" class="node">
<title>DocumentsFolderViewerModule</title>
<polygon fill="#8dd3c7" stroke="#000000" points="599.5534,-187 596.5534,-191 575.5534,-191 572.5534,-187 398.4466,-187 398.4466,-151 599.5534,-151 599.5534,-187"/>
<text text-anchor="middle" x="499" y="-164.8" font-family="Times,serif" font-size="14.00" fill="#000000">DocumentsFolderViewerModule</text>
</g>
<!-- DocumentsFolderViewerComponent&#45;&gt;DocumentsFolderViewerModule -->
<g id="edge1" class="edge">
<title>DocumentsFolderViewerComponent&#45;&gt;DocumentsFolderViewerModule</title>
<path fill="none" stroke="#000000" d="M783,-122.1061C783,-141.3391 783,-169 783,-169 783,-169 609.5274,-169 609.5274,-169"/>
<polygon fill="#000000" stroke="#000000" points="609.5275,-165.5001 599.5274,-169 609.5274,-172.5001 609.5275,-165.5001"/>
</g>
<!-- DocumentsFolderViewerPersonalizationComponent -->
<g id="node2" class="node">
<title>DocumentsFolderViewerPersonalizationComponent</title>
<polygon fill="#ffffb3" stroke="#000000" points="653.6446,-122 344.3554,-122 344.3554,-86 653.6446,-86 653.6446,-122"/>
<text text-anchor="middle" x="499" y="-99.8" font-family="Times,serif" font-size="14.00" fill="#000000">DocumentsFolderViewerPersonalizationComponent</text>
</g>
<!-- DocumentsFolderViewerPersonalizationComponent&#45;&gt;DocumentsFolderViewerModule -->
<g id="edge2" class="edge">
<title>DocumentsFolderViewerPersonalizationComponent&#45;&gt;DocumentsFolderViewerModule</title>
<path fill="none" stroke="#000000" d="M499,-122.1061C499,-122.1061 499,-140.991 499,-140.991"/>
<polygon fill="#000000" stroke="#000000" points="495.5001,-140.9909 499,-150.991 502.5001,-140.991 495.5001,-140.9909"/>
</g>
<!-- documentsfolderviewerDataservice -->
<g id="node4" class="node">
<title>documentsfolderviewerDataservice</title>
<ellipse fill="#fdb462" stroke="#000000" cx="172" cy="-104" rx="147.5503" ry="18"/>
<text text-anchor="middle" x="172" y="-99.8" font-family="Times,serif" font-size="14.00" fill="#000000">documentsfolderviewerDataservice</text>
</g>
<!-- documentsfolderviewerDataservice&#45;&gt;DocumentsFolderViewerModule -->
<g id="edge3" class="edge">
<title>documentsfolderviewerDataservice&#45;&gt;DocumentsFolderViewerModule</title>
<path fill="none" stroke="#000000" d="M172,-122.1061C172,-141.3391 172,-169 172,-169 172,-169 388.221,-169 388.221,-169"/>
<polygon fill="#000000" stroke="#000000" points="388.221,-172.5001 398.221,-169 388.221,-165.5001 388.221,-172.5001"/>
</g>
</g>
</svg>
