<?xml version="1.0" encoding="UTF-8" standalone="no"?>
<!DOCTYPE svg PUBLIC "-//W3C//DTD SVG 1.1//EN"
 "http://www.w3.org/Graphics/SVG/1.1/DTD/svg11.dtd">
<!-- Generated by graphviz version 2.40.1 (20161225.0304)
 -->
<!-- Title: dependencies Pages: 1 -->
<svg width="708pt" height="284pt"
 viewBox="0.00 0.00 708.00 284.00" xmlns="http://www.w3.org/2000/svg" xmlns:xlink="http://www.w3.org/1999/xlink">
<g id="graph0" class="graph" transform="scale(1 1) rotate(0) translate(4 280)">
<title>dependencies</title>
<polygon fill="#ffffff" stroke="transparent" points="-4,4 -4,-280 704,-280 704,4 -4,4"/>
<text text-anchor="start" x="329.0091" y="-42.4" font-family="sans-serif" font-weight="bold" font-size="14.00" fill="#000000">Legend</text>
<polygon fill="#ffffb3" stroke="transparent" points="116,-10 116,-30 136,-30 136,-10 116,-10"/>
<text text-anchor="start" x="139.629" y="-15.4" font-family="sans-serif" font-size="14.00" fill="#000000"> &#160;Declarations</text>
<polygon fill="#8dd3c7" stroke="transparent" points="229,-10 229,-30 249,-30 249,-10 229,-10"/>
<text text-anchor="start" x="252.7251" y="-15.4" font-family="sans-serif" font-size="14.00" fill="#000000"> &#160;Module</text>
<polygon fill="#80b1d3" stroke="transparent" points="315,-10 315,-30 335,-30 335,-10 315,-10"/>
<text text-anchor="start" x="338.7812" y="-15.4" font-family="sans-serif" font-size="14.00" fill="#000000"> &#160;Bootstrap</text>
<polygon fill="#fdb462" stroke="transparent" points="412,-10 412,-30 432,-30 432,-10 412,-10"/>
<text text-anchor="start" x="435.6732" y="-15.4" font-family="sans-serif" font-size="14.00" fill="#000000"> &#160;Providers</text>
<polygon fill="#fb8072" stroke="transparent" points="508,-10 508,-30 528,-30 528,-10 508,-10"/>
<text text-anchor="start" x="531.7258" y="-15.4" font-family="sans-serif" font-size="14.00" fill="#000000"> &#160;Exports</text>
<g id="clust1" class="cluster">
<title>cluster_EmailNotificationWidgetModule</title>
<polygon fill="none" stroke="#000000" stroke-dasharray="1,5" points="8,-70 8,-268 692,-268 692,-70 8,-70"/>
</g>
<g id="clust2" class="cluster">
<title>cluster_EmailNotificationWidgetModule_declarations</title>
<polygon fill="none" stroke="#000000" points="444,-78 444,-130 684,-130 684,-78 444,-78"/>
</g>
<g id="clust4" class="cluster">
<title>cluster_EmailNotificationWidgetModule_imports</title>
<polygon fill="none" stroke="#000000" points="260,-78 260,-130 436,-130 436,-78 260,-78"/>
</g>
<g id="clust5" class="cluster">
<title>cluster_EmailNotificationWidgetModule_exports</title>
<polygon fill="none" stroke="#000000" points="226,-208 226,-260 470,-260 470,-208 226,-208"/>
</g>
<g id="clust7" class="cluster">
<title>cluster_EmailNotificationWidgetModule_providers</title>
<polygon fill="none" stroke="#000000" points="16,-78 16,-130 252,-130 252,-78 16,-78"/>
</g>
<!-- EmailNotificationWidgetComponent -->
<g id="node1" class="node">
<title>EmailNotificationWidgetComponent</title>
<polygon fill="#ffffb3" stroke="#000000" points="675.6315,-122 452.3685,-122 452.3685,-86 675.6315,-86 675.6315,-122"/>
<text text-anchor="middle" x="564" y="-99.8" font-family="Times,serif" font-size="14.00" fill="#000000">EmailNotificationWidgetComponent</text>
</g>
<!-- EmailNotificationWidgetModule -->
<g id="node2" class="node">
<title>EmailNotificationWidgetModule</title>
<polygon fill="#8dd3c7" stroke="#000000" points="448.8487,-187 445.8487,-191 424.8487,-191 421.8487,-187 247.1513,-187 247.1513,-151 448.8487,-151 448.8487,-187"/>
<text text-anchor="middle" x="348" y="-164.8" font-family="Times,serif" font-size="14.00" fill="#000000">EmailNotificationWidgetModule</text>
</g>
<!-- EmailNotificationWidgetComponent&#45;&gt;EmailNotificationWidgetModule -->
<g id="edge1" class="edge">
<title>EmailNotificationWidgetComponent&#45;&gt;EmailNotificationWidgetModule</title>
<path fill="none" stroke="#000000" d="M456.875,-122.1061C456.875,-141.3391 456.875,-169 456.875,-169 456.875,-169 456.092,-169 456.092,-169"/>
<polygon fill="#000000" stroke="#000000" points="459.045,-165.5001 449.045,-169 459.0449,-172.5001 459.045,-165.5001"/>
</g>
<!-- EmailNotificationWidgetComponent  -->
<g id="node4" class="node">
<title>EmailNotificationWidgetComponent </title>
<polygon fill="#fb8072" stroke="#000000" points="461.6312,-252 234.3688,-252 234.3688,-216 461.6312,-216 461.6312,-252"/>
<text text-anchor="middle" x="348" y="-229.8" font-family="Times,serif" font-size="14.00" fill="#000000">EmailNotificationWidgetComponent </text>
</g>
<!-- EmailNotificationWidgetModule&#45;&gt;EmailNotificationWidgetComponent  -->
<g id="edge3" class="edge">
<title>EmailNotificationWidgetModule&#45;&gt;EmailNotificationWidgetComponent </title>
<path fill="none" stroke="#000000" stroke-dasharray="5,2" d="M348,-187.1061C348,-187.1061 348,-205.991 348,-205.991"/>
<polygon fill="#000000" stroke="#000000" points="344.5001,-205.9909 348,-215.991 351.5001,-205.991 344.5001,-205.9909"/>
</g>
<!-- WidgetTemplatesModule -->
<g id="node3" class="node">
<title>WidgetTemplatesModule</title>
<polygon fill="#8dd3c7" stroke="#000000" points="427.573,-122 424.573,-126 403.573,-126 400.573,-122 268.427,-122 268.427,-86 427.573,-86 427.573,-122"/>
<text text-anchor="middle" x="348" y="-99.8" font-family="Times,serif" font-size="14.00" fill="#000000">WidgetTemplatesModule</text>
</g>
<!-- WidgetTemplatesModule&#45;&gt;EmailNotificationWidgetModule -->
<g id="edge2" class="edge">
<title>WidgetTemplatesModule&#45;&gt;EmailNotificationWidgetModule</title>
<path fill="none" stroke="#000000" d="M348,-122.1061C348,-122.1061 348,-140.991 348,-140.991"/>
<polygon fill="#000000" stroke="#000000" points="344.5001,-140.9909 348,-150.991 351.5001,-140.991 344.5001,-140.9909"/>
</g>
<!-- EmailNotificationService -->
<g id="node5" class="node">
<title>EmailNotificationService</title>
<ellipse fill="#fdb462" stroke="#000000" cx="134" cy="-104" rx="109.9421" ry="18"/>
<text text-anchor="middle" x="134" y="-99.8" font-family="Times,serif" font-size="14.00" fill="#000000">EmailNotificationService</text>
</g>
<!-- EmailNotificationService&#45;&gt;EmailNotificationWidgetModule -->
<g id="edge4" class="edge">
<title>EmailNotificationService&#45;&gt;EmailNotificationWidgetModule</title>
<path fill="none" stroke="#000000" d="M239.0776,-109.5419C239.0776,-125.2607 239.0776,-169 239.0776,-169 239.0776,-169 239.861,-169 239.861,-169"/>
<polygon fill="#000000" stroke="#000000" points="236.9111,-172.5001 246.911,-169 236.911,-165.5001 236.9111,-172.5001"/>
</g>
</g>
</svg>
