<?xml version="1.0" encoding="UTF-8" standalone="no"?>
<!DOCTYPE svg PUBLIC "-//W3C//DTD SVG 1.1//EN"
 "http://www.w3.org/Graphics/SVG/1.1/DTD/svg11.dtd">
<!-- Generated by graphviz version 2.40.1 (20161225.0304)
 -->
<!-- Title: dependencies Pages: 1 -->
<svg width="504pt" height="211pt"
 viewBox="0.00 0.00 504.00 211.00" xmlns="http://www.w3.org/2000/svg" xmlns:xlink="http://www.w3.org/1999/xlink">
<g id="graph0" class="graph" transform="scale(1 1) rotate(0) translate(4 207)">
<title>dependencies</title>
<polygon fill="#ffffff" stroke="transparent" points="-4,4 -4,-207 500,-207 500,4 -4,4"/>
<text text-anchor="start" x="227.0091" y="-42.4" font-family="sans-serif" font-weight="bold" font-size="14.00" fill="#000000">Legend</text>
<polygon fill="#ffffb3" stroke="transparent" points="14,-10 14,-30 34,-30 34,-10 14,-10"/>
<text text-anchor="start" x="37.629" y="-15.4" font-family="sans-serif" font-size="14.00" fill="#000000"> &#160;Declarations</text>
<polygon fill="#8dd3c7" stroke="transparent" points="127,-10 127,-30 147,-30 147,-10 127,-10"/>
<text text-anchor="start" x="150.7251" y="-15.4" font-family="sans-serif" font-size="14.00" fill="#000000"> &#160;Module</text>
<polygon fill="#80b1d3" stroke="transparent" points="213,-10 213,-30 233,-30 233,-10 213,-10"/>
<text text-anchor="start" x="236.7812" y="-15.4" font-family="sans-serif" font-size="14.00" fill="#000000"> &#160;Bootstrap</text>
<polygon fill="#fdb462" stroke="transparent" points="310,-10 310,-30 330,-30 330,-10 310,-10"/>
<text text-anchor="start" x="333.6732" y="-15.4" font-family="sans-serif" font-size="14.00" fill="#000000"> &#160;Providers</text>
<polygon fill="#fb8072" stroke="transparent" points="406,-10 406,-30 426,-30 426,-10 406,-10"/>
<text text-anchor="start" x="429.7258" y="-15.4" font-family="sans-serif" font-size="14.00" fill="#000000"> &#160;Exports</text>
<g id="clust1" class="cluster">
<title>cluster_FormattersModule</title>
<polygon fill="none" stroke="#000000" stroke-dasharray="1,5" points="72,-70 72,-195 424,-195 424,-70 72,-70"/>
</g>
<g id="clust3" class="cluster">
<title>cluster_FormattersModule_imports</title>
<polygon fill="none" stroke="#000000" points="80,-78 80,-130 416,-130 416,-78 80,-78"/>
</g>
<!-- DateFormatterModule -->
<g id="node1" class="node">
<title>DateFormatterModule</title>
<polygon fill="#8dd3c7" stroke="#000000" points="407.6811,-122 404.6811,-126 383.6811,-126 380.6811,-122 266.3189,-122 266.3189,-86 407.6811,-86 407.6811,-122"/>
<text text-anchor="middle" x="337" y="-99.8" font-family="Times,serif" font-size="14.00" fill="#000000">DateFormatterModule</text>
</g>
<!-- FormattersModule -->
<g id="node3" class="node">
<title>FormattersModule</title>
<polygon fill="#8dd3c7" stroke="#000000" points="312.1994,-187 309.1994,-191 288.1994,-191 285.1994,-187 191.8006,-187 191.8006,-151 312.1994,-151 312.1994,-187"/>
<text text-anchor="middle" x="252" y="-164.8" font-family="Times,serif" font-size="14.00" fill="#000000">FormattersModule</text>
</g>
<!-- DateFormatterModule&#45;&gt;FormattersModule -->
<g id="edge1" class="edge">
<title>DateFormatterModule&#45;&gt;FormattersModule</title>
<path fill="none" stroke="#000000" d="M289.2546,-122.1061C289.2546,-122.1061 289.2546,-140.991 289.2546,-140.991"/>
<polygon fill="#000000" stroke="#000000" points="285.7546,-140.9909 289.2546,-150.991 292.7546,-140.991 285.7546,-140.9909"/>
</g>
<!-- NumberFormatterModule -->
<g id="node2" class="node">
<title>NumberFormatterModule</title>
<polygon fill="#8dd3c7" stroke="#000000" points="248.1274,-122 245.1274,-126 224.1274,-126 221.1274,-122 87.8726,-122 87.8726,-86 248.1274,-86 248.1274,-122"/>
<text text-anchor="middle" x="168" y="-99.8" font-family="Times,serif" font-size="14.00" fill="#000000">NumberFormatterModule</text>
</g>
<!-- NumberFormatterModule&#45;&gt;FormattersModule -->
<g id="edge2" class="edge">
<title>NumberFormatterModule&#45;&gt;FormattersModule</title>
<path fill="none" stroke="#000000" d="M220.107,-122.1061C220.107,-122.1061 220.107,-140.991 220.107,-140.991"/>
<polygon fill="#000000" stroke="#000000" points="216.607,-140.9909 220.107,-150.991 223.607,-140.991 216.607,-140.9909"/>
</g>
</g>
</svg>
