<?xml version="1.0" encoding="UTF-8" standalone="no"?>
<!DOCTYPE svg PUBLIC "-//W3C//DTD SVG 1.1//EN"
 "http://www.w3.org/Graphics/SVG/1.1/DTD/svg11.dtd">
<!-- Generated by graphviz version 2.40.1 (20161225.0304)
 -->
<!-- Title: dependencies Pages: 1 -->
<svg width="737pt" height="284pt"
 viewBox="0.00 0.00 737.00 284.00" xmlns="http://www.w3.org/2000/svg" xmlns:xlink="http://www.w3.org/1999/xlink">
<g id="graph0" class="graph" transform="scale(1 1) rotate(0) translate(4 280)">
<title>dependencies</title>
<polygon fill="#ffffff" stroke="transparent" points="-4,4 -4,-280 733,-280 733,4 -4,4"/>
<text text-anchor="start" x="343.5091" y="-42.4" font-family="sans-serif" font-weight="bold" font-size="14.00" fill="#000000">Legend</text>
<polygon fill="#ffffb3" stroke="transparent" points="130.5,-10 130.5,-30 150.5,-30 150.5,-10 130.5,-10"/>
<text text-anchor="start" x="154.129" y="-15.4" font-family="sans-serif" font-size="14.00" fill="#000000"> &#160;Declarations</text>
<polygon fill="#8dd3c7" stroke="transparent" points="243.5,-10 243.5,-30 263.5,-30 263.5,-10 243.5,-10"/>
<text text-anchor="start" x="267.2251" y="-15.4" font-family="sans-serif" font-size="14.00" fill="#000000"> &#160;Module</text>
<polygon fill="#80b1d3" stroke="transparent" points="329.5,-10 329.5,-30 349.5,-30 349.5,-10 329.5,-10"/>
<text text-anchor="start" x="353.2812" y="-15.4" font-family="sans-serif" font-size="14.00" fill="#000000"> &#160;Bootstrap</text>
<polygon fill="#fdb462" stroke="transparent" points="426.5,-10 426.5,-30 446.5,-30 446.5,-10 426.5,-10"/>
<text text-anchor="start" x="450.1732" y="-15.4" font-family="sans-serif" font-size="14.00" fill="#000000"> &#160;Providers</text>
<polygon fill="#fb8072" stroke="transparent" points="522.5,-10 522.5,-30 542.5,-30 542.5,-10 522.5,-10"/>
<text text-anchor="start" x="546.2258" y="-15.4" font-family="sans-serif" font-size="14.00" fill="#000000"> &#160;Exports</text>
<g id="clust1" class="cluster">
<title>cluster_ColorPickerModule</title>
<polygon fill="none" stroke="#000000" stroke-dasharray="1,5" points="8,-70 8,-268 721,-268 721,-70 8,-70"/>
</g>
<g id="clust2" class="cluster">
<title>cluster_ColorPickerModule_declarations</title>
<polygon fill="none" stroke="#000000" points="214,-78 214,-130 713,-130 713,-78 214,-78"/>
</g>
<g id="clust7" class="cluster">
<title>cluster_ColorPickerModule_exports</title>
<polygon fill="none" stroke="#000000" points="123,-208 123,-260 632,-260 632,-208 123,-208"/>
</g>
<g id="clust9" class="cluster">
<title>cluster_ColorPickerModule_providers</title>
<polygon fill="none" stroke="#000000" points="16,-78 16,-130 206,-130 206,-78 16,-78"/>
</g>
<!-- ColorPaletteComponent -->
<g id="node1" class="node">
<title>ColorPaletteComponent</title>
<polygon fill="#ffffb3" stroke="#000000" points="704.8187,-122 553.1813,-122 553.1813,-86 704.8187,-86 704.8187,-122"/>
<text text-anchor="middle" x="629" y="-99.8" font-family="Times,serif" font-size="14.00" fill="#000000">ColorPaletteComponent</text>
</g>
<!-- ColorPickerModule -->
<g id="node4" class="node">
<title>ColorPickerModule</title>
<polygon fill="#8dd3c7" stroke="#000000" points="438.7008,-187 435.7008,-191 414.7008,-191 411.7008,-187 311.2992,-187 311.2992,-151 438.7008,-151 438.7008,-187"/>
<text text-anchor="middle" x="375" y="-164.8" font-family="Times,serif" font-size="14.00" fill="#000000">ColorPickerModule</text>
</g>
<!-- ColorPaletteComponent&#45;&gt;ColorPickerModule -->
<g id="edge1" class="edge">
<title>ColorPaletteComponent&#45;&gt;ColorPickerModule</title>
<path fill="none" stroke="#000000" d="M588.875,-122.0225C588.875,-139.3734 588.875,-163 588.875,-163 588.875,-163 448.8799,-163 448.8799,-163"/>
<polygon fill="#000000" stroke="#000000" points="448.8799,-159.5001 438.8799,-163 448.8798,-166.5001 448.8799,-159.5001"/>
</g>
<!-- ColorPickerComponent -->
<g id="node2" class="node">
<title>ColorPickerComponent</title>
<polygon fill="#ffffb3" stroke="#000000" points="535.4832,-122 386.5168,-122 386.5168,-86 535.4832,-86 535.4832,-122"/>
<text text-anchor="middle" x="461" y="-99.8" font-family="Times,serif" font-size="14.00" fill="#000000">ColorPickerComponent</text>
</g>
<!-- ColorPickerComponent&#45;&gt;ColorPickerModule -->
<g id="edge2" class="edge">
<title>ColorPickerComponent&#45;&gt;ColorPickerModule</title>
<path fill="none" stroke="#000000" d="M412.5544,-122.1061C412.5544,-122.1061 412.5544,-140.991 412.5544,-140.991"/>
<polygon fill="#000000" stroke="#000000" points="409.0544,-140.9909 412.5544,-150.991 416.0544,-140.991 409.0544,-140.9909"/>
</g>
<!-- ColorSliderComponent -->
<g id="node3" class="node">
<title>ColorSliderComponent</title>
<polygon fill="#ffffb3" stroke="#000000" points="368.1596,-122 221.8404,-122 221.8404,-86 368.1596,-86 368.1596,-122"/>
<text text-anchor="middle" x="295" y="-99.8" font-family="Times,serif" font-size="14.00" fill="#000000">ColorSliderComponent</text>
</g>
<!-- ColorSliderComponent&#45;&gt;ColorPickerModule -->
<g id="edge3" class="edge">
<title>ColorSliderComponent&#45;&gt;ColorPickerModule</title>
<path fill="none" stroke="#000000" d="M339.8647,-122.1061C339.8647,-122.1061 339.8647,-140.991 339.8647,-140.991"/>
<polygon fill="#000000" stroke="#000000" points="336.3647,-140.9909 339.8647,-150.991 343.3647,-140.991 336.3647,-140.9909"/>
</g>
<!-- ColorPaletteComponent  -->
<g id="node5" class="node">
<title>ColorPaletteComponent </title>
<polygon fill="#fb8072" stroke="#000000" points="624.3185,-252 469.6815,-252 469.6815,-216 624.3185,-216 624.3185,-252"/>
<text text-anchor="middle" x="547" y="-229.8" font-family="Times,serif" font-size="14.00" fill="#000000">ColorPaletteComponent </text>
</g>
<!-- ColorPickerModule&#45;&gt;ColorPaletteComponent  -->
<g id="edge4" class="edge">
<title>ColorPickerModule&#45;&gt;ColorPaletteComponent </title>
<path fill="none" stroke="#000000" stroke-dasharray="5,2" d="M438.7706,-175C470.6559,-175 502.5412,-175 502.5412,-175 502.5412,-175 502.5412,-205.9775 502.5412,-205.9775"/>
<polygon fill="#000000" stroke="#000000" points="499.0413,-205.9774 502.5412,-215.9775 506.0413,-205.9775 499.0413,-205.9774"/>
</g>
<!-- ColorPickerComponent  -->
<g id="node6" class="node">
<title>ColorPickerComponent </title>
<polygon fill="#fb8072" stroke="#000000" points="451.484,-252 298.516,-252 298.516,-216 451.484,-216 451.484,-252"/>
<text text-anchor="middle" x="375" y="-229.8" font-family="Times,serif" font-size="14.00" fill="#000000">ColorPickerComponent </text>
</g>
<!-- ColorPickerModule&#45;&gt;ColorPickerComponent  -->
<g id="edge5" class="edge">
<title>ColorPickerModule&#45;&gt;ColorPickerComponent </title>
<path fill="none" stroke="#000000" stroke-dasharray="5,2" d="M375,-187.1061C375,-187.1061 375,-205.991 375,-205.991"/>
<polygon fill="#000000" stroke="#000000" points="371.5001,-205.9909 375,-215.991 378.5001,-205.991 371.5001,-205.9909"/>
</g>
<!-- ColorSliderComponent  -->
<g id="node7" class="node">
<title>ColorSliderComponent </title>
<polygon fill="#fb8072" stroke="#000000" points="281.1593,-252 130.8407,-252 130.8407,-216 281.1593,-216 281.1593,-252"/>
<text text-anchor="middle" x="206" y="-229.8" font-family="Times,serif" font-size="14.00" fill="#000000">ColorSliderComponent </text>
</g>
<!-- ColorPickerModule&#45;&gt;ColorSliderComponent  -->
<g id="edge6" class="edge">
<title>ColorPickerModule&#45;&gt;ColorSliderComponent </title>
<path fill="none" stroke="#000000" stroke-dasharray="5,2" d="M311.3768,-175C281.0858,-175 251.375,-175 251.375,-175 251.375,-175 251.375,-205.9775 251.375,-205.9775"/>
<polygon fill="#000000" stroke="#000000" points="247.8751,-205.9774 251.375,-215.9775 254.8751,-205.9775 247.8751,-205.9774"/>
</g>
<!-- ColorPickerService -->
<g id="node8" class="node">
<title>ColorPickerService</title>
<ellipse fill="#fdb462" stroke="#000000" cx="111" cy="-104" rx="86.8126" ry="18"/>
<text text-anchor="middle" x="111" y="-99.8" font-family="Times,serif" font-size="14.00" fill="#000000">ColorPickerService</text>
</g>
<!-- ColorPickerService&#45;&gt;ColorPickerModule -->
<g id="edge7" class="edge">
<title>ColorPickerService&#45;&gt;ColorPickerModule</title>
<path fill="none" stroke="#000000" d="M164.2883,-118.2823C164.2883,-135.7435 164.2883,-163 164.2883,-163 164.2883,-163 301.2077,-163 301.2077,-163"/>
<polygon fill="#000000" stroke="#000000" points="301.2078,-166.5001 311.2077,-163 301.2077,-159.5001 301.2078,-166.5001"/>
</g>
</g>
</svg>
