<?xml version="1.0" encoding="UTF-8" standalone="no"?>
<!DOCTYPE svg PUBLIC "-//W3C//DTD SVG 1.1//EN"
 "http://www.w3.org/Graphics/SVG/1.1/DTD/svg11.dtd">
<!-- Generated by graphviz version 2.40.1 (20161225.0304)
 -->
<!-- Title: dependencies Pages: 1 -->
<svg width="678pt" height="284pt"
 viewBox="0.00 0.00 678.00 284.00" xmlns="http://www.w3.org/2000/svg" xmlns:xlink="http://www.w3.org/1999/xlink">
<g id="graph0" class="graph" transform="scale(1 1) rotate(0) translate(4 280)">
<title>dependencies</title>
<polygon fill="#ffffff" stroke="transparent" points="-4,4 -4,-280 674,-280 674,4 -4,4"/>
<text text-anchor="start" x="314.0091" y="-42.4" font-family="sans-serif" font-weight="bold" font-size="14.00" fill="#000000">Legend</text>
<polygon fill="#ffffb3" stroke="transparent" points="101,-10 101,-30 121,-30 121,-10 101,-10"/>
<text text-anchor="start" x="124.629" y="-15.4" font-family="sans-serif" font-size="14.00" fill="#000000"> &#160;Declarations</text>
<polygon fill="#8dd3c7" stroke="transparent" points="214,-10 214,-30 234,-30 234,-10 214,-10"/>
<text text-anchor="start" x="237.7251" y="-15.4" font-family="sans-serif" font-size="14.00" fill="#000000"> &#160;Module</text>
<polygon fill="#80b1d3" stroke="transparent" points="300,-10 300,-30 320,-30 320,-10 300,-10"/>
<text text-anchor="start" x="323.7812" y="-15.4" font-family="sans-serif" font-size="14.00" fill="#000000"> &#160;Bootstrap</text>
<polygon fill="#fdb462" stroke="transparent" points="397,-10 397,-30 417,-30 417,-10 397,-10"/>
<text text-anchor="start" x="420.6732" y="-15.4" font-family="sans-serif" font-size="14.00" fill="#000000"> &#160;Providers</text>
<polygon fill="#fb8072" stroke="transparent" points="493,-10 493,-30 513,-30 513,-10 493,-10"/>
<text text-anchor="start" x="516.7258" y="-15.4" font-family="sans-serif" font-size="14.00" fill="#000000"> &#160;Exports</text>
<g id="clust1" class="cluster">
<title>cluster_AutoCollapsibleModule</title>
<polygon fill="none" stroke="#000000" stroke-dasharray="1,5" points="8,-70 8,-268 662,-268 662,-70 8,-70"/>
</g>
<g id="clust2" class="cluster">
<title>cluster_AutoCollapsibleModule_declarations</title>
<polygon fill="none" stroke="#000000" points="294,-78 294,-130 654,-130 654,-78 294,-78"/>
</g>
<g id="clust5" class="cluster">
<title>cluster_AutoCollapsibleModule_imports</title>
<polygon fill="none" stroke="#000000" points="16,-78 16,-130 286,-130 286,-78 16,-78"/>
</g>
<g id="clust6" class="cluster">
<title>cluster_AutoCollapsibleModule_exports</title>
<polygon fill="none" stroke="#000000" points="210,-208 210,-260 390,-260 390,-208 210,-208"/>
</g>
<!-- AutoCollapsibleDirective -->
<g id="node1" class="node">
<title>AutoCollapsibleDirective</title>
<polygon fill="#ffffb3" stroke="#000000" points="645.8529,-122 486.1471,-122 486.1471,-86 645.8529,-86 645.8529,-122"/>
<text text-anchor="middle" x="566" y="-99.8" font-family="Times,serif" font-size="14.00" fill="#000000">AutoCollapsibleDirective</text>
</g>
<!-- AutoCollapsibleModule -->
<g id="node3" class="node">
<title>AutoCollapsibleModule</title>
<polygon fill="#8dd3c7" stroke="#000000" points="375.8201,-187 372.8201,-191 351.8201,-191 348.8201,-187 224.1799,-187 224.1799,-151 375.8201,-151 375.8201,-187"/>
<text text-anchor="middle" x="300" y="-164.8" font-family="Times,serif" font-size="14.00" fill="#000000">AutoCollapsibleModule</text>
</g>
<!-- AutoCollapsibleDirective&#45;&gt;AutoCollapsibleModule -->
<g id="edge1" class="edge">
<title>AutoCollapsibleDirective&#45;&gt;AutoCollapsibleModule</title>
<path fill="none" stroke="#000000" d="M566,-122.1061C566,-141.3391 566,-169 566,-169 566,-169 385.8689,-169 385.8689,-169"/>
<polygon fill="#000000" stroke="#000000" points="385.869,-165.5001 375.8689,-169 385.8689,-172.5001 385.869,-165.5001"/>
</g>
<!-- DynamicMenuComponent -->
<g id="node2" class="node">
<title>DynamicMenuComponent</title>
<polygon fill="#ffffb3" stroke="#000000" points="467.8089,-122 302.1911,-122 302.1911,-86 467.8089,-86 467.8089,-122"/>
<text text-anchor="middle" x="385" y="-99.8" font-family="Times,serif" font-size="14.00" fill="#000000">DynamicMenuComponent</text>
</g>
<!-- DynamicMenuComponent&#45;&gt;AutoCollapsibleModule -->
<g id="edge2" class="edge">
<title>DynamicMenuComponent&#45;&gt;AutoCollapsibleModule</title>
<path fill="none" stroke="#000000" d="M339.0028,-122.1061C339.0028,-122.1061 339.0028,-140.991 339.0028,-140.991"/>
<polygon fill="#000000" stroke="#000000" points="335.5029,-140.9909 339.0028,-150.991 342.5029,-140.991 335.5029,-140.9909"/>
</g>
<!-- AutoCollapsibleDirective  -->
<g id="node6" class="node">
<title>AutoCollapsibleDirective </title>
<polygon fill="#fb8072" stroke="#000000" points="381.8532,-252 218.1468,-252 218.1468,-216 381.8532,-216 381.8532,-252"/>
<text text-anchor="middle" x="300" y="-229.8" font-family="Times,serif" font-size="14.00" fill="#000000">AutoCollapsibleDirective </text>
</g>
<!-- AutoCollapsibleModule&#45;&gt;AutoCollapsibleDirective  -->
<g id="edge5" class="edge">
<title>AutoCollapsibleModule&#45;&gt;AutoCollapsibleDirective </title>
<path fill="none" stroke="#000000" stroke-dasharray="5,2" d="M300,-187.1061C300,-187.1061 300,-205.991 300,-205.991"/>
<polygon fill="#000000" stroke="#000000" points="296.5001,-205.9909 300,-215.991 303.5001,-205.991 296.5001,-205.9909"/>
</g>
<!-- ButtonTitleModule -->
<g id="node4" class="node">
<title>ButtonTitleModule</title>
<polygon fill="#8dd3c7" stroke="#000000" points="278.1066,-122 275.1066,-126 254.1066,-126 251.1066,-122 153.8934,-122 153.8934,-86 278.1066,-86 278.1066,-122"/>
<text text-anchor="middle" x="216" y="-99.8" font-family="Times,serif" font-size="14.00" fill="#000000">ButtonTitleModule</text>
</g>
<!-- ButtonTitleModule&#45;&gt;AutoCollapsibleModule -->
<g id="edge3" class="edge">
<title>ButtonTitleModule&#45;&gt;AutoCollapsibleModule</title>
<path fill="none" stroke="#000000" d="M251.1967,-122.1061C251.1967,-122.1061 251.1967,-140.991 251.1967,-140.991"/>
<polygon fill="#000000" stroke="#000000" points="247.6968,-140.9909 251.1967,-150.991 254.6968,-140.991 247.6968,-140.9909"/>
</g>
<!-- KeyPressModule -->
<g id="node5" class="node">
<title>KeyPressModule</title>
<polygon fill="#8dd3c7" stroke="#000000" points="136.4188,-122 133.4188,-126 112.4188,-126 109.4188,-122 23.5812,-122 23.5812,-86 136.4188,-86 136.4188,-122"/>
<text text-anchor="middle" x="80" y="-99.8" font-family="Times,serif" font-size="14.00" fill="#000000">KeyPressModule</text>
</g>
<!-- KeyPressModule&#45;&gt;AutoCollapsibleModule -->
<g id="edge4" class="edge">
<title>KeyPressModule&#45;&gt;AutoCollapsibleModule</title>
<path fill="none" stroke="#000000" d="M80,-122.1061C80,-141.3391 80,-169 80,-169 80,-169 214.2885,-169 214.2885,-169"/>
<polygon fill="#000000" stroke="#000000" points="214.2885,-172.5001 224.2885,-169 214.2884,-165.5001 214.2885,-172.5001"/>
</g>
</g>
</svg>
