<?xml version="1.0" encoding="UTF-8" standalone="no"?>
<!DOCTYPE svg PUBLIC "-//W3C//DTD SVG 1.1//EN"
 "http://www.w3.org/Graphics/SVG/1.1/DTD/svg11.dtd">
<!-- Generated by graphviz version 2.40.1 (20161225.0304)
 -->
<!-- Title: dependencies Pages: 1 -->
<svg width="731pt" height="211pt"
 viewBox="0.00 0.00 731.00 211.00" xmlns="http://www.w3.org/2000/svg" xmlns:xlink="http://www.w3.org/1999/xlink">
<g id="graph0" class="graph" transform="scale(1 1) rotate(0) translate(4 207)">
<title>dependencies</title>
<polygon fill="#ffffff" stroke="transparent" points="-4,4 -4,-207 727,-207 727,4 -4,4"/>
<text text-anchor="start" x="340.5091" y="-42.4" font-family="sans-serif" font-weight="bold" font-size="14.00" fill="#000000">Legend</text>
<polygon fill="#ffffb3" stroke="transparent" points="127.5,-10 127.5,-30 147.5,-30 147.5,-10 127.5,-10"/>
<text text-anchor="start" x="151.129" y="-15.4" font-family="sans-serif" font-size="14.00" fill="#000000"> &#160;Declarations</text>
<polygon fill="#8dd3c7" stroke="transparent" points="240.5,-10 240.5,-30 260.5,-30 260.5,-10 240.5,-10"/>
<text text-anchor="start" x="264.2251" y="-15.4" font-family="sans-serif" font-size="14.00" fill="#000000"> &#160;Module</text>
<polygon fill="#80b1d3" stroke="transparent" points="326.5,-10 326.5,-30 346.5,-30 346.5,-10 326.5,-10"/>
<text text-anchor="start" x="350.2812" y="-15.4" font-family="sans-serif" font-size="14.00" fill="#000000"> &#160;Bootstrap</text>
<polygon fill="#fdb462" stroke="transparent" points="423.5,-10 423.5,-30 443.5,-30 443.5,-10 423.5,-10"/>
<text text-anchor="start" x="447.1732" y="-15.4" font-family="sans-serif" font-size="14.00" fill="#000000"> &#160;Providers</text>
<polygon fill="#fb8072" stroke="transparent" points="519.5,-10 519.5,-30 539.5,-30 539.5,-10 519.5,-10"/>
<text text-anchor="start" x="543.2258" y="-15.4" font-family="sans-serif" font-size="14.00" fill="#000000"> &#160;Exports</text>
<g id="clust1" class="cluster">
<title>cluster_BIReportsWidgetModule</title>
<polygon fill="none" stroke="#000000" stroke-dasharray="1,5" points="8,-70 8,-195 715,-195 715,-70 8,-70"/>
</g>
<g id="clust2" class="cluster">
<title>cluster_BIReportsWidgetModule_declarations</title>
<polygon fill="none" stroke="#000000" points="228,-78 228,-130 707,-130 707,-78 228,-78"/>
</g>
<g id="clust8" class="cluster">
<title>cluster_BIReportsWidgetModule_providers</title>
<polygon fill="none" stroke="#000000" points="16,-78 16,-130 220,-130 220,-78 16,-78"/>
</g>
<!-- BiReportsWidgetComponent -->
<g id="node1" class="node">
<title>BiReportsWidgetComponent</title>
<polygon fill="#ffffb3" stroke="#000000" points="698.8173,-122 519.1827,-122 519.1827,-86 698.8173,-86 698.8173,-122"/>
<text text-anchor="middle" x="609" y="-99.8" font-family="Times,serif" font-size="14.00" fill="#000000">BiReportsWidgetComponent</text>
</g>
<!-- BIReportsWidgetModule -->
<g id="node3" class="node">
<title>BIReportsWidgetModule</title>
<polygon fill="#8dd3c7" stroke="#000000" points="448.3047,-187 445.3047,-191 424.3047,-191 421.3047,-187 289.6953,-187 289.6953,-151 448.3047,-151 448.3047,-187"/>
<text text-anchor="middle" x="369" y="-164.8" font-family="Times,serif" font-size="14.00" fill="#000000">BIReportsWidgetModule</text>
</g>
<!-- BiReportsWidgetComponent&#45;&gt;BIReportsWidgetModule -->
<g id="edge1" class="edge">
<title>BiReportsWidgetComponent&#45;&gt;BIReportsWidgetModule</title>
<path fill="none" stroke="#000000" d="M609,-122.1061C609,-141.3391 609,-169 609,-169 609,-169 458.2501,-169 458.2501,-169"/>
<polygon fill="#000000" stroke="#000000" points="458.2502,-165.5001 448.2501,-169 458.2501,-172.5001 458.2502,-165.5001"/>
</g>
<!-- BiReportsWidgetPersonalizationComponent -->
<g id="node2" class="node">
<title>BiReportsWidgetPersonalizationComponent</title>
<polygon fill="#ffffb3" stroke="#000000" points="501.6259,-122 236.3741,-122 236.3741,-86 501.6259,-86 501.6259,-122"/>
<text text-anchor="middle" x="369" y="-99.8" font-family="Times,serif" font-size="14.00" fill="#000000">BiReportsWidgetPersonalizationComponent</text>
</g>
<!-- BiReportsWidgetPersonalizationComponent&#45;&gt;BIReportsWidgetModule -->
<g id="edge2" class="edge">
<title>BiReportsWidgetPersonalizationComponent&#45;&gt;BIReportsWidgetModule</title>
<path fill="none" stroke="#000000" d="M369,-122.1061C369,-122.1061 369,-140.991 369,-140.991"/>
<polygon fill="#000000" stroke="#000000" points="365.5001,-140.9909 369,-150.991 372.5001,-140.991 365.5001,-140.9909"/>
</g>
<!-- BIReportDataService -->
<g id="node4" class="node">
<title>BIReportDataService</title>
<ellipse fill="#fdb462" stroke="#000000" cx="118" cy="-104" rx="94.3157" ry="18"/>
<text text-anchor="middle" x="118" y="-99.8" font-family="Times,serif" font-size="14.00" fill="#000000">BIReportDataService</text>
</g>
<!-- BIReportDataService&#45;&gt;BIReportsWidgetModule -->
<g id="edge3" class="edge">
<title>BIReportDataService&#45;&gt;BIReportsWidgetModule</title>
<path fill="none" stroke="#000000" d="M118,-122.1061C118,-141.3391 118,-169 118,-169 118,-169 279.582,-169 279.582,-169"/>
<polygon fill="#000000" stroke="#000000" points="279.5821,-172.5001 289.582,-169 279.582,-165.5001 279.5821,-172.5001"/>
</g>
</g>
</svg>
