<?xml version="1.0" encoding="UTF-8" standalone="no"?>
<!DOCTYPE svg PUBLIC "-//W3C//DTD SVG 1.1//EN"
 "http://www.w3.org/Graphics/SVG/1.1/DTD/svg11.dtd">
<!-- Generated by graphviz version 2.40.1 (20161225.0304)
 -->
<!-- Title: dependencies Pages: 1 -->
<svg width="518pt" height="284pt"
 viewBox="0.00 0.00 518.00 284.00" xmlns="http://www.w3.org/2000/svg" xmlns:xlink="http://www.w3.org/1999/xlink">
<g id="graph0" class="graph" transform="scale(1 1) rotate(0) translate(4 280)">
<title>dependencies</title>
<polygon fill="#ffffff" stroke="transparent" points="-4,4 -4,-280 514,-280 514,4 -4,4"/>
<text text-anchor="start" x="234.0091" y="-42.4" font-family="sans-serif" font-weight="bold" font-size="14.00" fill="#000000">Legend</text>
<polygon fill="#ffffb3" stroke="transparent" points="21,-10 21,-30 41,-30 41,-10 21,-10"/>
<text text-anchor="start" x="44.629" y="-15.4" font-family="sans-serif" font-size="14.00" fill="#000000"> &#160;Declarations</text>
<polygon fill="#8dd3c7" stroke="transparent" points="134,-10 134,-30 154,-30 154,-10 134,-10"/>
<text text-anchor="start" x="157.7251" y="-15.4" font-family="sans-serif" font-size="14.00" fill="#000000"> &#160;Module</text>
<polygon fill="#80b1d3" stroke="transparent" points="220,-10 220,-30 240,-30 240,-10 220,-10"/>
<text text-anchor="start" x="243.7812" y="-15.4" font-family="sans-serif" font-size="14.00" fill="#000000"> &#160;Bootstrap</text>
<polygon fill="#fdb462" stroke="transparent" points="317,-10 317,-30 337,-30 337,-10 317,-10"/>
<text text-anchor="start" x="340.6732" y="-15.4" font-family="sans-serif" font-size="14.00" fill="#000000"> &#160;Providers</text>
<polygon fill="#fb8072" stroke="transparent" points="413,-10 413,-30 433,-30 433,-10 413,-10"/>
<text text-anchor="start" x="436.7258" y="-15.4" font-family="sans-serif" font-size="14.00" fill="#000000"> &#160;Exports</text>
<g id="clust1" class="cluster">
<title>cluster_GridLayoutModule</title>
<polygon fill="none" stroke="#000000" stroke-dasharray="1,5" points="8,-70 8,-268 502,-268 502,-70 8,-70"/>
</g>
<g id="clust2" class="cluster">
<title>cluster_GridLayoutModule_declarations</title>
<polygon fill="none" stroke="#000000" points="21,-78 21,-130 489,-130 489,-78 21,-78"/>
</g>
<g id="clust7" class="cluster">
<title>cluster_GridLayoutModule_exports</title>
<polygon fill="none" stroke="#000000" points="16,-208 16,-260 494,-260 494,-208 16,-208"/>
</g>
<!-- FreezeHeaderDirective -->
<g id="node1" class="node">
<title>FreezeHeaderDirective</title>
<polygon fill="#ffffb3" stroke="#000000" points="480.7955,-122 335.2045,-122 335.2045,-86 480.7955,-86 480.7955,-122"/>
<text text-anchor="middle" x="408" y="-99.8" font-family="Times,serif" font-size="14.00" fill="#000000">FreezeHeaderDirective</text>
</g>
<!-- GridLayoutModule -->
<g id="node4" class="node">
<title>GridLayoutModule</title>
<polygon fill="#8dd3c7" stroke="#000000" points="314.3655,-187 311.3655,-191 290.3655,-191 287.3655,-187 189.6345,-187 189.6345,-151 314.3655,-151 314.3655,-187"/>
<text text-anchor="middle" x="252" y="-164.8" font-family="Times,serif" font-size="14.00" fill="#000000">GridLayoutModule</text>
</g>
<!-- FreezeHeaderDirective&#45;&gt;GridLayoutModule -->
<g id="edge1" class="edge">
<title>FreezeHeaderDirective&#45;&gt;GridLayoutModule</title>
<path fill="none" stroke="#000000" d="M432.7159,-122.0225C432.7159,-139.3734 432.7159,-163 432.7159,-163 432.7159,-163 324.4452,-163 324.4452,-163"/>
<polygon fill="#000000" stroke="#000000" points="324.4452,-159.5001 314.4452,-163 324.4452,-166.5001 324.4452,-159.5001"/>
</g>
<!-- ListLayoutDirective -->
<g id="node2" class="node">
<title>ListLayoutDirective</title>
<polygon fill="#ffffb3" stroke="#000000" points="316.5199,-122 187.4801,-122 187.4801,-86 316.5199,-86 316.5199,-122"/>
<text text-anchor="middle" x="252" y="-99.8" font-family="Times,serif" font-size="14.00" fill="#000000">ListLayoutDirective</text>
</g>
<!-- ListLayoutDirective&#45;&gt;GridLayoutModule -->
<g id="edge2" class="edge">
<title>ListLayoutDirective&#45;&gt;GridLayoutModule</title>
<path fill="none" stroke="#000000" d="M252,-122.1061C252,-122.1061 252,-140.991 252,-140.991"/>
<polygon fill="#000000" stroke="#000000" points="248.5001,-140.9909 252,-150.991 255.5001,-140.991 248.5001,-140.9909"/>
</g>
<!-- TableLayoutDirective -->
<g id="node3" class="node">
<title>TableLayoutDirective</title>
<polygon fill="#ffffb3" stroke="#000000" points="168.6135,-122 29.3865,-122 29.3865,-86 168.6135,-86 168.6135,-122"/>
<text text-anchor="middle" x="99" y="-99.8" font-family="Times,serif" font-size="14.00" fill="#000000">TableLayoutDirective</text>
</g>
<!-- TableLayoutDirective&#45;&gt;GridLayoutModule -->
<g id="edge3" class="edge">
<title>TableLayoutDirective&#45;&gt;GridLayoutModule</title>
<path fill="none" stroke="#000000" d="M121.4355,-122.0225C121.4355,-139.3734 121.4355,-163 121.4355,-163 121.4355,-163 179.3947,-163 179.3947,-163"/>
<polygon fill="#000000" stroke="#000000" points="179.3947,-166.5001 189.3947,-163 179.3946,-159.5001 179.3947,-166.5001"/>
</g>
<!-- FreezeHeaderDirective  -->
<g id="node5" class="node">
<title>FreezeHeaderDirective </title>
<polygon fill="#fb8072" stroke="#000000" points="485.7957,-252 336.2043,-252 336.2043,-216 485.7957,-216 485.7957,-252"/>
<text text-anchor="middle" x="411" y="-229.8" font-family="Times,serif" font-size="14.00" fill="#000000">FreezeHeaderDirective </text>
</g>
<!-- GridLayoutModule&#45;&gt;FreezeHeaderDirective  -->
<g id="edge4" class="edge">
<title>GridLayoutModule&#45;&gt;FreezeHeaderDirective </title>
<path fill="none" stroke="#000000" stroke-dasharray="5,2" d="M314.3862,-175C348.7615,-175 384.5341,-175 384.5341,-175 384.5341,-175 384.5341,-205.9775 384.5341,-205.9775"/>
<polygon fill="#000000" stroke="#000000" points="381.0342,-205.9774 384.5341,-215.9775 388.0342,-205.9775 381.0342,-205.9774"/>
</g>
<!-- ListLayoutDirective  -->
<g id="node6" class="node">
<title>ListLayoutDirective </title>
<polygon fill="#fb8072" stroke="#000000" points="318.519,-252 185.481,-252 185.481,-216 318.519,-216 318.519,-252"/>
<text text-anchor="middle" x="252" y="-229.8" font-family="Times,serif" font-size="14.00" fill="#000000">ListLayoutDirective </text>
</g>
<!-- GridLayoutModule&#45;&gt;ListLayoutDirective  -->
<g id="edge5" class="edge">
<title>GridLayoutModule&#45;&gt;ListLayoutDirective </title>
<path fill="none" stroke="#000000" stroke-dasharray="5,2" d="M252,-187.1061C252,-187.1061 252,-205.991 252,-205.991"/>
<polygon fill="#000000" stroke="#000000" points="248.5001,-205.9909 252,-215.991 255.5001,-205.991 248.5001,-205.9909"/>
</g>
<!-- TableLayoutDirective  -->
<g id="node7" class="node">
<title>TableLayoutDirective </title>
<polygon fill="#fb8072" stroke="#000000" points="167.613,-252 24.387,-252 24.387,-216 167.613,-216 167.613,-252"/>
<text text-anchor="middle" x="96" y="-229.8" font-family="Times,serif" font-size="14.00" fill="#000000">TableLayoutDirective </text>
</g>
<!-- GridLayoutModule&#45;&gt;TableLayoutDirective  -->
<g id="edge6" class="edge">
<title>GridLayoutModule&#45;&gt;TableLayoutDirective </title>
<path fill="none" stroke="#000000" stroke-dasharray="5,2" d="M189.2098,-175C138.4253,-175 75.3145,-175 75.3145,-175 75.3145,-175 75.3145,-205.9775 75.3145,-205.9775"/>
<polygon fill="#000000" stroke="#000000" points="71.8146,-205.9774 75.3145,-215.9775 78.8146,-205.9775 71.8146,-205.9774"/>
</g>
</g>
</svg>
