<?xml version="1.0" encoding="UTF-8" standalone="no"?>
<!DOCTYPE svg PUBLIC "-//W3C//DTD SVG 1.1//EN"
 "http://www.w3.org/Graphics/SVG/1.1/DTD/svg11.dtd">
<!-- Generated by graphviz version 2.40.1 (20161225.0304)
 -->
<!-- Title: dependencies Pages: 1 -->
<svg width="1637pt" height="211pt"
 viewBox="0.00 0.00 1637.00 211.00" xmlns="http://www.w3.org/2000/svg" xmlns:xlink="http://www.w3.org/1999/xlink">
<g id="graph0" class="graph" transform="scale(1 1) rotate(0) translate(4 207)">
<title>dependencies</title>
<polygon fill="#ffffff" stroke="transparent" points="-4,4 -4,-207 1633,-207 1633,4 -4,4"/>
<text text-anchor="start" x="793.5091" y="-42.4" font-family="sans-serif" font-weight="bold" font-size="14.00" fill="#000000">Legend</text>
<polygon fill="#ffffb3" stroke="transparent" points="580.5,-10 580.5,-30 600.5,-30 600.5,-10 580.5,-10"/>
<text text-anchor="start" x="604.129" y="-15.4" font-family="sans-serif" font-size="14.00" fill="#000000"> &#160;Declarations</text>
<polygon fill="#8dd3c7" stroke="transparent" points="693.5,-10 693.5,-30 713.5,-30 713.5,-10 693.5,-10"/>
<text text-anchor="start" x="717.2251" y="-15.4" font-family="sans-serif" font-size="14.00" fill="#000000"> &#160;Module</text>
<polygon fill="#80b1d3" stroke="transparent" points="779.5,-10 779.5,-30 799.5,-30 799.5,-10 779.5,-10"/>
<text text-anchor="start" x="803.2812" y="-15.4" font-family="sans-serif" font-size="14.00" fill="#000000"> &#160;Bootstrap</text>
<polygon fill="#fdb462" stroke="transparent" points="876.5,-10 876.5,-30 896.5,-30 896.5,-10 876.5,-10"/>
<text text-anchor="start" x="900.1732" y="-15.4" font-family="sans-serif" font-size="14.00" fill="#000000"> &#160;Providers</text>
<polygon fill="#fb8072" stroke="transparent" points="972.5,-10 972.5,-30 992.5,-30 992.5,-10 972.5,-10"/>
<text text-anchor="start" x="996.2258" y="-15.4" font-family="sans-serif" font-size="14.00" fill="#000000"> &#160;Exports</text>
<g id="clust1" class="cluster">
<title>cluster_MyCalendarWidgetModule</title>
<polygon fill="none" stroke="#000000" stroke-dasharray="1,5" points="8,-70 8,-195 1621,-195 1621,-70 8,-70"/>
</g>
<g id="clust2" class="cluster">
<title>cluster_MyCalendarWidgetModule_declarations</title>
<polygon fill="none" stroke="#000000" points="1108,-78 1108,-130 1613,-130 1613,-78 1108,-78"/>
</g>
<g id="clust5" class="cluster">
<title>cluster_MyCalendarWidgetModule_imports</title>
<polygon fill="none" stroke="#000000" points="924,-78 924,-130 1100,-130 1100,-78 924,-78"/>
</g>
<g id="clust8" class="cluster">
<title>cluster_MyCalendarWidgetModule_providers</title>
<polygon fill="none" stroke="#000000" points="16,-78 16,-130 916,-130 916,-78 16,-78"/>
</g>
<!-- MyCalendarWidgetComponent -->
<g id="node1" class="node">
<title>MyCalendarWidgetComponent</title>
<polygon fill="#ffffb3" stroke="#000000" points="1605.0196,-122 1412.9804,-122 1412.9804,-86 1605.0196,-86 1605.0196,-122"/>
<text text-anchor="middle" x="1509" y="-99.8" font-family="Times,serif" font-size="14.00" fill="#000000">MyCalendarWidgetComponent</text>
</g>
<!-- MyCalendarWidgetModule -->
<g id="node3" class="node">
<title>MyCalendarWidgetModule</title>
<polygon fill="#8dd3c7" stroke="#000000" points="1097.2366,-187 1094.2366,-191 1073.2366,-191 1070.2366,-187 926.7634,-187 926.7634,-151 1097.2366,-151 1097.2366,-187"/>
<text text-anchor="middle" x="1012" y="-164.8" font-family="Times,serif" font-size="14.00" fill="#000000">MyCalendarWidgetModule</text>
</g>
<!-- MyCalendarWidgetComponent&#45;&gt;MyCalendarWidgetModule -->
<g id="edge1" class="edge">
<title>MyCalendarWidgetComponent&#45;&gt;MyCalendarWidgetModule</title>
<path fill="none" stroke="#000000" d="M1509,-122.2843C1509,-143.3211 1509,-175 1509,-175 1509,-175 1107.4373,-175 1107.4373,-175"/>
<polygon fill="#000000" stroke="#000000" points="1107.4374,-171.5001 1097.4373,-175 1107.4373,-178.5001 1107.4374,-171.5001"/>
</g>
<!-- MyCalenderWidgetPersonalizationComponent -->
<g id="node2" class="node">
<title>MyCalenderWidgetPersonalizationComponent</title>
<polygon fill="#ffffb3" stroke="#000000" points="1394.3277,-122 1115.6723,-122 1115.6723,-86 1394.3277,-86 1394.3277,-122"/>
<text text-anchor="middle" x="1255" y="-99.8" font-family="Times,serif" font-size="14.00" fill="#000000">MyCalenderWidgetPersonalizationComponent</text>
</g>
<!-- MyCalenderWidgetPersonalizationComponent&#45;&gt;MyCalendarWidgetModule -->
<g id="edge2" class="edge">
<title>MyCalenderWidgetPersonalizationComponent&#45;&gt;MyCalendarWidgetModule</title>
<path fill="none" stroke="#000000" d="M1255,-122.0225C1255,-139.3734 1255,-163 1255,-163 1255,-163 1107.331,-163 1107.331,-163"/>
<polygon fill="#000000" stroke="#000000" points="1107.3311,-159.5001 1097.331,-163 1107.331,-166.5001 1107.3311,-159.5001"/>
</g>
<!-- WidgetTemplatesModule -->
<g id="node4" class="node">
<title>WidgetTemplatesModule</title>
<polygon fill="#8dd3c7" stroke="#000000" points="1091.573,-122 1088.573,-126 1067.573,-126 1064.573,-122 932.427,-122 932.427,-86 1091.573,-86 1091.573,-122"/>
<text text-anchor="middle" x="1012" y="-99.8" font-family="Times,serif" font-size="14.00" fill="#000000">WidgetTemplatesModule</text>
</g>
<!-- WidgetTemplatesModule&#45;&gt;MyCalendarWidgetModule -->
<g id="edge3" class="edge">
<title>WidgetTemplatesModule&#45;&gt;MyCalendarWidgetModule</title>
<path fill="none" stroke="#000000" d="M985.4878,-122.1061C985.4878,-122.1061 985.4878,-140.991 985.4878,-140.991"/>
<polygon fill="#000000" stroke="#000000" points="981.9879,-140.9909 985.4878,-150.991 988.9879,-140.991 981.9879,-140.9909"/>
</g>
<!-- WidgetTemplatesModule&#45;&gt;MyCalendarWidgetModule -->
<g id="edge4" class="edge">
<title>WidgetTemplatesModule&#45;&gt;MyCalendarWidgetModule</title>
<path fill="none" stroke="#000000" d="M1038.5122,-122.1061C1038.5122,-122.1061 1038.5122,-140.991 1038.5122,-140.991"/>
<polygon fill="#000000" stroke="#000000" points="1035.0123,-140.9909 1038.5122,-150.991 1042.0123,-140.991 1035.0123,-140.9909"/>
</g>
<!-- MyCalendarPersonalizationOptions -->
<g id="node5" class="node">
<title>MyCalendarPersonalizationOptions</title>
<ellipse fill="#fdb462" stroke="#000000" cx="759" cy="-104" rx="149.3372" ry="18"/>
<text text-anchor="middle" x="759" y="-99.8" font-family="Times,serif" font-size="14.00" fill="#000000">MyCalendarPersonalizationOptions</text>
</g>
<!-- MyCalendarPersonalizationOptions&#45;&gt;MyCalendarWidgetModule -->
<g id="edge5" class="edge">
<title>MyCalendarPersonalizationOptions&#45;&gt;MyCalendarWidgetModule</title>
<path fill="none" stroke="#000000" d="M759,-122.027C759,-138.3976 759,-160 759,-160 759,-160 916.6985,-160 916.6985,-160"/>
<polygon fill="#000000" stroke="#000000" points="916.6985,-163.5001 926.6985,-160 916.6984,-156.5001 916.6985,-163.5001"/>
</g>
<!-- MyCalendarWidgetDataService -->
<g id="node6" class="node">
<title>MyCalendarWidgetDataService</title>
<ellipse fill="#fdb462" stroke="#000000" cx="457" cy="-104" rx="134.8297" ry="18"/>
<text text-anchor="middle" x="457" y="-99.8" font-family="Times,serif" font-size="14.00" fill="#000000">MyCalendarWidgetDataService</text>
</g>
<!-- MyCalendarWidgetDataService&#45;&gt;MyCalendarWidgetModule -->
<g id="edge6" class="edge">
<title>MyCalendarWidgetDataService&#45;&gt;MyCalendarWidgetModule</title>
<path fill="none" stroke="#000000" d="M457,-122.1061C457,-141.3391 457,-169 457,-169 457,-169 916.4975,-169 916.4975,-169"/>
<polygon fill="#000000" stroke="#000000" points="916.4976,-172.5001 926.4975,-169 916.4975,-165.5001 916.4976,-172.5001"/>
</g>
<!-- MyCalendarWidgetGlobalization -->
<g id="node7" class="node">
<title>MyCalendarWidgetGlobalization</title>
<ellipse fill="#fdb462" stroke="#000000" cx="164" cy="-104" rx="140.0897" ry="18"/>
<text text-anchor="middle" x="164" y="-99.8" font-family="Times,serif" font-size="14.00" fill="#000000">MyCalendarWidgetGlobalization</text>
</g>
<!-- MyCalendarWidgetGlobalization&#45;&gt;MyCalendarWidgetModule -->
<g id="edge7" class="edge">
<title>MyCalendarWidgetGlobalization&#45;&gt;MyCalendarWidgetModule</title>
<path fill="none" stroke="#000000" d="M164,-122.2921C164,-144.2057 164,-178 164,-178 164,-178 916.4156,-178 916.4156,-178"/>
<polygon fill="#000000" stroke="#000000" points="916.4156,-181.5001 926.4156,-178 916.4156,-174.5001 916.4156,-181.5001"/>
</g>
</g>
</svg>
