<?xml version="1.0" encoding="UTF-8" standalone="no"?>
<!DOCTYPE svg PUBLIC "-//W3C//DTD SVG 1.1//EN"
 "http://www.w3.org/Graphics/SVG/1.1/DTD/svg11.dtd">
<!-- Generated by graphviz version 2.40.1 (20161225.0304)
 -->
<!-- Title: dependencies Pages: 1 -->
<svg width="504pt" height="284pt"
 viewBox="0.00 0.00 504.00 284.00" xmlns="http://www.w3.org/2000/svg" xmlns:xlink="http://www.w3.org/1999/xlink">
<g id="graph0" class="graph" transform="scale(1 1) rotate(0) translate(4 280)">
<title>dependencies</title>
<polygon fill="#ffffff" stroke="transparent" points="-4,4 -4,-280 500,-280 500,4 -4,4"/>
<text text-anchor="start" x="227.0091" y="-42.4" font-family="sans-serif" font-weight="bold" font-size="14.00" fill="#000000">Legend</text>
<polygon fill="#ffffb3" stroke="transparent" points="14,-10 14,-30 34,-30 34,-10 14,-10"/>
<text text-anchor="start" x="37.629" y="-15.4" font-family="sans-serif" font-size="14.00" fill="#000000"> &#160;Declarations</text>
<polygon fill="#8dd3c7" stroke="transparent" points="127,-10 127,-30 147,-30 147,-10 127,-10"/>
<text text-anchor="start" x="150.7251" y="-15.4" font-family="sans-serif" font-size="14.00" fill="#000000"> &#160;Module</text>
<polygon fill="#80b1d3" stroke="transparent" points="213,-10 213,-30 233,-30 233,-10 213,-10"/>
<text text-anchor="start" x="236.7812" y="-15.4" font-family="sans-serif" font-size="14.00" fill="#000000"> &#160;Bootstrap</text>
<polygon fill="#fdb462" stroke="transparent" points="310,-10 310,-30 330,-30 330,-10 310,-10"/>
<text text-anchor="start" x="333.6732" y="-15.4" font-family="sans-serif" font-size="14.00" fill="#000000"> &#160;Providers</text>
<polygon fill="#fb8072" stroke="transparent" points="406,-10 406,-30 426,-30 426,-10 406,-10"/>
<text text-anchor="start" x="429.7258" y="-15.4" font-family="sans-serif" font-size="14.00" fill="#000000"> &#160;Exports</text>
<g id="clust1" class="cluster">
<title>cluster_ListNavigatorModule</title>
<polygon fill="none" stroke="#000000" stroke-dasharray="1,5" points="61,-70 61,-268 435,-268 435,-70 61,-70"/>
</g>
<g id="clust2" class="cluster">
<title>cluster_ListNavigatorModule_declarations</title>
<polygon fill="none" stroke="#000000" points="72,-78 72,-130 424,-130 424,-78 72,-78"/>
</g>
<g id="clust6" class="cluster">
<title>cluster_ListNavigatorModule_exports</title>
<polygon fill="none" stroke="#000000" points="69,-208 69,-260 427,-260 427,-208 69,-208"/>
</g>
<!-- ListNavigatorDirective -->
<g id="node1" class="node">
<title>ListNavigatorDirective</title>
<polygon fill="#ffffb3" stroke="#000000" points="415.8389,-122 270.1611,-122 270.1611,-86 415.8389,-86 415.8389,-122"/>
<text text-anchor="middle" x="343" y="-99.8" font-family="Times,serif" font-size="14.00" fill="#000000">ListNavigatorDirective</text>
</g>
<!-- ListNavigatorModule -->
<g id="node3" class="node">
<title>ListNavigatorModule</title>
<polygon fill="#8dd3c7" stroke="#000000" points="234.8061,-187 231.8061,-191 210.8061,-191 207.8061,-187 97.1939,-187 97.1939,-151 234.8061,-151 234.8061,-187"/>
<text text-anchor="middle" x="166" y="-164.8" font-family="Times,serif" font-size="14.00" fill="#000000">ListNavigatorModule</text>
</g>
<!-- ListNavigatorDirective&#45;&gt;ListNavigatorModule -->
<g id="edge1" class="edge">
<title>ListNavigatorDirective&#45;&gt;ListNavigatorModule</title>
<path fill="none" stroke="#000000" d="M367.3065,-122.0225C367.3065,-139.3734 367.3065,-163 367.3065,-163 367.3065,-163 244.7152,-163 244.7152,-163"/>
<polygon fill="#000000" stroke="#000000" points="244.7153,-159.5001 234.7152,-163 244.7152,-166.5001 244.7153,-159.5001"/>
</g>
<!-- ListNavigatorItemDirective -->
<g id="node2" class="node">
<title>ListNavigatorItemDirective</title>
<polygon fill="#ffffb3" stroke="#000000" points="251.9959,-122 80.0041,-122 80.0041,-86 251.9959,-86 251.9959,-122"/>
<text text-anchor="middle" x="166" y="-99.8" font-family="Times,serif" font-size="14.00" fill="#000000">ListNavigatorItemDirective</text>
</g>
<!-- ListNavigatorItemDirective&#45;&gt;ListNavigatorModule -->
<g id="edge2" class="edge">
<title>ListNavigatorItemDirective&#45;&gt;ListNavigatorModule</title>
<path fill="none" stroke="#000000" d="M166,-122.1061C166,-122.1061 166,-140.991 166,-140.991"/>
<polygon fill="#000000" stroke="#000000" points="162.5001,-140.9909 166,-150.991 169.5001,-140.991 162.5001,-140.9909"/>
</g>
<!-- ListNavigatorDirective  -->
<g id="node4" class="node">
<title>ListNavigatorDirective </title>
<polygon fill="#fb8072" stroke="#000000" points="418.8392,-252 269.1608,-252 269.1608,-216 418.8392,-216 418.8392,-252"/>
<text text-anchor="middle" x="344" y="-229.8" font-family="Times,serif" font-size="14.00" fill="#000000">ListNavigatorDirective </text>
</g>
<!-- ListNavigatorModule&#45;&gt;ListNavigatorDirective  -->
<g id="edge3" class="edge">
<title>ListNavigatorModule&#45;&gt;ListNavigatorDirective </title>
<path fill="none" stroke="#000000" stroke-dasharray="5,2" d="M234.7531,-175C275.2819,-175 318.6935,-175 318.6935,-175 318.6935,-175 318.6935,-205.9775 318.6935,-205.9775"/>
<polygon fill="#000000" stroke="#000000" points="315.1936,-205.9774 318.6935,-215.9775 322.1936,-205.9775 315.1936,-205.9774"/>
</g>
<!-- ListNavigatorItemDirective  -->
<g id="node5" class="node">
<title>ListNavigatorItemDirective </title>
<polygon fill="#fb8072" stroke="#000000" points="251.4952,-252 76.5048,-252 76.5048,-216 251.4952,-216 251.4952,-252"/>
<text text-anchor="middle" x="164" y="-229.8" font-family="Times,serif" font-size="14.00" fill="#000000">ListNavigatorItemDirective </text>
</g>
<!-- ListNavigatorModule&#45;&gt;ListNavigatorItemDirective  -->
<g id="edge4" class="edge">
<title>ListNavigatorModule&#45;&gt;ListNavigatorItemDirective </title>
<path fill="none" stroke="#000000" stroke-dasharray="5,2" d="M166,-187.1061C166,-187.1061 166,-205.991 166,-205.991"/>
<polygon fill="#000000" stroke="#000000" points="162.5001,-205.9909 166,-215.991 169.5001,-205.991 162.5001,-205.9909"/>
</g>
</g>
</svg>
