<?xml version="1.0" encoding="UTF-8" standalone="no"?>
<!DOCTYPE svg PUBLIC "-//W3C//DTD SVG 1.1//EN"
 "http://www.w3.org/Graphics/SVG/1.1/DTD/svg11.dtd">
<!-- Generated by graphviz version 2.40.1 (20161225.0304)
 -->
<!-- Title: dependencies Pages: 1 -->
<svg width="1670pt" height="211pt"
 viewBox="0.00 0.00 1670.00 211.00" xmlns="http://www.w3.org/2000/svg" xmlns:xlink="http://www.w3.org/1999/xlink">
<g id="graph0" class="graph" transform="scale(1 1) rotate(0) translate(4 207)">
<title>dependencies</title>
<polygon fill="#ffffff" stroke="transparent" points="-4,4 -4,-207 1666,-207 1666,4 -4,4"/>
<text text-anchor="start" x="810.0091" y="-42.4" font-family="sans-serif" font-weight="bold" font-size="14.00" fill="#000000">Legend</text>
<polygon fill="#ffffb3" stroke="transparent" points="597,-10 597,-30 617,-30 617,-10 597,-10"/>
<text text-anchor="start" x="620.629" y="-15.4" font-family="sans-serif" font-size="14.00" fill="#000000"> &#160;Declarations</text>
<polygon fill="#8dd3c7" stroke="transparent" points="710,-10 710,-30 730,-30 730,-10 710,-10"/>
<text text-anchor="start" x="733.7251" y="-15.4" font-family="sans-serif" font-size="14.00" fill="#000000"> &#160;Module</text>
<polygon fill="#80b1d3" stroke="transparent" points="796,-10 796,-30 816,-30 816,-10 796,-10"/>
<text text-anchor="start" x="819.7812" y="-15.4" font-family="sans-serif" font-size="14.00" fill="#000000"> &#160;Bootstrap</text>
<polygon fill="#fdb462" stroke="transparent" points="893,-10 893,-30 913,-30 913,-10 893,-10"/>
<text text-anchor="start" x="916.6732" y="-15.4" font-family="sans-serif" font-size="14.00" fill="#000000"> &#160;Providers</text>
<polygon fill="#fb8072" stroke="transparent" points="989,-10 989,-30 1009,-30 1009,-10 989,-10"/>
<text text-anchor="start" x="1012.7258" y="-15.4" font-family="sans-serif" font-size="14.00" fill="#000000"> &#160;Exports</text>
<g id="clust1" class="cluster">
<title>cluster_DynamicAnalysisWidgetModule</title>
<polygon fill="none" stroke="#000000" stroke-dasharray="1,5" points="8,-70 8,-195 1654,-195 1654,-70 8,-70"/>
</g>
<g id="clust2" class="cluster">
<title>cluster_DynamicAnalysisWidgetModule_declarations</title>
<polygon fill="none" stroke="#000000" points="536,-78 536,-130 1646,-130 1646,-78 536,-78"/>
</g>
<g id="clust7" class="cluster">
<title>cluster_DynamicAnalysisWidgetModule_imports</title>
<polygon fill="none" stroke="#000000" points="352,-78 352,-130 528,-130 528,-78 352,-78"/>
</g>
<g id="clust10" class="cluster">
<title>cluster_DynamicAnalysisWidgetModule_providers</title>
<polygon fill="none" stroke="#000000" points="16,-78 16,-130 344,-130 344,-78 16,-78"/>
</g>
<!-- DynamicAnalysisWidgetChartComponent -->
<g id="node1" class="node">
<title>DynamicAnalysisWidgetChartComponent</title>
<polygon fill="#ffffb3" stroke="#000000" points="1637.9538,-122 1384.0462,-122 1384.0462,-86 1637.9538,-86 1637.9538,-122"/>
<text text-anchor="middle" x="1511" y="-99.8" font-family="Times,serif" font-size="14.00" fill="#000000">DynamicAnalysisWidgetChartComponent</text>
</g>
<!-- DynamicAnalysisWidgetModule -->
<g id="node5" class="node">
<title>DynamicAnalysisWidgetModule</title>
<polygon fill="#8dd3c7" stroke="#000000" points="921.5688,-187 918.5688,-191 897.5688,-191 894.5688,-187 720.4312,-187 720.4312,-151 921.5688,-151 921.5688,-187"/>
<text text-anchor="middle" x="821" y="-164.8" font-family="Times,serif" font-size="14.00" fill="#000000">DynamicAnalysisWidgetModule</text>
</g>
<!-- DynamicAnalysisWidgetChartComponent&#45;&gt;DynamicAnalysisWidgetModule -->
<g id="edge1" class="edge">
<title>DynamicAnalysisWidgetChartComponent&#45;&gt;DynamicAnalysisWidgetModule</title>
<path fill="none" stroke="#000000" d="M1511,-122.2843C1511,-143.3211 1511,-175 1511,-175 1511,-175 931.7011,-175 931.7011,-175"/>
<polygon fill="#000000" stroke="#000000" points="931.7012,-171.5001 921.7011,-175 931.7011,-178.5001 931.7012,-171.5001"/>
</g>
<!-- DynamicAnalysisWidgetComponent -->
<g id="node2" class="node">
<title>DynamicAnalysisWidgetComponent</title>
<polygon fill="#ffffb3" stroke="#000000" points="1366.3514,-122 1143.6486,-122 1143.6486,-86 1366.3514,-86 1366.3514,-122"/>
<text text-anchor="middle" x="1255" y="-99.8" font-family="Times,serif" font-size="14.00" fill="#000000">DynamicAnalysisWidgetComponent</text>
</g>
<!-- DynamicAnalysisWidgetComponent&#45;&gt;DynamicAnalysisWidgetModule -->
<g id="edge2" class="edge">
<title>DynamicAnalysisWidgetComponent&#45;&gt;DynamicAnalysisWidgetModule</title>
<path fill="none" stroke="#000000" d="M1255,-122.0225C1255,-139.3734 1255,-163 1255,-163 1255,-163 931.6592,-163 931.6592,-163"/>
<polygon fill="#000000" stroke="#000000" points="931.6592,-159.5001 921.6592,-163 931.6591,-166.5001 931.6592,-159.5001"/>
</g>
<!-- DynamicAnalysisWidgetPersonalizationComponent -->
<g id="node3" class="node">
<title>DynamicAnalysisWidgetPersonalizationComponent</title>
<polygon fill="#ffffb3" stroke="#000000" points="1125.66,-122 816.34,-122 816.34,-86 1125.66,-86 1125.66,-122"/>
<text text-anchor="middle" x="971" y="-99.8" font-family="Times,serif" font-size="14.00" fill="#000000">DynamicAnalysisWidgetPersonalizationComponent</text>
</g>
<!-- DynamicAnalysisWidgetPersonalizationComponent&#45;&gt;DynamicAnalysisWidgetModule -->
<g id="edge3" class="edge">
<title>DynamicAnalysisWidgetPersonalizationComponent&#45;&gt;DynamicAnalysisWidgetModule</title>
<path fill="none" stroke="#000000" d="M868.9772,-122.1061C868.9772,-122.1061 868.9772,-140.991 868.9772,-140.991"/>
<polygon fill="#000000" stroke="#000000" points="865.4773,-140.9909 868.9772,-150.991 872.4773,-140.991 865.4773,-140.9909"/>
</g>
<!-- DynamicAnalysisWidgetTableComponent -->
<g id="node4" class="node">
<title>DynamicAnalysisWidgetTableComponent</title>
<polygon fill="#ffffb3" stroke="#000000" points="798.2239,-122 543.7761,-122 543.7761,-86 798.2239,-86 798.2239,-122"/>
<text text-anchor="middle" x="671" y="-99.8" font-family="Times,serif" font-size="14.00" fill="#000000">DynamicAnalysisWidgetTableComponent</text>
</g>
<!-- DynamicAnalysisWidgetTableComponent&#45;&gt;DynamicAnalysisWidgetModule -->
<g id="edge4" class="edge">
<title>DynamicAnalysisWidgetTableComponent&#45;&gt;DynamicAnalysisWidgetModule</title>
<path fill="none" stroke="#000000" d="M759.4137,-122.1061C759.4137,-122.1061 759.4137,-140.991 759.4137,-140.991"/>
<polygon fill="#000000" stroke="#000000" points="755.9138,-140.9909 759.4137,-150.991 762.9138,-140.991 755.9138,-140.9909"/>
</g>
<!-- WidgetTemplatesModule -->
<g id="node6" class="node">
<title>WidgetTemplatesModule</title>
<polygon fill="#8dd3c7" stroke="#000000" points="519.573,-122 516.573,-126 495.573,-126 492.573,-122 360.427,-122 360.427,-86 519.573,-86 519.573,-122"/>
<text text-anchor="middle" x="440" y="-99.8" font-family="Times,serif" font-size="14.00" fill="#000000">WidgetTemplatesModule</text>
</g>
<!-- WidgetTemplatesModule&#45;&gt;DynamicAnalysisWidgetModule -->
<g id="edge5" class="edge">
<title>WidgetTemplatesModule&#45;&gt;DynamicAnalysisWidgetModule</title>
<path fill="none" stroke="#000000" d="M440,-122.0225C440,-139.3734 440,-163 440,-163 440,-163 710.3984,-163 710.3984,-163"/>
<polygon fill="#000000" stroke="#000000" points="710.3984,-166.5001 720.3984,-163 710.3983,-159.5001 710.3984,-166.5001"/>
</g>
<!-- DynamicAnalysisWidgetDataService -->
<g id="node7" class="node">
<title>DynamicAnalysisWidgetDataService</title>
<ellipse fill="#fdb462" stroke="#000000" cx="180" cy="-104" rx="155.6753" ry="18"/>
<text text-anchor="middle" x="180" y="-99.8" font-family="Times,serif" font-size="14.00" fill="#000000">DynamicAnalysisWidgetDataService</text>
</g>
<!-- DynamicAnalysisWidgetDataService&#45;&gt;DynamicAnalysisWidgetModule -->
<g id="edge6" class="edge">
<title>DynamicAnalysisWidgetDataService&#45;&gt;DynamicAnalysisWidgetModule</title>
<path fill="none" stroke="#000000" d="M180,-122.2843C180,-143.3211 180,-175 180,-175 180,-175 710.1386,-175 710.1386,-175"/>
<polygon fill="#000000" stroke="#000000" points="710.1386,-178.5001 720.1386,-175 710.1386,-171.5001 710.1386,-178.5001"/>
</g>
</g>
</svg>
