<?xml version="1.0" encoding="UTF-8" standalone="no"?>
<!DOCTYPE svg PUBLIC "-//W3C//DTD SVG 1.1//EN"
 "http://www.w3.org/Graphics/SVG/1.1/DTD/svg11.dtd">
<!-- Generated by graphviz version 2.40.1 (20161225.0304)
 -->
<!-- Title: dependencies Pages: 1 -->
<svg width="811pt" height="284pt"
 viewBox="0.00 0.00 811.00 284.00" xmlns="http://www.w3.org/2000/svg" xmlns:xlink="http://www.w3.org/1999/xlink">
<g id="graph0" class="graph" transform="scale(1 1) rotate(0) translate(4 280)">
<title>dependencies</title>
<polygon fill="#ffffff" stroke="transparent" points="-4,4 -4,-280 807,-280 807,4 -4,4"/>
<text text-anchor="start" x="380.5091" y="-42.4" font-family="sans-serif" font-weight="bold" font-size="14.00" fill="#000000">Legend</text>
<polygon fill="#ffffb3" stroke="transparent" points="167.5,-10 167.5,-30 187.5,-30 187.5,-10 167.5,-10"/>
<text text-anchor="start" x="191.129" y="-15.4" font-family="sans-serif" font-size="14.00" fill="#000000"> &#160;Declarations</text>
<polygon fill="#8dd3c7" stroke="transparent" points="280.5,-10 280.5,-30 300.5,-30 300.5,-10 280.5,-10"/>
<text text-anchor="start" x="304.2251" y="-15.4" font-family="sans-serif" font-size="14.00" fill="#000000"> &#160;Module</text>
<polygon fill="#80b1d3" stroke="transparent" points="366.5,-10 366.5,-30 386.5,-30 386.5,-10 366.5,-10"/>
<text text-anchor="start" x="390.2812" y="-15.4" font-family="sans-serif" font-size="14.00" fill="#000000"> &#160;Bootstrap</text>
<polygon fill="#fdb462" stroke="transparent" points="463.5,-10 463.5,-30 483.5,-30 483.5,-10 463.5,-10"/>
<text text-anchor="start" x="487.1732" y="-15.4" font-family="sans-serif" font-size="14.00" fill="#000000"> &#160;Providers</text>
<polygon fill="#fb8072" stroke="transparent" points="559.5,-10 559.5,-30 579.5,-30 579.5,-10 559.5,-10"/>
<text text-anchor="start" x="583.2258" y="-15.4" font-family="sans-serif" font-size="14.00" fill="#000000"> &#160;Exports</text>
<g id="clust1" class="cluster">
<title>cluster_EntitySearchModule</title>
<polygon fill="none" stroke="#000000" stroke-dasharray="1,5" points="8,-70 8,-268 795,-268 795,-70 8,-70"/>
</g>
<g id="clust2" class="cluster">
<title>cluster_EntitySearchModule_declarations</title>
<polygon fill="none" stroke="#000000" points="276,-78 276,-130 787,-130 787,-78 276,-78"/>
</g>
<g id="clust6" class="cluster">
<title>cluster_EntitySearchModule_imports</title>
<polygon fill="none" stroke="#000000" points="16,-78 16,-130 268,-130 268,-78 16,-78"/>
</g>
<g id="clust7" class="cluster">
<title>cluster_EntitySearchModule_exports</title>
<polygon fill="none" stroke="#000000" points="105,-208 105,-260 627,-260 627,-208 105,-208"/>
</g>
<!-- EntityManagerComponent -->
<g id="node1" class="node">
<title>EntityManagerComponent</title>
<polygon fill="#ffffb3" stroke="#000000" points="778.8061,-122 613.1939,-122 613.1939,-86 778.8061,-86 778.8061,-122"/>
<text text-anchor="middle" x="696" y="-99.8" font-family="Times,serif" font-size="14.00" fill="#000000">EntityManagerComponent</text>
</g>
<!-- EntitySearchModule -->
<g id="node4" class="node">
<title>EntitySearchModule</title>
<polygon fill="#8dd3c7" stroke="#000000" points="419.8613,-187 416.8613,-191 395.8613,-191 392.8613,-187 288.1387,-187 288.1387,-151 419.8613,-151 419.8613,-187"/>
<text text-anchor="middle" x="354" y="-164.8" font-family="Times,serif" font-size="14.00" fill="#000000">EntitySearchModule</text>
</g>
<!-- EntityManagerComponent&#45;&gt;EntitySearchModule -->
<g id="edge1" class="edge">
<title>EntityManagerComponent&#45;&gt;EntitySearchModule</title>
<path fill="none" stroke="#000000" d="M699.0279,-122.1061C699.0279,-141.3391 699.0279,-169 699.0279,-169 699.0279,-169 430.1166,-169 430.1166,-169"/>
<polygon fill="#000000" stroke="#000000" points="430.1166,-165.5001 420.1166,-169 430.1166,-172.5001 430.1166,-165.5001"/>
</g>
<!-- EntitySearchComponent -->
<g id="node2" class="node">
<title>EntitySearchComponent</title>
<polygon fill="#ffffb3" stroke="#000000" points="595.6442,-122 442.3558,-122 442.3558,-86 595.6442,-86 595.6442,-122"/>
<text text-anchor="middle" x="519" y="-99.8" font-family="Times,serif" font-size="14.00" fill="#000000">EntitySearchComponent</text>
</g>
<!-- EntitySearchComponent&#45;&gt;EntitySearchModule -->
<g id="edge2" class="edge">
<title>EntitySearchComponent&#45;&gt;EntitySearchModule</title>
<path fill="none" stroke="#000000" d="M446.3876,-122.027C446.3876,-138.3976 446.3876,-160 446.3876,-160 446.3876,-160 430.1601,-160 430.1601,-160"/>
<polygon fill="#000000" stroke="#000000" points="430.1602,-156.5001 420.1601,-160 430.1601,-163.5001 430.1602,-156.5001"/>
</g>
<!-- EntitySearchDirective -->
<g id="node3" class="node">
<title>EntitySearchDirective</title>
<polygon fill="#ffffb3" stroke="#000000" points="424.3948,-122 283.6052,-122 283.6052,-86 424.3948,-86 424.3948,-122"/>
<text text-anchor="middle" x="354" y="-99.8" font-family="Times,serif" font-size="14.00" fill="#000000">EntitySearchDirective</text>
</g>
<!-- EntitySearchDirective&#45;&gt;EntitySearchModule -->
<g id="edge3" class="edge">
<title>EntitySearchDirective&#45;&gt;EntitySearchModule</title>
<path fill="none" stroke="#000000" d="M354,-122.1061C354,-122.1061 354,-140.991 354,-140.991"/>
<polygon fill="#000000" stroke="#000000" points="350.5001,-140.9909 354,-150.991 357.5001,-140.991 350.5001,-140.9909"/>
</g>
<!-- EntityManagerComponent  -->
<g id="node7" class="node">
<title>EntityManagerComponent </title>
<polygon fill="#fb8072" stroke="#000000" points="619.3059,-252 450.6941,-252 450.6941,-216 619.3059,-216 619.3059,-252"/>
<text text-anchor="middle" x="535" y="-229.8" font-family="Times,serif" font-size="14.00" fill="#000000">EntityManagerComponent </text>
</g>
<!-- EntitySearchModule&#45;&gt;EntityManagerComponent  -->
<g id="edge6" class="edge">
<title>EntitySearchModule&#45;&gt;EntityManagerComponent </title>
<path fill="none" stroke="#000000" stroke-dasharray="5,2" d="M419.9053,-178C467.4165,-178 523.2095,-178 523.2095,-178 523.2095,-178 523.2095,-205.973 523.2095,-205.973"/>
<polygon fill="#000000" stroke="#000000" points="519.7096,-205.973 523.2095,-215.973 526.7096,-205.973 519.7096,-205.973"/>
</g>
<!-- EntitySearchComponent  -->
<g id="node8" class="node">
<title>EntitySearchComponent </title>
<polygon fill="#fb8072" stroke="#000000" points="432.6439,-252 275.3561,-252 275.3561,-216 432.6439,-216 432.6439,-252"/>
<text text-anchor="middle" x="354" y="-229.8" font-family="Times,serif" font-size="14.00" fill="#000000">EntitySearchComponent </text>
</g>
<!-- EntitySearchModule&#45;&gt;EntitySearchComponent  -->
<g id="edge7" class="edge">
<title>EntitySearchModule&#45;&gt;EntitySearchComponent </title>
<path fill="none" stroke="#000000" stroke-dasharray="5,2" d="M354,-187.1061C354,-187.1061 354,-205.991 354,-205.991"/>
<polygon fill="#000000" stroke="#000000" points="350.5001,-205.9909 354,-215.991 357.5001,-205.991 350.5001,-205.9909"/>
</g>
<!-- EntitySearchDirective  -->
<g id="node9" class="node">
<title>EntitySearchDirective </title>
<polygon fill="#fb8072" stroke="#000000" points="256.8942,-252 113.1058,-252 113.1058,-216 256.8942,-216 256.8942,-252"/>
<text text-anchor="middle" x="185" y="-229.8" font-family="Times,serif" font-size="14.00" fill="#000000">EntitySearchDirective </text>
</g>
<!-- EntitySearchModule&#45;&gt;EntitySearchDirective  -->
<g id="edge8" class="edge">
<title>EntitySearchModule&#45;&gt;EntitySearchDirective </title>
<path fill="none" stroke="#000000" stroke-dasharray="5,2" d="M288.0762,-178C237.499,-178 176.2802,-178 176.2802,-178 176.2802,-178 176.2802,-205.973 176.2802,-205.973"/>
<polygon fill="#000000" stroke="#000000" points="172.7803,-205.973 176.2802,-215.973 179.7803,-205.973 172.7803,-205.973"/>
</g>
<!-- ButtonTitleModule -->
<g id="node5" class="node">
<title>ButtonTitleModule</title>
<polygon fill="#8dd3c7" stroke="#000000" points="260.1066,-122 257.1066,-126 236.1066,-126 233.1066,-122 135.8934,-122 135.8934,-86 260.1066,-86 260.1066,-122"/>
<text text-anchor="middle" x="198" y="-99.8" font-family="Times,serif" font-size="14.00" fill="#000000">ButtonTitleModule</text>
</g>
<!-- ButtonTitleModule&#45;&gt;EntitySearchModule -->
<g id="edge4" class="edge">
<title>ButtonTitleModule&#45;&gt;EntitySearchModule</title>
<path fill="none" stroke="#000000" d="M216.6136,-122.027C216.6136,-138.3976 216.6136,-160 216.6136,-160 216.6136,-160 278.1236,-160 278.1236,-160"/>
<polygon fill="#000000" stroke="#000000" points="278.1236,-163.5001 288.1236,-160 278.1236,-156.5001 278.1236,-163.5001"/>
</g>
<!-- SelectModule -->
<g id="node6" class="node">
<title>SelectModule</title>
<polygon fill="#8dd3c7" stroke="#000000" points="117.7577,-122 114.7577,-126 93.7577,-126 90.7577,-122 24.2423,-122 24.2423,-86 117.7577,-86 117.7577,-122"/>
<text text-anchor="middle" x="71" y="-99.8" font-family="Times,serif" font-size="14.00" fill="#000000">SelectModule</text>
</g>
<!-- SelectModule&#45;&gt;EntitySearchModule -->
<g id="edge5" class="edge">
<title>SelectModule&#45;&gt;EntitySearchModule</title>
<path fill="none" stroke="#000000" d="M68.5871,-122.1061C68.5871,-141.3391 68.5871,-169 68.5871,-169 68.5871,-169 277.8032,-169 277.8032,-169"/>
<polygon fill="#000000" stroke="#000000" points="277.8032,-172.5001 287.8032,-169 277.8031,-165.5001 277.8032,-172.5001"/>
</g>
</g>
</svg>
