<?xml version="1.0" encoding="UTF-8" standalone="no"?>
<!DOCTYPE svg PUBLIC "-//W3C//DTD SVG 1.1//EN"
 "http://www.w3.org/Graphics/SVG/1.1/DTD/svg11.dtd">
<!-- Generated by graphviz version 2.40.1 (20161225.0304)
 -->
<!-- Title: dependencies Pages: 1 -->
<svg width="903pt" height="211pt"
 viewBox="0.00 0.00 903.00 211.00" xmlns="http://www.w3.org/2000/svg" xmlns:xlink="http://www.w3.org/1999/xlink">
<g id="graph0" class="graph" transform="scale(1 1) rotate(0) translate(4 207)">
<title>dependencies</title>
<polygon fill="#ffffff" stroke="transparent" points="-4,4 -4,-207 899,-207 899,4 -4,4"/>
<text text-anchor="start" x="426.5091" y="-42.4" font-family="sans-serif" font-weight="bold" font-size="14.00" fill="#000000">Legend</text>
<polygon fill="#ffffb3" stroke="transparent" points="213.5,-10 213.5,-30 233.5,-30 233.5,-10 213.5,-10"/>
<text text-anchor="start" x="237.129" y="-15.4" font-family="sans-serif" font-size="14.00" fill="#000000"> &#160;Declarations</text>
<polygon fill="#8dd3c7" stroke="transparent" points="326.5,-10 326.5,-30 346.5,-30 346.5,-10 326.5,-10"/>
<text text-anchor="start" x="350.2251" y="-15.4" font-family="sans-serif" font-size="14.00" fill="#000000"> &#160;Module</text>
<polygon fill="#80b1d3" stroke="transparent" points="412.5,-10 412.5,-30 432.5,-30 432.5,-10 412.5,-10"/>
<text text-anchor="start" x="436.2812" y="-15.4" font-family="sans-serif" font-size="14.00" fill="#000000"> &#160;Bootstrap</text>
<polygon fill="#fdb462" stroke="transparent" points="509.5,-10 509.5,-30 529.5,-30 529.5,-10 509.5,-10"/>
<text text-anchor="start" x="533.1732" y="-15.4" font-family="sans-serif" font-size="14.00" fill="#000000"> &#160;Providers</text>
<polygon fill="#fb8072" stroke="transparent" points="605.5,-10 605.5,-30 625.5,-30 625.5,-10 605.5,-10"/>
<text text-anchor="start" x="629.2258" y="-15.4" font-family="sans-serif" font-size="14.00" fill="#000000"> &#160;Exports</text>
<g id="clust1" class="cluster">
<title>cluster_MyFavoriteDocumentsModule</title>
<polygon fill="none" stroke="#000000" stroke-dasharray="1,5" points="8,-70 8,-195 887,-195 887,-70 8,-70"/>
</g>
<g id="clust2" class="cluster">
<title>cluster_MyFavoriteDocumentsModule_declarations</title>
<polygon fill="none" stroke="#000000" points="336,-78 336,-130 879,-130 879,-78 336,-78"/>
</g>
<g id="clust8" class="cluster">
<title>cluster_MyFavoriteDocumentsModule_providers</title>
<polygon fill="none" stroke="#000000" points="16,-78 16,-130 328,-130 328,-78 16,-78"/>
</g>
<!-- MyFavoriteDocumentsComponent -->
<g id="node1" class="node">
<title>MyFavoriteDocumentsComponent</title>
<polygon fill="#ffffb3" stroke="#000000" points="870.6923,-122 659.3077,-122 659.3077,-86 870.6923,-86 870.6923,-122"/>
<text text-anchor="middle" x="765" y="-99.8" font-family="Times,serif" font-size="14.00" fill="#000000">MyFavoriteDocumentsComponent</text>
</g>
<!-- MyFavoriteDocumentsModule -->
<g id="node3" class="node">
<title>MyFavoriteDocumentsModule</title>
<polygon fill="#8dd3c7" stroke="#000000" points="587.91,-187 584.91,-191 563.91,-191 560.91,-187 398.09,-187 398.09,-151 587.91,-151 587.91,-187"/>
<text text-anchor="middle" x="493" y="-164.8" font-family="Times,serif" font-size="14.00" fill="#000000">MyFavoriteDocumentsModule</text>
</g>
<!-- MyFavoriteDocumentsComponent&#45;&gt;MyFavoriteDocumentsModule -->
<g id="edge1" class="edge">
<title>MyFavoriteDocumentsComponent&#45;&gt;MyFavoriteDocumentsModule</title>
<path fill="none" stroke="#000000" d="M765,-122.1061C765,-141.3391 765,-169 765,-169 765,-169 597.7506,-169 597.7506,-169"/>
<polygon fill="#000000" stroke="#000000" points="597.7506,-165.5001 587.7506,-169 597.7505,-172.5001 597.7506,-165.5001"/>
</g>
<!-- MyFavoriteDocumentsPersonalizationComponent -->
<g id="node2" class="node">
<title>MyFavoriteDocumentsPersonalizationComponent</title>
<polygon fill="#ffffb3" stroke="#000000" points="641.5012,-122 344.4988,-122 344.4988,-86 641.5012,-86 641.5012,-122"/>
<text text-anchor="middle" x="493" y="-99.8" font-family="Times,serif" font-size="14.00" fill="#000000">MyFavoriteDocumentsPersonalizationComponent</text>
</g>
<!-- MyFavoriteDocumentsPersonalizationComponent&#45;&gt;MyFavoriteDocumentsModule -->
<g id="edge2" class="edge">
<title>MyFavoriteDocumentsPersonalizationComponent&#45;&gt;MyFavoriteDocumentsModule</title>
<path fill="none" stroke="#000000" d="M493,-122.1061C493,-122.1061 493,-140.991 493,-140.991"/>
<polygon fill="#000000" stroke="#000000" points="489.5001,-140.9909 493,-150.991 496.5001,-140.991 489.5001,-140.9909"/>
</g>
<!-- MyFavoriteDocumentsDataService -->
<g id="node4" class="node">
<title>MyFavoriteDocumentsDataService</title>
<ellipse fill="#fdb462" stroke="#000000" cx="172" cy="-104" rx="147.5908" ry="18"/>
<text text-anchor="middle" x="172" y="-99.8" font-family="Times,serif" font-size="14.00" fill="#000000">MyFavoriteDocumentsDataService</text>
</g>
<!-- MyFavoriteDocumentsDataService&#45;&gt;MyFavoriteDocumentsModule -->
<g id="edge3" class="edge">
<title>MyFavoriteDocumentsDataService&#45;&gt;MyFavoriteDocumentsModule</title>
<path fill="none" stroke="#000000" d="M172,-122.1061C172,-141.3391 172,-169 172,-169 172,-169 387.9923,-169 387.9923,-169"/>
<polygon fill="#000000" stroke="#000000" points="387.9923,-172.5001 397.9923,-169 387.9923,-165.5001 387.9923,-172.5001"/>
</g>
</g>
</svg>
