<?xml version="1.0" encoding="UTF-8" standalone="no"?>
<!DOCTYPE svg PUBLIC "-//W3C//DTD SVG 1.1//EN"
 "http://www.w3.org/Graphics/SVG/1.1/DTD/svg11.dtd">
<!-- Generated by graphviz version 2.40.1 (20161225.0304)
 -->
<!-- Title: dependencies Pages: 1 -->
<svg width="2514pt" height="284pt"
 viewBox="0.00 0.00 2514.00 284.00" xmlns="http://www.w3.org/2000/svg" xmlns:xlink="http://www.w3.org/1999/xlink">
<g id="graph0" class="graph" transform="scale(1 1) rotate(0) translate(4 280)">
<title>dependencies</title>
<polygon fill="#ffffff" stroke="transparent" points="-4,4 -4,-280 2510,-280 2510,4 -4,4"/>
<text text-anchor="start" x="1232.0091" y="-42.4" font-family="sans-serif" font-weight="bold" font-size="14.00" fill="#000000">Legend</text>
<polygon fill="#ffffb3" stroke="transparent" points="1019,-10 1019,-30 1039,-30 1039,-10 1019,-10"/>
<text text-anchor="start" x="1042.629" y="-15.4" font-family="sans-serif" font-size="14.00" fill="#000000"> &#160;Declarations</text>
<polygon fill="#8dd3c7" stroke="transparent" points="1132,-10 1132,-30 1152,-30 1152,-10 1132,-10"/>
<text text-anchor="start" x="1155.7251" y="-15.4" font-family="sans-serif" font-size="14.00" fill="#000000"> &#160;Module</text>
<polygon fill="#80b1d3" stroke="transparent" points="1218,-10 1218,-30 1238,-30 1238,-10 1218,-10"/>
<text text-anchor="start" x="1241.7812" y="-15.4" font-family="sans-serif" font-size="14.00" fill="#000000"> &#160;Bootstrap</text>
<polygon fill="#fdb462" stroke="transparent" points="1315,-10 1315,-30 1335,-30 1335,-10 1315,-10"/>
<text text-anchor="start" x="1338.6732" y="-15.4" font-family="sans-serif" font-size="14.00" fill="#000000"> &#160;Providers</text>
<polygon fill="#fb8072" stroke="transparent" points="1411,-10 1411,-30 1431,-30 1431,-10 1411,-10"/>
<text text-anchor="start" x="1434.7258" y="-15.4" font-family="sans-serif" font-size="14.00" fill="#000000"> &#160;Exports</text>
<g id="clust1" class="cluster">
<title>cluster_DashboardsModule</title>
<polygon fill="none" stroke="#000000" stroke-dasharray="1,5" points="8,-70 8,-268 2498,-268 2498,-70 8,-70"/>
</g>
<g id="clust2" class="cluster">
<title>cluster_DashboardsModule_declarations</title>
<polygon fill="none" stroke="#000000" points="1384,-78 1384,-130 2490,-130 2490,-78 1384,-78"/>
</g>
<g id="clust9" class="cluster">
<title>cluster_DashboardsModule_imports</title>
<polygon fill="none" stroke="#000000" points="1254,-78 1254,-130 1376,-130 1376,-78 1254,-78"/>
</g>
<g id="clust10" class="cluster">
<title>cluster_DashboardsModule_exports</title>
<polygon fill="none" stroke="#000000" points="1232,-208 1232,-260 1398,-260 1398,-208 1232,-208"/>
</g>
<g id="clust12" class="cluster">
<title>cluster_DashboardsModule_providers</title>
<polygon fill="none" stroke="#000000" points="16,-78 16,-130 1246,-130 1246,-78 16,-78"/>
</g>
<!-- AddContentComponent -->
<g id="node1" class="node">
<title>AddContentComponent</title>
<polygon fill="#ffffb3" stroke="#000000" points="2481.7716,-122 2332.2284,-122 2332.2284,-86 2481.7716,-86 2481.7716,-122"/>
<text text-anchor="middle" x="2407" y="-99.8" font-family="Times,serif" font-size="14.00" fill="#000000">AddContentComponent</text>
</g>
<!-- DashboardsModule -->
<g id="node7" class="node">
<title>DashboardsModule</title>
<polygon fill="#8dd3c7" stroke="#000000" points="1377.6359,-187 1374.6359,-191 1353.6359,-191 1350.6359,-187 1252.3641,-187 1252.3641,-151 1377.6359,-151 1377.6359,-187"/>
<text text-anchor="middle" x="1315" y="-164.8" font-family="Times,serif" font-size="14.00" fill="#000000">DashboardsModule</text>
</g>
<!-- AddContentComponent&#45;&gt;DashboardsModule -->
<g id="edge1" class="edge">
<title>AddContentComponent&#45;&gt;DashboardsModule</title>
<path fill="none" stroke="#000000" d="M2407,-122.2479C2407,-145.0179 2407,-181 2407,-181 2407,-181 1388.0311,-181 1388.0311,-181"/>
<polygon fill="#000000" stroke="#000000" points="1388.0312,-177.5001 1378.0311,-181 1388.0311,-184.5001 1388.0312,-177.5001"/>
</g>
<!-- AddPageDialogueComponent -->
<g id="node2" class="node">
<title>AddPageDialogueComponent</title>
<polygon fill="#ffffb3" stroke="#000000" points="2313.9678,-122 2130.0322,-122 2130.0322,-86 2313.9678,-86 2313.9678,-122"/>
<text text-anchor="middle" x="2222" y="-99.8" font-family="Times,serif" font-size="14.00" fill="#000000">AddPageDialogueComponent</text>
</g>
<!-- AddPageDialogueComponent&#45;&gt;DashboardsModule -->
<g id="edge2" class="edge">
<title>AddPageDialogueComponent&#45;&gt;DashboardsModule</title>
<path fill="none" stroke="#000000" d="M2222,-122.2843C2222,-143.3211 2222,-175 2222,-175 2222,-175 1387.6996,-175 1387.6996,-175"/>
<polygon fill="#000000" stroke="#000000" points="1387.6997,-171.5001 1377.6996,-175 1387.6996,-178.5001 1387.6997,-171.5001"/>
</g>
<!-- DashboardComponent -->
<g id="node3" class="node">
<title>DashboardComponent</title>
<polygon fill="#ffffb3" stroke="#000000" points="2111.9734,-122 1970.0266,-122 1970.0266,-86 2111.9734,-86 2111.9734,-122"/>
<text text-anchor="middle" x="2041" y="-99.8" font-family="Times,serif" font-size="14.00" fill="#000000">DashboardComponent</text>
</g>
<!-- DashboardComponent&#45;&gt;DashboardsModule -->
<g id="edge3" class="edge">
<title>DashboardComponent&#45;&gt;DashboardsModule</title>
<path fill="none" stroke="#000000" d="M2041,-122.1061C2041,-141.3391 2041,-169 2041,-169 2041,-169 1387.8419,-169 1387.8419,-169"/>
<polygon fill="#000000" stroke="#000000" points="1387.8419,-165.5001 1377.8419,-169 1387.8418,-172.5001 1387.8419,-165.5001"/>
</g>
<!-- DashboardsComponent -->
<g id="node4" class="node">
<title>DashboardsComponent</title>
<polygon fill="#ffffb3" stroke="#000000" points="1951.9186,-122 1804.0814,-122 1804.0814,-86 1951.9186,-86 1951.9186,-122"/>
<text text-anchor="middle" x="1878" y="-99.8" font-family="Times,serif" font-size="14.00" fill="#000000">DashboardsComponent</text>
</g>
<!-- DashboardsComponent&#45;&gt;DashboardsModule -->
<g id="edge4" class="edge">
<title>DashboardsComponent&#45;&gt;DashboardsModule</title>
<path fill="none" stroke="#000000" d="M1878,-122.0225C1878,-139.3734 1878,-163 1878,-163 1878,-163 1387.673,-163 1387.673,-163"/>
<polygon fill="#000000" stroke="#000000" points="1387.673,-159.5001 1377.673,-163 1387.6729,-166.5001 1387.673,-159.5001"/>
</g>
<!-- DashboardsSecurityAccessPipe -->
<g id="node5" class="node">
<title>DashboardsSecurityAccessPipe</title>
<polygon fill="#ffffb3" stroke="#000000" points="1786.7668,-122 1593.2332,-122 1593.2332,-86 1786.7668,-86 1786.7668,-122"/>
<text text-anchor="middle" x="1690" y="-99.8" font-family="Times,serif" font-size="14.00" fill="#000000">DashboardsSecurityAccessPipe</text>
</g>
<!-- DashboardsSecurityAccessPipe&#45;&gt;DashboardsModule -->
<g id="edge5" class="edge">
<title>DashboardsSecurityAccessPipe&#45;&gt;DashboardsModule</title>
<path fill="none" stroke="#000000" d="M1690,-122.2396C1690,-137.5706 1690,-157 1690,-157 1690,-157 1387.7666,-157 1387.7666,-157"/>
<polygon fill="#000000" stroke="#000000" points="1387.7666,-153.5001 1377.7666,-157 1387.7665,-160.5001 1387.7666,-153.5001"/>
</g>
<!-- EditPageDialogueComponent -->
<g id="node6" class="node">
<title>EditPageDialogueComponent</title>
<polygon fill="#ffffb3" stroke="#000000" points="1575.6951,-122 1392.3049,-122 1392.3049,-86 1575.6951,-86 1575.6951,-122"/>
<text text-anchor="middle" x="1484" y="-99.8" font-family="Times,serif" font-size="14.00" fill="#000000">EditPageDialogueComponent</text>
</g>
<!-- EditPageDialogueComponent&#45;&gt;DashboardsModule -->
<g id="edge6" class="edge">
<title>EditPageDialogueComponent&#45;&gt;DashboardsModule</title>
<path fill="none" stroke="#000000" d="M1392.3017,-104C1380.7947,-104 1372.9601,-104 1372.9601,-104 1372.9601,-104 1372.9601,-140.8939 1372.9601,-140.8939"/>
<polygon fill="#000000" stroke="#000000" points="1369.4601,-140.8938 1372.9601,-150.8939 1376.4601,-140.8939 1369.4601,-140.8938"/>
</g>
<!-- DashboardsComponent  -->
<g id="node9" class="node">
<title>DashboardsComponent </title>
<polygon fill="#fb8072" stroke="#000000" points="1390.418,-252 1239.582,-252 1239.582,-216 1390.418,-216 1390.418,-252"/>
<text text-anchor="middle" x="1315" y="-229.8" font-family="Times,serif" font-size="14.00" fill="#000000">DashboardsComponent </text>
</g>
<!-- DashboardsModule&#45;&gt;DashboardsComponent  -->
<g id="edge8" class="edge">
<title>DashboardsModule&#45;&gt;DashboardsComponent </title>
<path fill="none" stroke="#000000" stroke-dasharray="5,2" d="M1315,-187.1061C1315,-187.1061 1315,-205.991 1315,-205.991"/>
<polygon fill="#000000" stroke="#000000" points="1311.5001,-205.9909 1315,-215.991 1318.5001,-205.991 1311.5001,-205.9909"/>
</g>
<!-- WidgetsModule -->
<g id="node8" class="node">
<title>WidgetsModule</title>
<polygon fill="#8dd3c7" stroke="#000000" points="1368.205,-122 1365.205,-126 1344.205,-126 1341.205,-122 1261.795,-122 1261.795,-86 1368.205,-86 1368.205,-122"/>
<text text-anchor="middle" x="1315" y="-99.8" font-family="Times,serif" font-size="14.00" fill="#000000">WidgetsModule</text>
</g>
<!-- WidgetsModule&#45;&gt;DashboardsModule -->
<g id="edge7" class="edge">
<title>WidgetsModule&#45;&gt;DashboardsModule</title>
<path fill="none" stroke="#000000" d="M1315,-122.1061C1315,-122.1061 1315,-140.991 1315,-140.991"/>
<polygon fill="#000000" stroke="#000000" points="1311.5001,-140.9909 1315,-150.991 1318.5001,-140.991 1311.5001,-140.9909"/>
</g>
<!-- AddPageDialogueService -->
<g id="node10" class="node">
<title>AddPageDialogueService</title>
<ellipse fill="#fdb462" stroke="#000000" cx="1127" cy="-104" rx="110.5762" ry="18"/>
<text text-anchor="middle" x="1127" y="-99.8" font-family="Times,serif" font-size="14.00" fill="#000000">AddPageDialogueService</text>
</g>
<!-- AddPageDialogueService&#45;&gt;DashboardsModule -->
<g id="edge9" class="edge">
<title>AddPageDialogueService&#45;&gt;DashboardsModule</title>
<path fill="none" stroke="#000000" d="M1237.8521,-104C1249.4125,-104 1257.0399,-104 1257.0399,-104 1257.0399,-104 1257.0399,-140.8939 1257.0399,-140.8939"/>
<polygon fill="#000000" stroke="#000000" points="1253.54,-140.8938 1257.0399,-150.8939 1260.54,-140.8939 1253.54,-140.8938"/>
</g>
<!-- DashboardService -->
<g id="node11" class="node">
<title>DashboardService</title>
<ellipse fill="#fdb462" stroke="#000000" cx="916" cy="-104" rx="81.6423" ry="18"/>
<text text-anchor="middle" x="916" y="-99.8" font-family="Times,serif" font-size="14.00" fill="#000000">DashboardService</text>
</g>
<!-- DashboardService&#45;&gt;DashboardsModule -->
<g id="edge10" class="edge">
<title>DashboardService&#45;&gt;DashboardsModule</title>
<path fill="none" stroke="#000000" d="M916,-122.2396C916,-137.5706 916,-157 916,-157 916,-157 1242.2173,-157 1242.2173,-157"/>
<polygon fill="#000000" stroke="#000000" points="1242.2174,-160.5001 1252.2173,-157 1242.2173,-153.5001 1242.2174,-160.5001"/>
</g>
<!-- DashboardsDataService -->
<g id="node12" class="node">
<title>DashboardsDataService</title>
<ellipse fill="#fdb462" stroke="#000000" cx="712" cy="-104" rx="103.6103" ry="18"/>
<text text-anchor="middle" x="712" y="-99.8" font-family="Times,serif" font-size="14.00" fill="#000000">DashboardsDataService</text>
</g>
<!-- DashboardsDataService&#45;&gt;DashboardsModule -->
<g id="edge11" class="edge">
<title>DashboardsDataService&#45;&gt;DashboardsModule</title>
<path fill="none" stroke="#000000" d="M712,-122.0225C712,-139.3734 712,-163 712,-163 712,-163 1242.1749,-163 1242.1749,-163"/>
<polygon fill="#000000" stroke="#000000" points="1242.1749,-166.5001 1252.1749,-163 1242.1749,-159.5001 1242.1749,-166.5001"/>
</g>
<!-- DashboardsEffects -->
<g id="node13" class="node">
<title>DashboardsEffects</title>
<ellipse fill="#fdb462" stroke="#000000" cx="506" cy="-104" rx="83.9257" ry="18"/>
<text text-anchor="middle" x="506" y="-99.8" font-family="Times,serif" font-size="14.00" fill="#000000">DashboardsEffects</text>
</g>
<!-- DashboardsEffects&#45;&gt;DashboardsModule -->
<g id="edge12" class="edge">
<title>DashboardsEffects&#45;&gt;DashboardsModule</title>
<path fill="none" stroke="#000000" d="M506,-122.1061C506,-141.3391 506,-169 506,-169 506,-169 1242.1923,-169 1242.1923,-169"/>
<polygon fill="#000000" stroke="#000000" points="1242.1923,-172.5001 1252.1923,-169 1242.1923,-165.5001 1242.1923,-172.5001"/>
</g>
<!-- EditPageDialogueService -->
<g id="node14" class="node">
<title>EditPageDialogueService</title>
<ellipse fill="#fdb462" stroke="#000000" cx="294" cy="-104" rx="110.0103" ry="18"/>
<text text-anchor="middle" x="294" y="-99.8" font-family="Times,serif" font-size="14.00" fill="#000000">EditPageDialogueService</text>
</g>
<!-- EditPageDialogueService&#45;&gt;DashboardsModule -->
<g id="edge13" class="edge">
<title>EditPageDialogueService&#45;&gt;DashboardsModule</title>
<path fill="none" stroke="#000000" d="M294,-122.2843C294,-143.3211 294,-175 294,-175 294,-175 1242.2861,-175 1242.2861,-175"/>
<polygon fill="#000000" stroke="#000000" points="1242.2861,-178.5001 1252.2861,-175 1242.2861,-171.5001 1242.2861,-178.5001"/>
</g>
<!-- ScrollerService -->
<g id="node15" class="node">
<title>ScrollerService</title>
<ellipse fill="#fdb462" stroke="#000000" cx="95" cy="-104" rx="70.6181" ry="18"/>
<text text-anchor="middle" x="95" y="-99.8" font-family="Times,serif" font-size="14.00" fill="#000000">ScrollerService</text>
</g>
<!-- ScrollerService&#45;&gt;DashboardsModule -->
<g id="edge14" class="edge">
<title>ScrollerService&#45;&gt;DashboardsModule</title>
<path fill="none" stroke="#000000" d="M95,-122.2479C95,-145.0179 95,-181 95,-181 95,-181 1241.9765,-181 1241.9765,-181"/>
<polygon fill="#000000" stroke="#000000" points="1241.9766,-184.5001 1251.9765,-181 1241.9765,-177.5001 1241.9766,-184.5001"/>
</g>
</g>
</svg>
