<?xml version="1.0" encoding="UTF-8" standalone="no"?>
<!DOCTYPE svg PUBLIC "-//W3C//DTD SVG 1.1//EN"
 "http://www.w3.org/Graphics/SVG/1.1/DTD/svg11.dtd">
<!-- Generated by graphviz version 2.40.1 (20161225.0304)
 -->
<!-- Title: dependencies Pages: 1 -->
<svg width="1154pt" height="276pt"
 viewBox="0.00 0.00 1154.00 276.00" xmlns="http://www.w3.org/2000/svg" xmlns:xlink="http://www.w3.org/1999/xlink">
<g id="graph0" class="graph" transform="scale(1 1) rotate(0) translate(4 272)">
<title>dependencies</title>
<polygon fill="#ffffff" stroke="transparent" points="-4,4 -4,-272 1150,-272 1150,4 -4,4"/>
<text text-anchor="start" x="552.0091" y="-42.4" font-family="sans-serif" font-weight="bold" font-size="14.00" fill="#000000">Legend</text>
<polygon fill="#ffffb3" stroke="transparent" points="339,-10 339,-30 359,-30 359,-10 339,-10"/>
<text text-anchor="start" x="362.629" y="-15.4" font-family="sans-serif" font-size="14.00" fill="#000000"> &#160;Declarations</text>
<polygon fill="#8dd3c7" stroke="transparent" points="452,-10 452,-30 472,-30 472,-10 452,-10"/>
<text text-anchor="start" x="475.7251" y="-15.4" font-family="sans-serif" font-size="14.00" fill="#000000"> &#160;Module</text>
<polygon fill="#80b1d3" stroke="transparent" points="538,-10 538,-30 558,-30 558,-10 538,-10"/>
<text text-anchor="start" x="561.7812" y="-15.4" font-family="sans-serif" font-size="14.00" fill="#000000"> &#160;Bootstrap</text>
<polygon fill="#fdb462" stroke="transparent" points="635,-10 635,-30 655,-30 655,-10 635,-10"/>
<text text-anchor="start" x="658.6732" y="-15.4" font-family="sans-serif" font-size="14.00" fill="#000000"> &#160;Providers</text>
<polygon fill="#fb8072" stroke="transparent" points="731,-10 731,-30 751,-30 751,-10 731,-10"/>
<text text-anchor="start" x="754.7258" y="-15.4" font-family="sans-serif" font-size="14.00" fill="#000000"> &#160;Exports</text>
<g id="clust1" class="cluster">
<title>cluster_MyLinksWidgetModule</title>
<polygon fill="none" stroke="#000000" stroke-dasharray="1,5" points="8,-70 8,-260 1138,-260 1138,-70 8,-70"/>
</g>
<g id="clust2" class="cluster">
<title>cluster_MyLinksWidgetModule_declarations</title>
<polygon fill="none" stroke="#000000" points="228,-143 228,-195 1130,-195 1130,-143 228,-143"/>
</g>
<g id="clust5" class="cluster">
<title>cluster_MyLinksWidgetModule_MyLinksWidgetComponent_providers</title>
<polygon fill="none" stroke="#000000" points="524,-78 524,-130 750,-130 750,-78 524,-78"/>
</g>
<g id="clust11" class="cluster">
<title>cluster_MyLinksWidgetModule_providers</title>
<polygon fill="none" stroke="#000000" points="16,-143 16,-195 220,-195 220,-143 16,-143"/>
</g>
<!-- EditFolderToolbarComponent -->
<g id="node1" class="node">
<title>EditFolderToolbarComponent</title>
<polygon fill="#ffffb3" stroke="#000000" points="1121.5336,-187 936.4664,-187 936.4664,-151 1121.5336,-151 1121.5336,-187"/>
<text text-anchor="middle" x="1029" y="-164.8" font-family="Times,serif" font-size="14.00" fill="#000000">EditFolderToolbarComponent</text>
</g>
<!-- MyLinksWidgetModule -->
<g id="node6" class="node">
<title>MyLinksWidgetModule</title>
<polygon fill="#8dd3c7" stroke="#000000" points="624.0926,-252 621.0926,-256 600.0926,-256 597.0926,-252 471.9074,-252 471.9074,-216 624.0926,-216 624.0926,-252"/>
<text text-anchor="middle" x="548" y="-229.8" font-family="Times,serif" font-size="14.00" fill="#000000">MyLinksWidgetModule</text>
</g>
<!-- EditFolderToolbarComponent&#45;&gt;MyLinksWidgetModule -->
<g id="edge1" class="edge">
<title>EditFolderToolbarComponent&#45;&gt;MyLinksWidgetModule</title>
<path fill="none" stroke="#000000" d="M1029,-187.2843C1029,-208.3211 1029,-240 1029,-240 1029,-240 634.2159,-240 634.2159,-240"/>
<polygon fill="#000000" stroke="#000000" points="634.2159,-236.5001 624.2159,-240 634.2158,-243.5001 634.2159,-236.5001"/>
</g>
<!-- MyLinksToolbarComponent -->
<g id="node2" class="node">
<title>MyLinksToolbarComponent</title>
<polygon fill="#ffffb3" stroke="#000000" points="918.4832,-187 741.5168,-187 741.5168,-151 918.4832,-151 918.4832,-187"/>
<text text-anchor="middle" x="830" y="-164.8" font-family="Times,serif" font-size="14.00" fill="#000000">MyLinksToolbarComponent</text>
</g>
<!-- MyLinksToolbarComponent&#45;&gt;MyLinksWidgetModule -->
<g id="edge2" class="edge">
<title>MyLinksToolbarComponent&#45;&gt;MyLinksWidgetModule</title>
<path fill="none" stroke="#000000" d="M830,-187.0225C830,-204.3734 830,-228 830,-228 830,-228 634.3133,-228 634.3133,-228"/>
<polygon fill="#000000" stroke="#000000" points="634.3133,-224.5001 624.3133,-228 634.3132,-231.5001 634.3133,-224.5001"/>
</g>
<!-- MyLinksWidgetComponent -->
<g id="node3" class="node">
<title>MyLinksWidgetComponent</title>
<polygon fill="#ffffb3" stroke="#000000" points="723.8752,-187 550.1248,-187 550.1248,-151 723.8752,-151 723.8752,-187"/>
<text text-anchor="middle" x="637" y="-164.8" font-family="Times,serif" font-size="14.00" fill="#000000">MyLinksWidgetComponent</text>
</g>
<!-- MyLinksWidgetComponent&#45;&gt;MyLinksWidgetModule -->
<g id="edge3" class="edge">
<title>MyLinksWidgetComponent&#45;&gt;MyLinksWidgetModule</title>
<path fill="none" stroke="#000000" d="M587.0544,-187.1061C587.0544,-187.1061 587.0544,-205.991 587.0544,-205.991"/>
<polygon fill="#000000" stroke="#000000" points="583.5544,-205.9909 587.0544,-215.991 590.5544,-205.991 583.5544,-205.9909"/>
</g>
<!-- NewFolderComponent -->
<g id="node4" class="node">
<title>NewFolderComponent</title>
<polygon fill="#ffffb3" stroke="#000000" points="532.3089,-187 387.6911,-187 387.6911,-151 532.3089,-151 532.3089,-187"/>
<text text-anchor="middle" x="460" y="-164.8" font-family="Times,serif" font-size="14.00" fill="#000000">NewFolderComponent</text>
</g>
<!-- NewFolderComponent&#45;&gt;MyLinksWidgetModule -->
<g id="edge5" class="edge">
<title>NewFolderComponent&#45;&gt;MyLinksWidgetModule</title>
<path fill="none" stroke="#000000" d="M502.054,-187.1061C502.054,-187.1061 502.054,-205.991 502.054,-205.991"/>
<polygon fill="#000000" stroke="#000000" points="498.5541,-205.9909 502.054,-215.991 505.5541,-205.991 498.5541,-205.9909"/>
</g>
<!-- NewLinkComponent -->
<g id="node5" class="node">
<title>NewLinkComponent</title>
<polygon fill="#ffffb3" stroke="#000000" points="370.2036,-187 235.7964,-187 235.7964,-151 370.2036,-151 370.2036,-187"/>
<text text-anchor="middle" x="303" y="-164.8" font-family="Times,serif" font-size="14.00" fill="#000000">NewLinkComponent</text>
</g>
<!-- NewLinkComponent&#45;&gt;MyLinksWidgetModule -->
<g id="edge6" class="edge">
<title>NewLinkComponent&#45;&gt;MyLinksWidgetModule</title>
<path fill="none" stroke="#000000" d="M303,-187.0225C303,-204.3734 303,-228 303,-228 303,-228 461.8235,-228 461.8235,-228"/>
<polygon fill="#000000" stroke="#000000" points="461.8235,-231.5001 471.8235,-228 461.8234,-224.5001 461.8235,-231.5001"/>
</g>
<!-- MyLinksActionsService -->
<g id="node7" class="node">
<title>MyLinksActionsService</title>
<ellipse fill="#fdb462" stroke="#000000" cx="637" cy="-104" rx="105.376" ry="18"/>
<text text-anchor="middle" x="637" y="-99.8" font-family="Times,serif" font-size="14.00" fill="#000000">MyLinksActionsService</text>
</g>
<!-- MyLinksActionsService&#45;&gt;MyLinksWidgetComponent -->
<g id="edge4" class="edge">
<title>MyLinksActionsService&#45;&gt;MyLinksWidgetComponent</title>
<path fill="none" stroke="#000000" d="M637,-122.1061C637,-122.1061 637,-140.991 637,-140.991"/>
<polygon fill="#000000" stroke="#000000" points="633.5001,-140.9909 637,-150.991 640.5001,-140.991 633.5001,-140.9909"/>
</g>
<!-- MyLinksDataService -->
<g id="node8" class="node">
<title>MyLinksDataService</title>
<ellipse fill="#fdb462" stroke="#000000" cx="118" cy="-169" rx="93.7572" ry="18"/>
<text text-anchor="middle" x="118" y="-164.8" font-family="Times,serif" font-size="14.00" fill="#000000">MyLinksDataService</text>
</g>
<!-- MyLinksDataService&#45;&gt;MyLinksWidgetModule -->
<g id="edge7" class="edge">
<title>MyLinksDataService&#45;&gt;MyLinksWidgetModule</title>
<path fill="none" stroke="#000000" d="M118,-187.2843C118,-208.3211 118,-240 118,-240 118,-240 461.6201,-240 461.6201,-240"/>
<polygon fill="#000000" stroke="#000000" points="461.6201,-243.5001 471.6201,-240 461.6201,-236.5001 461.6201,-243.5001"/>
</g>
</g>
</svg>
