<?xml version="1.0" encoding="UTF-8" standalone="no"?>
<!DOCTYPE svg PUBLIC "-//W3C//DTD SVG 1.1//EN"
 "http://www.w3.org/Graphics/SVG/1.1/DTD/svg11.dtd">
<!-- Generated by graphviz version 2.40.1 (20161225.0304)
 -->
<!-- Title: dependencies Pages: 1 -->
<svg width="760pt" height="211pt"
 viewBox="0.00 0.00 760.00 211.00" xmlns="http://www.w3.org/2000/svg" xmlns:xlink="http://www.w3.org/1999/xlink">
<g id="graph0" class="graph" transform="scale(1 1) rotate(0) translate(4 207)">
<title>dependencies</title>
<polygon fill="#ffffff" stroke="transparent" points="-4,4 -4,-207 756,-207 756,4 -4,4"/>
<text text-anchor="start" x="355.0091" y="-42.4" font-family="sans-serif" font-weight="bold" font-size="14.00" fill="#000000">Legend</text>
<polygon fill="#ffffb3" stroke="transparent" points="142,-10 142,-30 162,-30 162,-10 142,-10"/>
<text text-anchor="start" x="165.629" y="-15.4" font-family="sans-serif" font-size="14.00" fill="#000000"> &#160;Declarations</text>
<polygon fill="#8dd3c7" stroke="transparent" points="255,-10 255,-30 275,-30 275,-10 255,-10"/>
<text text-anchor="start" x="278.7251" y="-15.4" font-family="sans-serif" font-size="14.00" fill="#000000"> &#160;Module</text>
<polygon fill="#80b1d3" stroke="transparent" points="341,-10 341,-30 361,-30 361,-10 341,-10"/>
<text text-anchor="start" x="364.7812" y="-15.4" font-family="sans-serif" font-size="14.00" fill="#000000"> &#160;Bootstrap</text>
<polygon fill="#fdb462" stroke="transparent" points="438,-10 438,-30 458,-30 458,-10 438,-10"/>
<text text-anchor="start" x="461.6732" y="-15.4" font-family="sans-serif" font-size="14.00" fill="#000000"> &#160;Providers</text>
<polygon fill="#fb8072" stroke="transparent" points="534,-10 534,-30 554,-30 554,-10 534,-10"/>
<text text-anchor="start" x="557.7258" y="-15.4" font-family="sans-serif" font-size="14.00" fill="#000000"> &#160;Exports</text>
<g id="clust1" class="cluster">
<title>cluster_PendingApprovalWidgetModule</title>
<polygon fill="none" stroke="#000000" stroke-dasharray="1,5" points="8,-70 8,-195 744,-195 744,-70 8,-70"/>
</g>
<g id="clust2" class="cluster">
<title>cluster_PendingApprovalWidgetModule_declarations</title>
<polygon fill="none" stroke="#000000" points="498,-78 498,-130 736,-130 736,-78 498,-78"/>
</g>
<g id="clust4" class="cluster">
<title>cluster_PendingApprovalWidgetModule_imports</title>
<polygon fill="none" stroke="#000000" points="314,-78 314,-130 490,-130 490,-78 314,-78"/>
</g>
<g id="clust7" class="cluster">
<title>cluster_PendingApprovalWidgetModule_providers</title>
<polygon fill="none" stroke="#000000" points="16,-78 16,-130 306,-130 306,-78 16,-78"/>
</g>
<!-- PendingApprovalWidgetComponent -->
<g id="node1" class="node">
<title>PendingApprovalWidgetComponent</title>
<polygon fill="#ffffb3" stroke="#000000" points="727.8032,-122 506.1968,-122 506.1968,-86 727.8032,-86 727.8032,-122"/>
<text text-anchor="middle" x="617" y="-99.8" font-family="Times,serif" font-size="14.00" fill="#000000">PendingApprovalWidgetComponent</text>
</g>
<!-- PendingApprovalWidgetModule -->
<g id="node2" class="node">
<title>PendingApprovalWidgetModule</title>
<polygon fill="#8dd3c7" stroke="#000000" points="501.521,-187 498.521,-191 477.521,-191 474.521,-187 302.479,-187 302.479,-151 501.521,-151 501.521,-187"/>
<text text-anchor="middle" x="402" y="-164.8" font-family="Times,serif" font-size="14.00" fill="#000000">PendingApprovalWidgetModule</text>
</g>
<!-- PendingApprovalWidgetComponent&#45;&gt;PendingApprovalWidgetModule -->
<g id="edge1" class="edge">
<title>PendingApprovalWidgetComponent&#45;&gt;PendingApprovalWidgetModule</title>
<path fill="none" stroke="#000000" d="M506.0278,-104C497.2258,-104 491.6484,-104 491.6484,-104 491.6484,-104 491.6484,-140.8939 491.6484,-140.8939"/>
<polygon fill="#000000" stroke="#000000" points="488.1484,-140.8938 491.6484,-150.8939 495.1484,-140.8939 488.1484,-140.8938"/>
</g>
<!-- WidgetTemplatesModule -->
<g id="node3" class="node">
<title>WidgetTemplatesModule</title>
<polygon fill="#8dd3c7" stroke="#000000" points="481.573,-122 478.573,-126 457.573,-126 454.573,-122 322.427,-122 322.427,-86 481.573,-86 481.573,-122"/>
<text text-anchor="middle" x="402" y="-99.8" font-family="Times,serif" font-size="14.00" fill="#000000">WidgetTemplatesModule</text>
</g>
<!-- WidgetTemplatesModule&#45;&gt;PendingApprovalWidgetModule -->
<g id="edge2" class="edge">
<title>WidgetTemplatesModule&#45;&gt;PendingApprovalWidgetModule</title>
<path fill="none" stroke="#000000" d="M402,-122.1061C402,-122.1061 402,-140.991 402,-140.991"/>
<polygon fill="#000000" stroke="#000000" points="398.5001,-140.9909 402,-150.991 405.5001,-140.991 398.5001,-140.9909"/>
</g>
<!-- PendingApprovalWidgetService -->
<g id="node4" class="node">
<title>PendingApprovalWidgetService</title>
<ellipse fill="#fdb462" stroke="#000000" cx="161" cy="-104" rx="136.5821" ry="18"/>
<text text-anchor="middle" x="161" y="-99.8" font-family="Times,serif" font-size="14.00" fill="#000000">PendingApprovalWidgetService</text>
</g>
<!-- PendingApprovalWidgetService&#45;&gt;PendingApprovalWidgetModule -->
<g id="edge3" class="edge">
<title>PendingApprovalWidgetService&#45;&gt;PendingApprovalWidgetModule</title>
<path fill="none" stroke="#000000" d="M297.5638,-104C306.6929,-104 312.3517,-104 312.3517,-104 312.3517,-104 312.3517,-140.8939 312.3517,-140.8939"/>
<polygon fill="#000000" stroke="#000000" points="308.8517,-140.8938 312.3517,-150.8939 315.8517,-140.8939 308.8517,-140.8938"/>
</g>
</g>
</svg>
