<?xml version="1.0" encoding="UTF-8" standalone="no"?>
<!DOCTYPE svg PUBLIC "-//W3C//DTD SVG 1.1//EN"
 "http://www.w3.org/Graphics/SVG/1.1/DTD/svg11.dtd">
<!-- Generated by graphviz version 2.40.1 (20161225.0304)
 -->
<!-- Title: dependencies Pages: 1 -->
<svg width="518pt" height="284pt"
 viewBox="0.00 0.00 518.00 284.00" xmlns="http://www.w3.org/2000/svg" xmlns:xlink="http://www.w3.org/1999/xlink">
<g id="graph0" class="graph" transform="scale(1 1) rotate(0) translate(4 280)">
<title>dependencies</title>
<polygon fill="#ffffff" stroke="transparent" points="-4,4 -4,-280 514,-280 514,4 -4,4"/>
<text text-anchor="start" x="234.0091" y="-42.4" font-family="sans-serif" font-weight="bold" font-size="14.00" fill="#000000">Legend</text>
<polygon fill="#ffffb3" stroke="transparent" points="21,-10 21,-30 41,-30 41,-10 21,-10"/>
<text text-anchor="start" x="44.629" y="-15.4" font-family="sans-serif" font-size="14.00" fill="#000000"> &#160;Declarations</text>
<polygon fill="#8dd3c7" stroke="transparent" points="134,-10 134,-30 154,-30 154,-10 134,-10"/>
<text text-anchor="start" x="157.7251" y="-15.4" font-family="sans-serif" font-size="14.00" fill="#000000"> &#160;Module</text>
<polygon fill="#80b1d3" stroke="transparent" points="220,-10 220,-30 240,-30 240,-10 220,-10"/>
<text text-anchor="start" x="243.7812" y="-15.4" font-family="sans-serif" font-size="14.00" fill="#000000"> &#160;Bootstrap</text>
<polygon fill="#fdb462" stroke="transparent" points="317,-10 317,-30 337,-30 337,-10 317,-10"/>
<text text-anchor="start" x="340.6732" y="-15.4" font-family="sans-serif" font-size="14.00" fill="#000000"> &#160;Providers</text>
<polygon fill="#fb8072" stroke="transparent" points="413,-10 413,-30 433,-30 433,-10 413,-10"/>
<text text-anchor="start" x="436.7258" y="-15.4" font-family="sans-serif" font-size="14.00" fill="#000000"> &#160;Exports</text>
<g id="clust1" class="cluster">
<title>cluster_DragDropModule</title>
<polygon fill="none" stroke="#000000" stroke-dasharray="1,5" points="8,-70 8,-268 502,-268 502,-70 8,-70"/>
</g>
<g id="clust2" class="cluster">
<title>cluster_DragDropModule_declarations</title>
<polygon fill="none" stroke="#000000" points="22,-78 22,-130 489,-130 489,-78 22,-78"/>
</g>
<g id="clust7" class="cluster">
<title>cluster_DragDropModule_exports</title>
<polygon fill="none" stroke="#000000" points="16,-208 16,-260 494,-260 494,-208 16,-208"/>
</g>
<!-- DragDropDirective -->
<g id="node1" class="node">
<title>DragDropDirective</title>
<polygon fill="#ffffb3" stroke="#000000" points="481.3319,-122 356.6681,-122 356.6681,-86 481.3319,-86 481.3319,-122"/>
<text text-anchor="middle" x="419" y="-99.8" font-family="Times,serif" font-size="14.00" fill="#000000">DragDropDirective</text>
</g>
<!-- DragDropModule -->
<g id="node4" class="node">
<title>DragDropModule</title>
<polygon fill="#8dd3c7" stroke="#000000" points="333.2992,-187 330.2992,-191 309.2992,-191 306.2992,-187 216.7008,-187 216.7008,-151 333.2992,-151 333.2992,-187"/>
<text text-anchor="middle" x="275" y="-164.8" font-family="Times,serif" font-size="14.00" fill="#000000">DragDropModule</text>
</g>
<!-- DragDropDirective&#45;&gt;DragDropModule -->
<g id="edge1" class="edge">
<title>DragDropDirective&#45;&gt;DragDropModule</title>
<path fill="none" stroke="#000000" d="M440.222,-122.0225C440.222,-139.3734 440.222,-163 440.222,-163 440.222,-163 343.2511,-163 343.2511,-163"/>
<polygon fill="#000000" stroke="#000000" points="343.2511,-159.5001 333.2511,-163 343.251,-166.5001 343.2511,-159.5001"/>
</g>
<!-- DraggableDirective -->
<g id="node2" class="node">
<title>DraggableDirective</title>
<polygon fill="#ffffb3" stroke="#000000" points="338.385,-122 211.615,-122 211.615,-86 338.385,-86 338.385,-122"/>
<text text-anchor="middle" x="275" y="-99.8" font-family="Times,serif" font-size="14.00" fill="#000000">DraggableDirective</text>
</g>
<!-- DraggableDirective&#45;&gt;DragDropModule -->
<g id="edge2" class="edge">
<title>DraggableDirective&#45;&gt;DragDropModule</title>
<path fill="none" stroke="#000000" d="M275,-122.1061C275,-122.1061 275,-140.991 275,-140.991"/>
<polygon fill="#000000" stroke="#000000" points="271.5001,-140.9909 275,-150.991 278.5001,-140.991 271.5001,-140.9909"/>
</g>
<!-- DraggableHelperDirective -->
<g id="node3" class="node">
<title>DraggableHelperDirective</title>
<polygon fill="#ffffb3" stroke="#000000" points="194.4721,-122 29.5279,-122 29.5279,-86 194.4721,-86 194.4721,-122"/>
<text text-anchor="middle" x="112" y="-99.8" font-family="Times,serif" font-size="14.00" fill="#000000">DraggableHelperDirective</text>
</g>
<!-- DraggableHelperDirective&#45;&gt;DragDropModule -->
<g id="edge3" class="edge">
<title>DraggableHelperDirective&#45;&gt;DragDropModule</title>
<path fill="none" stroke="#000000" d="M137.9119,-122.0225C137.9119,-139.3734 137.9119,-163 137.9119,-163 137.9119,-163 206.4647,-163 206.4647,-163"/>
<polygon fill="#000000" stroke="#000000" points="206.4647,-166.5001 216.4647,-163 206.4646,-159.5001 206.4647,-166.5001"/>
</g>
<!-- DragDropDirective  -->
<g id="node5" class="node">
<title>DragDropDirective </title>
<polygon fill="#fb8072" stroke="#000000" points="486.3322,-252 357.6678,-252 357.6678,-216 486.3322,-216 486.3322,-252"/>
<text text-anchor="middle" x="422" y="-229.8" font-family="Times,serif" font-size="14.00" fill="#000000">DragDropDirective </text>
</g>
<!-- DragDropModule&#45;&gt;DragDropDirective  -->
<g id="edge4" class="edge">
<title>DragDropModule&#45;&gt;DragDropDirective </title>
<path fill="none" stroke="#000000" stroke-dasharray="5,2" d="M333.3822,-175C365.5513,-175 399.028,-175 399.028,-175 399.028,-175 399.028,-205.9775 399.028,-205.9775"/>
<polygon fill="#000000" stroke="#000000" points="395.5281,-205.9774 399.028,-215.9775 402.5281,-205.9775 395.5281,-205.9774"/>
</g>
<!-- DraggableDirective  -->
<g id="node6" class="node">
<title>DraggableDirective </title>
<polygon fill="#fb8072" stroke="#000000" points="339.8845,-252 210.1155,-252 210.1155,-216 339.8845,-216 339.8845,-252"/>
<text text-anchor="middle" x="275" y="-229.8" font-family="Times,serif" font-size="14.00" fill="#000000">DraggableDirective </text>
</g>
<!-- DragDropModule&#45;&gt;DraggableDirective  -->
<g id="edge5" class="edge">
<title>DragDropModule&#45;&gt;DraggableDirective </title>
<path fill="none" stroke="#000000" stroke-dasharray="5,2" d="M275,-187.1061C275,-187.1061 275,-205.991 275,-205.991"/>
<polygon fill="#000000" stroke="#000000" points="271.5001,-205.9909 275,-215.991 278.5001,-205.991 271.5001,-205.9909"/>
</g>
<!-- DraggableHelperDirective  -->
<g id="node7" class="node">
<title>DraggableHelperDirective </title>
<polygon fill="#fb8072" stroke="#000000" points="191.9714,-252 24.0286,-252 24.0286,-216 191.9714,-216 191.9714,-252"/>
<text text-anchor="middle" x="108" y="-229.8" font-family="Times,serif" font-size="14.00" fill="#000000">DraggableHelperDirective </text>
</g>
<!-- DragDropModule&#45;&gt;DraggableHelperDirective  -->
<g id="edge6" class="edge">
<title>DragDropModule&#45;&gt;DraggableHelperDirective </title>
<path fill="none" stroke="#000000" stroke-dasharray="5,2" d="M216.6064,-175C160.3892,-175 83.8381,-175 83.8381,-175 83.8381,-175 83.8381,-205.9775 83.8381,-205.9775"/>
<polygon fill="#000000" stroke="#000000" points="80.3382,-205.9774 83.8381,-215.9775 87.3382,-205.9775 80.3382,-205.9774"/>
</g>
</g>
</svg>
