<?xml version="1.0" encoding="UTF-8" standalone="no"?>
<!DOCTYPE svg PUBLIC "-//W3C//DTD SVG 1.1//EN"
 "http://www.w3.org/Graphics/SVG/1.1/DTD/svg11.dtd">
<!-- Generated by graphviz version 2.40.1 (20161225.0304)
 -->
<!-- Title: dependencies Pages: 1 -->
<svg width="504pt" height="284pt"
 viewBox="0.00 0.00 504.00 284.00" xmlns="http://www.w3.org/2000/svg" xmlns:xlink="http://www.w3.org/1999/xlink">
<g id="graph0" class="graph" transform="scale(1 1) rotate(0) translate(4 280)">
<title>dependencies</title>
<polygon fill="#ffffff" stroke="transparent" points="-4,4 -4,-280 500,-280 500,4 -4,4"/>
<text text-anchor="start" x="227.0091" y="-42.4" font-family="sans-serif" font-weight="bold" font-size="14.00" fill="#000000">Legend</text>
<polygon fill="#ffffb3" stroke="transparent" points="14,-10 14,-30 34,-30 34,-10 14,-10"/>
<text text-anchor="start" x="37.629" y="-15.4" font-family="sans-serif" font-size="14.00" fill="#000000"> &#160;Declarations</text>
<polygon fill="#8dd3c7" stroke="transparent" points="127,-10 127,-30 147,-30 147,-10 127,-10"/>
<text text-anchor="start" x="150.7251" y="-15.4" font-family="sans-serif" font-size="14.00" fill="#000000"> &#160;Module</text>
<polygon fill="#80b1d3" stroke="transparent" points="213,-10 213,-30 233,-30 233,-10 213,-10"/>
<text text-anchor="start" x="236.7812" y="-15.4" font-family="sans-serif" font-size="14.00" fill="#000000"> &#160;Bootstrap</text>
<polygon fill="#fdb462" stroke="transparent" points="310,-10 310,-30 330,-30 330,-10 310,-10"/>
<text text-anchor="start" x="333.6732" y="-15.4" font-family="sans-serif" font-size="14.00" fill="#000000"> &#160;Providers</text>
<polygon fill="#fb8072" stroke="transparent" points="406,-10 406,-30 426,-30 426,-10 406,-10"/>
<text text-anchor="start" x="429.7258" y="-15.4" font-family="sans-serif" font-size="14.00" fill="#000000"> &#160;Exports</text>
<g id="clust1" class="cluster">
<title>cluster_DomainListModule</title>
<polygon fill="none" stroke="#000000" stroke-dasharray="1,5" points="21,-70 21,-268 475,-268 475,-70 21,-70"/>
</g>
<g id="clust2" class="cluster">
<title>cluster_DomainListModule_declarations</title>
<polygon fill="none" stroke="#000000" points="303,-78 303,-130 467,-130 467,-78 303,-78"/>
</g>
<g id="clust4" class="cluster">
<title>cluster_DomainListModule_imports</title>
<polygon fill="none" stroke="#000000" points="29,-78 29,-130 295,-130 295,-78 29,-78"/>
</g>
<g id="clust5" class="cluster">
<title>cluster_DomainListModule_exports</title>
<polygon fill="none" stroke="#000000" points="134,-208 134,-260 302,-260 302,-208 134,-208"/>
</g>
<!-- DomainListComponent -->
<g id="node1" class="node">
<title>DomainListComponent</title>
<polygon fill="#ffffb3" stroke="#000000" points="459.2134,-122 310.7866,-122 310.7866,-86 459.2134,-86 459.2134,-122"/>
<text text-anchor="middle" x="385" y="-99.8" font-family="Times,serif" font-size="14.00" fill="#000000">DomainListComponent</text>
</g>
<!-- DomainListModule -->
<g id="node2" class="node">
<title>DomainListModule</title>
<polygon fill="#8dd3c7" stroke="#000000" points="281.4313,-187 278.4313,-191 257.4313,-191 254.4313,-187 154.5687,-187 154.5687,-151 281.4313,-151 281.4313,-187"/>
<text text-anchor="middle" x="218" y="-164.8" font-family="Times,serif" font-size="14.00" fill="#000000">DomainListModule</text>
</g>
<!-- DomainListComponent&#45;&gt;DomainListModule -->
<g id="edge1" class="edge">
<title>DomainListComponent&#45;&gt;DomainListModule</title>
<path fill="none" stroke="#000000" d="M385,-122.1061C385,-141.3391 385,-169 385,-169 385,-169 291.6119,-169 291.6119,-169"/>
<polygon fill="#000000" stroke="#000000" points="291.612,-165.5001 281.6119,-169 291.6119,-172.5001 291.612,-165.5001"/>
</g>
<!-- DomainListComponent  -->
<g id="node5" class="node">
<title>DomainListComponent </title>
<polygon fill="#fb8072" stroke="#000000" points="293.7135,-252 142.2865,-252 142.2865,-216 293.7135,-216 293.7135,-252"/>
<text text-anchor="middle" x="218" y="-229.8" font-family="Times,serif" font-size="14.00" fill="#000000">DomainListComponent </text>
</g>
<!-- DomainListModule&#45;&gt;DomainListComponent  -->
<g id="edge4" class="edge">
<title>DomainListModule&#45;&gt;DomainListComponent </title>
<path fill="none" stroke="#000000" stroke-dasharray="5,2" d="M218,-187.1061C218,-187.1061 218,-205.991 218,-205.991"/>
<polygon fill="#000000" stroke="#000000" points="214.5001,-205.9909 218,-215.991 221.5001,-205.991 214.5001,-205.9909"/>
</g>
<!-- ListNavigatorModule -->
<g id="node3" class="node">
<title>ListNavigatorModule</title>
<polygon fill="#8dd3c7" stroke="#000000" points="286.8061,-122 283.8061,-126 262.8061,-126 259.8061,-122 149.1939,-122 149.1939,-86 286.8061,-86 286.8061,-122"/>
<text text-anchor="middle" x="218" y="-99.8" font-family="Times,serif" font-size="14.00" fill="#000000">ListNavigatorModule</text>
</g>
<!-- ListNavigatorModule&#45;&gt;DomainListModule -->
<g id="edge2" class="edge">
<title>ListNavigatorModule&#45;&gt;DomainListModule</title>
<path fill="none" stroke="#000000" d="M218,-122.1061C218,-122.1061 218,-140.991 218,-140.991"/>
<polygon fill="#000000" stroke="#000000" points="214.5001,-140.9909 218,-150.991 221.5001,-140.991 214.5001,-140.9909"/>
</g>
<!-- PinToModule -->
<g id="node4" class="node">
<title>PinToModule</title>
<polygon fill="#8dd3c7" stroke="#000000" points="130.7759,-122 127.7759,-126 106.7759,-126 103.7759,-122 37.2241,-122 37.2241,-86 130.7759,-86 130.7759,-122"/>
<text text-anchor="middle" x="84" y="-99.8" font-family="Times,serif" font-size="14.00" fill="#000000">PinToModule</text>
</g>
<!-- PinToModule&#45;&gt;DomainListModule -->
<g id="edge3" class="edge">
<title>PinToModule&#45;&gt;DomainListModule</title>
<path fill="none" stroke="#000000" d="M84,-122.1061C84,-141.3391 84,-169 84,-169 84,-169 144.5317,-169 144.5317,-169"/>
<polygon fill="#000000" stroke="#000000" points="144.5318,-172.5001 154.5317,-169 144.5317,-165.5001 144.5318,-172.5001"/>
</g>
</g>
</svg>
