<?xml version="1.0" encoding="UTF-8" standalone="no"?>
<!DOCTYPE svg PUBLIC "-//W3C//DTD SVG 1.1//EN"
 "http://www.w3.org/Graphics/SVG/1.1/DTD/svg11.dtd">
<!-- Generated by graphviz version 2.40.1 (20161225.0304)
 -->
<!-- Title: dependencies Pages: 1 -->
<svg width="5412pt" height="284pt"
 viewBox="0.00 0.00 5412.00 284.00" xmlns="http://www.w3.org/2000/svg" xmlns:xlink="http://www.w3.org/1999/xlink">
<g id="graph0" class="graph" transform="scale(1 1) rotate(0) translate(4 280)">
<title>dependencies</title>
<polygon fill="#ffffff" stroke="transparent" points="-4,4 -4,-280 5408,-280 5408,4 -4,4"/>
<text text-anchor="start" x="2681.0091" y="-42.4" font-family="sans-serif" font-weight="bold" font-size="14.00" fill="#000000">Legend</text>
<polygon fill="#ffffb3" stroke="transparent" points="2468,-10 2468,-30 2488,-30 2488,-10 2468,-10"/>
<text text-anchor="start" x="2491.629" y="-15.4" font-family="sans-serif" font-size="14.00" fill="#000000"> &#160;Declarations</text>
<polygon fill="#8dd3c7" stroke="transparent" points="2581,-10 2581,-30 2601,-30 2601,-10 2581,-10"/>
<text text-anchor="start" x="2604.7251" y="-15.4" font-family="sans-serif" font-size="14.00" fill="#000000"> &#160;Module</text>
<polygon fill="#80b1d3" stroke="transparent" points="2667,-10 2667,-30 2687,-30 2687,-10 2667,-10"/>
<text text-anchor="start" x="2690.7812" y="-15.4" font-family="sans-serif" font-size="14.00" fill="#000000"> &#160;Bootstrap</text>
<polygon fill="#fdb462" stroke="transparent" points="2764,-10 2764,-30 2784,-30 2784,-10 2764,-10"/>
<text text-anchor="start" x="2787.6732" y="-15.4" font-family="sans-serif" font-size="14.00" fill="#000000"> &#160;Providers</text>
<polygon fill="#fb8072" stroke="transparent" points="2860,-10 2860,-30 2880,-30 2880,-10 2860,-10"/>
<text text-anchor="start" x="2883.7258" y="-15.4" font-family="sans-serif" font-size="14.00" fill="#000000"> &#160;Exports</text>
<g id="clust1" class="cluster">
<title>cluster_ChartWidgetModule</title>
<polygon fill="none" stroke="#000000" stroke-dasharray="1,5" points="8,-70 8,-268 5396,-268 5396,-70 8,-70"/>
</g>
<g id="clust2" class="cluster">
<title>cluster_ChartWidgetModule_declarations</title>
<polygon fill="none" stroke="#000000" points="3817,-78 3817,-130 5388,-130 5388,-78 3817,-78"/>
</g>
<g id="clust11" class="cluster">
<title>cluster_ChartWidgetModule_imports</title>
<polygon fill="none" stroke="#000000" points="3499,-78 3499,-130 3809,-130 3809,-78 3499,-78"/>
</g>
<g id="clust12" class="cluster">
<title>cluster_ChartWidgetModule_exports</title>
<polygon fill="none" stroke="#000000" points="2161,-208 2161,-260 3761,-260 3761,-208 2161,-208"/>
</g>
<g id="clust14" class="cluster">
<title>cluster_ChartWidgetModule_providers</title>
<polygon fill="none" stroke="#000000" points="16,-78 16,-130 3491,-130 3491,-78 16,-78"/>
</g>
<!-- ChartDetailsWrapperComponent -->
<g id="node1" class="node">
<title>ChartDetailsWrapperComponent</title>
<polygon fill="#ffffb3" stroke="#000000" points="5379.552,-122 5178.448,-122 5178.448,-86 5379.552,-86 5379.552,-122"/>
<text text-anchor="middle" x="5279" y="-99.8" font-family="Times,serif" font-size="14.00" fill="#000000">ChartDetailsWrapperComponent</text>
</g>
<!-- ChartWidgetModule -->
<g id="node9" class="node">
<title>ChartWidgetModule</title>
<polygon fill="#8dd3c7" stroke="#000000" points="3026.8627,-187 3023.8627,-191 3002.8627,-191 2999.8627,-187 2895.1373,-187 2895.1373,-151 3026.8627,-151 3026.8627,-187"/>
<text text-anchor="middle" x="2961" y="-164.8" font-family="Times,serif" font-size="14.00" fill="#000000">ChartWidgetModule</text>
</g>
<!-- ChartDetailsWrapperComponent&#45;&gt;ChartWidgetModule -->
<g id="edge1" class="edge">
<title>ChartDetailsWrapperComponent&#45;&gt;ChartWidgetModule</title>
<path fill="none" stroke="#000000" d="M5279,-122.2921C5279,-144.2057 5279,-178 5279,-178 5279,-178 3036.9469,-178 3036.9469,-178"/>
<polygon fill="#000000" stroke="#000000" points="3036.9469,-174.5001 3026.9469,-178 3036.9468,-181.5001 3036.9469,-174.5001"/>
</g>
<!-- ChartWidgetComponent -->
<g id="node2" class="node">
<title>ChartWidgetComponent</title>
<polygon fill="#ffffb3" stroke="#000000" points="5160.6456,-122 5007.3544,-122 5007.3544,-86 5160.6456,-86 5160.6456,-122"/>
<text text-anchor="middle" x="5084" y="-99.8" font-family="Times,serif" font-size="14.00" fill="#000000">ChartWidgetComponent</text>
</g>
<!-- ChartWidgetComponent&#45;&gt;ChartWidgetModule -->
<g id="edge2" class="edge">
<title>ChartWidgetComponent&#45;&gt;ChartWidgetModule</title>
<path fill="none" stroke="#000000" d="M5084,-122.2843C5084,-143.3211 5084,-175 5084,-175 5084,-175 3036.8652,-175 3036.8652,-175"/>
<polygon fill="#000000" stroke="#000000" points="3036.8652,-171.5001 3026.8652,-175 3036.8651,-178.5001 3036.8652,-171.5001"/>
</g>
<!-- GridChartWidgetComponent -->
<g id="node3" class="node">
<title>GridChartWidgetComponent</title>
<polygon fill="#ffffb3" stroke="#000000" points="4989.8033,-122 4810.1967,-122 4810.1967,-86 4989.8033,-86 4989.8033,-122"/>
<text text-anchor="middle" x="4900" y="-99.8" font-family="Times,serif" font-size="14.00" fill="#000000">GridChartWidgetComponent</text>
</g>
<!-- GridChartWidgetComponent&#45;&gt;ChartWidgetModule -->
<g id="edge3" class="edge">
<title>GridChartWidgetComponent&#45;&gt;ChartWidgetModule</title>
<path fill="none" stroke="#000000" d="M4900,-122.1289C4900,-142.5724 4900,-173 4900,-173 4900,-173 3036.9042,-173 3036.9042,-173"/>
<polygon fill="#000000" stroke="#000000" points="3036.9042,-169.5001 3026.9042,-173 3036.9041,-176.5001 3036.9042,-169.5001"/>
</g>
<!-- LagChartWidgetComponent -->
<g id="node4" class="node">
<title>LagChartWidgetComponent</title>
<polygon fill="#ffffb3" stroke="#000000" points="4792.9129,-122 4617.0871,-122 4617.0871,-86 4792.9129,-86 4792.9129,-122"/>
<text text-anchor="middle" x="4705" y="-99.8" font-family="Times,serif" font-size="14.00" fill="#000000">LagChartWidgetComponent</text>
</g>
<!-- LagChartWidgetComponent&#45;&gt;ChartWidgetModule -->
<g id="edge4" class="edge">
<title>LagChartWidgetComponent&#45;&gt;ChartWidgetModule</title>
<path fill="none" stroke="#000000" d="M4705,-122.308C4705,-142.1455 4705,-171 4705,-171 4705,-171 3036.9732,-171 3036.9732,-171"/>
<polygon fill="#000000" stroke="#000000" points="3036.9732,-167.5001 3026.9732,-171 3036.9732,-174.5001 3036.9732,-167.5001"/>
</g>
<!-- LinearGaugeWidgetComponent -->
<g id="node5" class="node">
<title>LinearGaugeWidgetComponent</title>
<polygon fill="#ffffb3" stroke="#000000" points="4598.612,-122 4403.388,-122 4403.388,-86 4598.612,-86 4598.612,-122"/>
<text text-anchor="middle" x="4501" y="-99.8" font-family="Times,serif" font-size="14.00" fill="#000000">LinearGaugeWidgetComponent</text>
</g>
<!-- LinearGaugeWidgetComponent&#45;&gt;ChartWidgetModule -->
<g id="edge5" class="edge">
<title>LinearGaugeWidgetComponent&#45;&gt;ChartWidgetModule</title>
<path fill="none" stroke="#000000" d="M4501,-122.1686C4501,-141.0898 4501,-168 4501,-168 4501,-168 3037.1719,-168 3037.1719,-168"/>
<polygon fill="#000000" stroke="#000000" points="3037.1719,-164.5001 3027.1719,-168 3037.1718,-171.5001 3037.1719,-164.5001"/>
</g>
<!-- PersonalizeChartComponent -->
<g id="node6" class="node">
<title>PersonalizeChartComponent</title>
<polygon fill="#ffffb3" stroke="#000000" points="4385.4622,-122 4208.5378,-122 4208.5378,-86 4385.4622,-86 4385.4622,-122"/>
<text text-anchor="middle" x="4297" y="-99.8" font-family="Times,serif" font-size="14.00" fill="#000000">PersonalizeChartComponent</text>
</g>
<!-- PersonalizeChartComponent&#45;&gt;ChartWidgetModule -->
<g id="edge6" class="edge">
<title>PersonalizeChartComponent&#45;&gt;ChartWidgetModule</title>
<path fill="none" stroke="#000000" d="M4297,-122.2667C4297,-140.5552 4297,-166 4297,-166 4297,-166 3037.2524,-166 3037.2524,-166"/>
<polygon fill="#000000" stroke="#000000" points="3037.2525,-162.5001 3027.2524,-166 3037.2524,-169.5001 3037.2525,-162.5001"/>
</g>
<!-- RadialGaugeWidgetComponent -->
<g id="node7" class="node">
<title>RadialGaugeWidgetComponent</title>
<polygon fill="#ffffb3" stroke="#000000" points="4190.626,-122 3995.374,-122 3995.374,-86 4190.626,-86 4190.626,-122"/>
<text text-anchor="middle" x="4093" y="-99.8" font-family="Times,serif" font-size="14.00" fill="#000000">RadialGaugeWidgetComponent</text>
</g>
<!-- RadialGaugeWidgetComponent&#45;&gt;ChartWidgetModule -->
<g id="edge7" class="edge">
<title>RadialGaugeWidgetComponent&#45;&gt;ChartWidgetModule</title>
<path fill="none" stroke="#000000" d="M4093,-122.0225C4093,-139.3734 4093,-163 4093,-163 4093,-163 3037.1692,-163 3037.1692,-163"/>
<polygon fill="#000000" stroke="#000000" points="3037.1693,-159.5001 3027.1692,-163 3037.1692,-166.5001 3037.1693,-159.5001"/>
</g>
<!-- SimpleChartComponent -->
<g id="node8" class="node">
<title>SimpleChartComponent</title>
<polygon fill="#ffffb3" stroke="#000000" points="3977.1038,-122 3824.8962,-122 3824.8962,-86 3977.1038,-86 3977.1038,-122"/>
<text text-anchor="middle" x="3901" y="-99.8" font-family="Times,serif" font-size="14.00" fill="#000000">SimpleChartComponent</text>
</g>
<!-- SimpleChartComponent&#45;&gt;ChartWidgetModule -->
<g id="edge8" class="edge">
<title>SimpleChartComponent&#45;&gt;ChartWidgetModule</title>
<path fill="none" stroke="#000000" d="M3901,-122.0352C3901,-138.7344 3901,-161 3901,-161 3901,-161 3037.099,-161 3037.099,-161"/>
<polygon fill="#000000" stroke="#000000" points="3037.099,-157.5001 3027.099,-161 3037.0989,-164.5001 3037.099,-157.5001"/>
</g>
<!-- ChartDetailsWrapperComponent  -->
<g id="node12" class="node">
<title>ChartDetailsWrapperComponent </title>
<polygon fill="#fb8072" stroke="#000000" points="3753.0525,-252 3548.9475,-252 3548.9475,-216 3753.0525,-216 3753.0525,-252"/>
<text text-anchor="middle" x="3651" y="-229.8" font-family="Times,serif" font-size="14.00" fill="#000000">ChartDetailsWrapperComponent </text>
</g>
<!-- ChartWidgetModule&#45;&gt;ChartDetailsWrapperComponent  -->
<g id="edge11" class="edge">
<title>ChartWidgetModule&#45;&gt;ChartDetailsWrapperComponent </title>
<path fill="none" stroke="#000000" stroke-dasharray="5,2" d="M3027.162,-180C3191.9662,-180 3607.6303,-180 3607.6303,-180 3607.6303,-180 3607.6303,-205.7181 3607.6303,-205.7181"/>
<polygon fill="#000000" stroke="#000000" points="3604.1303,-205.718 3607.6303,-215.7181 3611.1303,-205.7181 3604.1303,-205.718"/>
</g>
<!-- ChartWidgetComponent  -->
<g id="node13" class="node">
<title>ChartWidgetComponent </title>
<polygon fill="#fb8072" stroke="#000000" points="3530.6453,-252 3373.3547,-252 3373.3547,-216 3530.6453,-216 3530.6453,-252"/>
<text text-anchor="middle" x="3452" y="-229.8" font-family="Times,serif" font-size="14.00" fill="#000000">ChartWidgetComponent </text>
</g>
<!-- ChartWidgetModule&#45;&gt;ChartWidgetComponent  -->
<g id="edge12" class="edge">
<title>ChartWidgetModule&#45;&gt;ChartWidgetComponent </title>
<path fill="none" stroke="#000000" stroke-dasharray="5,2" d="M3026.9365,-183C3155.6991,-183 3428.1225,-183 3428.1225,-183 3428.1225,-183 3428.1225,-205.8757 3428.1225,-205.8757"/>
<polygon fill="#000000" stroke="#000000" points="3424.6226,-205.8757 3428.1225,-215.8757 3431.6226,-205.8757 3424.6226,-205.8757"/>
</g>
<!-- GridChartWidgetComponent  -->
<g id="node14" class="node">
<title>GridChartWidgetComponent </title>
<polygon fill="#fb8072" stroke="#000000" points="3355.3031,-252 3172.6969,-252 3172.6969,-216 3355.3031,-216 3355.3031,-252"/>
<text text-anchor="middle" x="3264" y="-229.8" font-family="Times,serif" font-size="14.00" fill="#000000">GridChartWidgetComponent </text>
</g>
<!-- ChartWidgetModule&#45;&gt;GridChartWidgetComponent  -->
<g id="edge13" class="edge">
<title>ChartWidgetModule&#45;&gt;GridChartWidgetComponent </title>
<path fill="none" stroke="#000000" stroke-dasharray="5,2" d="M3026.8787,-185C3097.5551,-185 3199.7763,-185 3199.7763,-185 3199.7763,-185 3199.7763,-205.7542 3199.7763,-205.7542"/>
<polygon fill="#000000" stroke="#000000" points="3196.2764,-205.7542 3199.7763,-215.7542 3203.2764,-205.7542 3196.2764,-205.7542"/>
</g>
<!-- LagChartWidgetComponent  -->
<g id="node15" class="node">
<title>LagChartWidgetComponent </title>
<polygon fill="#fb8072" stroke="#000000" points="3154.4124,-252 2975.5876,-252 2975.5876,-216 3154.4124,-216 3154.4124,-252"/>
<text text-anchor="middle" x="3065" y="-229.8" font-family="Times,serif" font-size="14.00" fill="#000000">LagChartWidgetComponent </text>
</g>
<!-- ChartWidgetModule&#45;&gt;LagChartWidgetComponent  -->
<g id="edge14" class="edge">
<title>ChartWidgetModule&#45;&gt;LagChartWidgetComponent </title>
<path fill="none" stroke="#000000" stroke-dasharray="5,2" d="M3001.2376,-187.1061C3001.2376,-187.1061 3001.2376,-205.991 3001.2376,-205.991"/>
<polygon fill="#000000" stroke="#000000" points="2997.7376,-205.9909 3001.2376,-215.991 3004.7376,-205.991 2997.7376,-205.9909"/>
</g>
<!-- LinearGaugeWidgetComponent  -->
<g id="node16" class="node">
<title>LinearGaugeWidgetComponent </title>
<polygon fill="#fb8072" stroke="#000000" points="2957.6116,-252 2758.3884,-252 2758.3884,-216 2957.6116,-216 2957.6116,-252"/>
<text text-anchor="middle" x="2858" y="-229.8" font-family="Times,serif" font-size="14.00" fill="#000000">LinearGaugeWidgetComponent </text>
</g>
<!-- ChartWidgetModule&#45;&gt;LinearGaugeWidgetComponent  -->
<g id="edge15" class="edge">
<title>ChartWidgetModule&#45;&gt;LinearGaugeWidgetComponent </title>
<path fill="none" stroke="#000000" stroke-dasharray="5,2" d="M2926.3123,-187.1061C2926.3123,-187.1061 2926.3123,-205.991 2926.3123,-205.991"/>
<polygon fill="#000000" stroke="#000000" points="2922.8123,-205.9909 2926.3123,-215.991 2929.8123,-205.991 2922.8123,-205.9909"/>
</g>
<!-- PersonalizeChartComponent  -->
<g id="node17" class="node">
<title>PersonalizeChartComponent </title>
<polygon fill="#fb8072" stroke="#000000" points="2740.4628,-252 2559.5372,-252 2559.5372,-216 2740.4628,-216 2740.4628,-252"/>
<text text-anchor="middle" x="2650" y="-229.8" font-family="Times,serif" font-size="14.00" fill="#000000">PersonalizeChartComponent </text>
</g>
<!-- ChartWidgetModule&#45;&gt;PersonalizeChartComponent  -->
<g id="edge16" class="edge">
<title>ChartWidgetModule&#45;&gt;PersonalizeChartComponent </title>
<path fill="none" stroke="#000000" stroke-dasharray="5,2" d="M2894.9262,-185C2822.6166,-185 2716.8379,-185 2716.8379,-185 2716.8379,-185 2716.8379,-205.7542 2716.8379,-205.7542"/>
<polygon fill="#000000" stroke="#000000" points="2713.338,-205.7542 2716.8379,-215.7542 2720.338,-205.7542 2713.338,-205.7542"/>
</g>
<!-- RadialGaugeWidgetComponent  -->
<g id="node18" class="node">
<title>RadialGaugeWidgetComponent </title>
<polygon fill="#fb8072" stroke="#000000" points="2541.6256,-252 2342.3744,-252 2342.3744,-216 2541.6256,-216 2541.6256,-252"/>
<text text-anchor="middle" x="2442" y="-229.8" font-family="Times,serif" font-size="14.00" fill="#000000">RadialGaugeWidgetComponent </text>
</g>
<!-- ChartWidgetModule&#45;&gt;RadialGaugeWidgetComponent  -->
<g id="edge17" class="edge">
<title>ChartWidgetModule&#45;&gt;RadialGaugeWidgetComponent </title>
<path fill="none" stroke="#000000" stroke-dasharray="5,2" d="M2894.9097,-183C2773.878,-183 2528.9443,-183 2528.9443,-183 2528.9443,-183 2528.9443,-205.8757 2528.9443,-205.8757"/>
<polygon fill="#000000" stroke="#000000" points="2525.4444,-205.8757 2528.9443,-215.8757 2532.4444,-205.8757 2525.4444,-205.8757"/>
</g>
<!-- SimpleChartComponent  -->
<g id="node19" class="node">
<title>SimpleChartComponent </title>
<polygon fill="#fb8072" stroke="#000000" points="2324.6043,-252 2169.3957,-252 2169.3957,-216 2324.6043,-216 2324.6043,-252"/>
<text text-anchor="middle" x="2247" y="-229.8" font-family="Times,serif" font-size="14.00" fill="#000000">SimpleChartComponent </text>
</g>
<!-- ChartWidgetModule&#45;&gt;SimpleChartComponent  -->
<g id="edge18" class="edge">
<title>ChartWidgetModule&#45;&gt;SimpleChartComponent </title>
<path fill="none" stroke="#000000" stroke-dasharray="5,2" d="M2894.842,-180C2726.7293,-180 2296.3607,-180 2296.3607,-180 2296.3607,-180 2296.3607,-205.7181 2296.3607,-205.7181"/>
<polygon fill="#000000" stroke="#000000" points="2292.8608,-205.718 2296.3607,-215.7181 2299.8608,-205.7181 2292.8608,-205.718"/>
</g>
<!-- FilterDataModule -->
<g id="node10" class="node">
<title>FilterDataModule</title>
<polygon fill="#8dd3c7" stroke="#000000" points="3801.3062,-122 3798.3062,-126 3777.3062,-126 3774.3062,-122 3684.6938,-122 3684.6938,-86 3801.3062,-86 3801.3062,-122"/>
<text text-anchor="middle" x="3743" y="-99.8" font-family="Times,serif" font-size="14.00" fill="#000000">FilterDataModule</text>
</g>
<!-- FilterDataModule&#45;&gt;ChartWidgetModule -->
<g id="edge9" class="edge">
<title>FilterDataModule&#45;&gt;ChartWidgetModule</title>
<path fill="none" stroke="#000000" d="M3719.0616,-122.0091C3719.0616,-138.0494 3719.0616,-159 3719.0616,-159 3719.0616,-159 3036.9469,-159 3036.9469,-159"/>
<polygon fill="#000000" stroke="#000000" points="3036.9469,-155.5001 3026.9469,-159 3036.9468,-162.5001 3036.9469,-155.5001"/>
</g>
<!-- WidgetTemplatesModule -->
<g id="node11" class="node">
<title>WidgetTemplatesModule</title>
<polygon fill="#8dd3c7" stroke="#000000" points="3666.573,-122 3663.573,-126 3642.573,-126 3639.573,-122 3507.427,-122 3507.427,-86 3666.573,-86 3666.573,-122"/>
<text text-anchor="middle" x="3587" y="-99.8" font-family="Times,serif" font-size="14.00" fill="#000000">WidgetTemplatesModule</text>
</g>
<!-- WidgetTemplatesModule&#45;&gt;ChartWidgetModule -->
<g id="edge10" class="edge">
<title>WidgetTemplatesModule&#45;&gt;ChartWidgetModule</title>
<path fill="none" stroke="#000000" d="M3519.0181,-122.1871C3519.0181,-137.1824 3519.0181,-156 3519.0181,-156 3519.0181,-156 3036.9278,-156 3036.9278,-156"/>
<polygon fill="#000000" stroke="#000000" points="3036.9278,-152.5001 3026.9278,-156 3036.9277,-159.5001 3036.9278,-152.5001"/>
</g>
<!-- AreaChartConverterService -->
<g id="node20" class="node">
<title>AreaChartConverterService</title>
<ellipse fill="#fdb462" stroke="#000000" cx="3364" cy="-104" rx="118.6356" ry="18"/>
<text text-anchor="middle" x="3364" y="-99.8" font-family="Times,serif" font-size="14.00" fill="#000000">AreaChartConverterService</text>
</g>
<!-- AreaChartConverterService&#45;&gt;ChartWidgetModule -->
<g id="edge19" class="edge">
<title>AreaChartConverterService&#45;&gt;ChartWidgetModule</title>
<path fill="none" stroke="#000000" d="M3300.2919,-119.2733C3300.2919,-133.9774 3300.2919,-154 3300.2919,-154 3300.2919,-154 3037.2243,-154 3037.2243,-154"/>
<polygon fill="#000000" stroke="#000000" points="3037.2244,-150.5001 3027.2243,-154 3037.2243,-157.5001 3037.2244,-150.5001"/>
</g>
<!-- BubbleChartConverterService -->
<g id="node21" class="node">
<title>BubbleChartConverterService</title>
<ellipse fill="#fdb462" stroke="#000000" cx="3099" cy="-104" rx="127.9082" ry="18"/>
<text text-anchor="middle" x="3099" y="-99.8" font-family="Times,serif" font-size="14.00" fill="#000000">BubbleChartConverterService</text>
</g>
<!-- BubbleChartConverterService&#45;&gt;ChartWidgetModule -->
<g id="edge20" class="edge">
<title>BubbleChartConverterService&#45;&gt;ChartWidgetModule</title>
<path fill="none" stroke="#000000" d="M2998.9886,-115.3221C2998.9886,-115.3221 2998.9886,-140.9424 2998.9886,-140.9424"/>
<polygon fill="#000000" stroke="#000000" points="2995.4887,-140.9424 2998.9886,-150.9424 3002.4887,-140.9425 2995.4887,-140.9424"/>
</g>
<!-- ChartConverterFactoryService -->
<g id="node22" class="node">
<title>ChartConverterFactoryService</title>
<ellipse fill="#fdb462" stroke="#000000" cx="2823" cy="-104" rx="129.6105" ry="18"/>
<text text-anchor="middle" x="2823" y="-99.8" font-family="Times,serif" font-size="14.00" fill="#000000">ChartConverterFactoryService</text>
</g>
<!-- ChartConverterFactoryService&#45;&gt;ChartWidgetModule -->
<g id="edge21" class="edge">
<title>ChartConverterFactoryService&#45;&gt;ChartWidgetModule</title>
<path fill="none" stroke="#000000" d="M2923.812,-115.3221C2923.812,-115.3221 2923.812,-140.9424 2923.812,-140.9424"/>
<polygon fill="#000000" stroke="#000000" points="2920.3121,-140.9424 2923.812,-150.9424 2927.3121,-140.9425 2920.3121,-140.9424"/>
</g>
<!-- ChartDataService -->
<g id="node23" class="node">
<title>ChartDataService</title>
<ellipse fill="#fdb462" stroke="#000000" cx="2596" cy="-104" rx="79.8488" ry="18"/>
<text text-anchor="middle" x="2596" y="-99.8" font-family="Times,serif" font-size="14.00" fill="#000000">ChartDataService</text>
</g>
<!-- ChartDataService&#45;&gt;ChartWidgetModule -->
<g id="edge22" class="edge">
<title>ChartDataService&#45;&gt;ChartWidgetModule</title>
<path fill="none" stroke="#000000" d="M2617.7216,-121.4876C2617.7216,-135.9061 2617.7216,-154 2617.7216,-154 2617.7216,-154 2884.8125,-154 2884.8125,-154"/>
<polygon fill="#000000" stroke="#000000" points="2884.8125,-157.5001 2894.8125,-154 2884.8124,-150.5001 2884.8125,-157.5001"/>
</g>
<!-- ChartDetailsExportService -->
<g id="node24" class="node">
<title>ChartDetailsExportService</title>
<ellipse fill="#fdb462" stroke="#000000" cx="2383" cy="-104" rx="115.1609" ry="18"/>
<text text-anchor="middle" x="2383" y="-99.8" font-family="Times,serif" font-size="14.00" fill="#000000">ChartDetailsExportService</text>
</g>
<!-- ChartDetailsExportService&#45;&gt;ChartWidgetModule -->
<g id="edge23" class="edge">
<title>ChartDetailsExportService&#45;&gt;ChartWidgetModule</title>
<path fill="none" stroke="#000000" d="M2420.2588,-121.3152C2420.2588,-136.4421 2420.2588,-156 2420.2588,-156 2420.2588,-156 2884.965,-156 2884.965,-156"/>
<polygon fill="#000000" stroke="#000000" points="2884.9651,-159.5001 2894.965,-156 2884.965,-152.5001 2884.9651,-159.5001"/>
</g>
<!-- ChartLoaderService -->
<g id="node25" class="node">
<title>ChartLoaderService</title>
<ellipse fill="#fdb462" stroke="#000000" cx="2161" cy="-104" rx="88.5812" ry="18"/>
<text text-anchor="middle" x="2161" y="-99.8" font-family="Times,serif" font-size="14.00" fill="#000000">ChartLoaderService</text>
</g>
<!-- ChartLoaderService&#45;&gt;ChartWidgetModule -->
<g id="edge24" class="edge">
<title>ChartLoaderService&#45;&gt;ChartWidgetModule</title>
<path fill="none" stroke="#000000" d="M2209.4942,-119.3206C2209.4942,-135.5946 2209.4942,-159 2209.4942,-159 2209.4942,-159 2884.9675,-159 2884.9675,-159"/>
<polygon fill="#000000" stroke="#000000" points="2884.9676,-162.5001 2894.9675,-159 2884.9675,-155.5001 2884.9676,-162.5001"/>
</g>
<!-- ChartSeriesDetailsService -->
<g id="node26" class="node">
<title>ChartSeriesDetailsService</title>
<ellipse fill="#fdb462" stroke="#000000" cx="1942" cy="-104" rx="112.2859" ry="18"/>
<text text-anchor="middle" x="1942" y="-99.8" font-family="Times,serif" font-size="14.00" fill="#000000">ChartSeriesDetailsService</text>
</g>
<!-- ChartSeriesDetailsService&#45;&gt;ChartWidgetModule -->
<g id="edge25" class="edge">
<title>ChartSeriesDetailsService&#45;&gt;ChartWidgetModule</title>
<path fill="none" stroke="#000000" d="M1942,-122.0352C1942,-138.7344 1942,-161 1942,-161 1942,-161 2884.9257,-161 2884.9257,-161"/>
<polygon fill="#000000" stroke="#000000" points="2884.9257,-164.5001 2894.9257,-161 2884.9257,-157.5001 2884.9257,-164.5001"/>
</g>
<!-- DefaultConverterService -->
<g id="node27" class="node">
<title>DefaultConverterService</title>
<ellipse fill="#fdb462" stroke="#000000" cx="1704" cy="-104" rx="107.6192" ry="18"/>
<text text-anchor="middle" x="1704" y="-99.8" font-family="Times,serif" font-size="14.00" fill="#000000">DefaultConverterService</text>
</g>
<!-- DefaultConverterService&#45;&gt;ChartWidgetModule -->
<g id="edge26" class="edge">
<title>DefaultConverterService&#45;&gt;ChartWidgetModule</title>
<path fill="none" stroke="#000000" d="M1704,-122.0225C1704,-139.3734 1704,-163 1704,-163 1704,-163 2884.7475,-163 2884.7475,-163"/>
<polygon fill="#000000" stroke="#000000" points="2884.7476,-166.5001 2894.7475,-163 2884.7475,-159.5001 2884.7476,-166.5001"/>
</g>
<!-- GridToFolderOpenerService -->
<g id="node28" class="node">
<title>GridToFolderOpenerService</title>
<ellipse fill="#fdb462" stroke="#000000" cx="1456" cy="-104" rx="122.0901" ry="18"/>
<text text-anchor="middle" x="1456" y="-99.8" font-family="Times,serif" font-size="14.00" fill="#000000">GridToFolderOpenerService</text>
</g>
<!-- GridToFolderOpenerService&#45;&gt;ChartWidgetModule -->
<g id="edge27" class="edge">
<title>GridToFolderOpenerService&#45;&gt;ChartWidgetModule</title>
<path fill="none" stroke="#000000" d="M1456,-122.2667C1456,-140.5552 1456,-166 1456,-166 1456,-166 2884.878,-166 2884.878,-166"/>
<polygon fill="#000000" stroke="#000000" points="2884.878,-169.5001 2894.878,-166 2884.878,-162.5001 2884.878,-169.5001"/>
</g>
<!-- LineChartConverterService -->
<g id="node29" class="node">
<title>LineChartConverterService</title>
<ellipse fill="#fdb462" stroke="#000000" cx="1198" cy="-104" rx="117.5132" ry="18"/>
<text text-anchor="middle" x="1198" y="-99.8" font-family="Times,serif" font-size="14.00" fill="#000000">LineChartConverterService</text>
</g>
<!-- LineChartConverterService&#45;&gt;ChartWidgetModule -->
<g id="edge28" class="edge">
<title>LineChartConverterService&#45;&gt;ChartWidgetModule</title>
<path fill="none" stroke="#000000" d="M1198,-122.1686C1198,-141.0898 1198,-168 1198,-168 1198,-168 2885.1059,-168 2885.1059,-168"/>
<polygon fill="#000000" stroke="#000000" points="2885.106,-171.5001 2895.1059,-168 2885.1059,-164.5001 2885.106,-171.5001"/>
</g>
<!-- LinearGaugeConverterService -->
<g id="node30" class="node">
<title>LinearGaugeConverterService</title>
<ellipse fill="#fdb462" stroke="#000000" cx="933" cy="-104" rx="129.0115" ry="18"/>
<text text-anchor="middle" x="933" y="-99.8" font-family="Times,serif" font-size="14.00" fill="#000000">LinearGaugeConverterService</text>
</g>
<!-- LinearGaugeConverterService&#45;&gt;ChartWidgetModule -->
<g id="edge29" class="edge">
<title>LinearGaugeConverterService&#45;&gt;ChartWidgetModule</title>
<path fill="none" stroke="#000000" d="M933,-122.308C933,-142.1455 933,-171 933,-171 933,-171 2884.9646,-171 2884.9646,-171"/>
<polygon fill="#000000" stroke="#000000" points="2884.9647,-174.5001 2894.9646,-171 2884.9646,-167.5001 2884.9647,-174.5001"/>
</g>
<!-- MultiChartConverterService -->
<g id="node31" class="node">
<title>MultiChartConverterService</title>
<ellipse fill="#fdb462" stroke="#000000" cx="664" cy="-104" rx="121.5432" ry="18"/>
<text text-anchor="middle" x="664" y="-99.8" font-family="Times,serif" font-size="14.00" fill="#000000">MultiChartConverterService</text>
</g>
<!-- MultiChartConverterService&#45;&gt;ChartWidgetModule -->
<g id="edge30" class="edge">
<title>MultiChartConverterService&#45;&gt;ChartWidgetModule</title>
<path fill="none" stroke="#000000" d="M664,-122.1289C664,-142.5724 664,-173 664,-173 664,-173 2885.0392,-173 2885.0392,-173"/>
<polygon fill="#000000" stroke="#000000" points="2885.0392,-176.5001 2895.0392,-173 2885.0391,-169.5001 2885.0392,-176.5001"/>
</g>
<!-- PieChartConverterService -->
<g id="node32" class="node">
<title>PieChartConverterService</title>
<ellipse fill="#fdb462" stroke="#000000" cx="412" cy="-104" rx="112.2936" ry="18"/>
<text text-anchor="middle" x="412" y="-99.8" font-family="Times,serif" font-size="14.00" fill="#000000">PieChartConverterService</text>
</g>
<!-- PieChartConverterService&#45;&gt;ChartWidgetModule -->
<g id="edge31" class="edge">
<title>PieChartConverterService&#45;&gt;ChartWidgetModule</title>
<path fill="none" stroke="#000000" d="M412,-122.2843C412,-143.3211 412,-175 412,-175 412,-175 2885.1056,-175 2885.1056,-175"/>
<polygon fill="#000000" stroke="#000000" points="2885.1056,-178.5001 2895.1056,-175 2885.1056,-171.5001 2885.1056,-178.5001"/>
</g>
<!-- RadialGaugeConverterService -->
<g id="node33" class="node">
<title>RadialGaugeConverterService</title>
<ellipse fill="#fdb462" stroke="#000000" cx="153" cy="-104" rx="129.0308" ry="18"/>
<text text-anchor="middle" x="153" y="-99.8" font-family="Times,serif" font-size="14.00" fill="#000000">RadialGaugeConverterService</text>
</g>
<!-- RadialGaugeConverterService&#45;&gt;ChartWidgetModule -->
<g id="edge32" class="edge">
<title>RadialGaugeConverterService&#45;&gt;ChartWidgetModule</title>
<path fill="none" stroke="#000000" d="M153,-122.2921C153,-144.2057 153,-178 153,-178 153,-178 2885.0422,-178 2885.0422,-178"/>
<polygon fill="#000000" stroke="#000000" points="2885.0422,-181.5001 2895.0422,-178 2885.0421,-174.5001 2885.0422,-181.5001"/>
</g>
</g>
</svg>
