<?xml version="1.0" encoding="UTF-8" standalone="no"?>
<!DOCTYPE svg PUBLIC "-//W3C//DTD SVG 1.1//EN"
 "http://www.w3.org/Graphics/SVG/1.1/DTD/svg11.dtd">
<!-- Generated by graphviz version 2.40.1 (20161225.0304)
 -->
<!-- Title: dependencies Pages: 1 -->
<svg width="874pt" height="284pt"
 viewBox="0.00 0.00 874.00 284.00" xmlns="http://www.w3.org/2000/svg" xmlns:xlink="http://www.w3.org/1999/xlink">
<g id="graph0" class="graph" transform="scale(1 1) rotate(0) translate(4 280)">
<title>dependencies</title>
<polygon fill="#ffffff" stroke="transparent" points="-4,4 -4,-280 870,-280 870,4 -4,4"/>
<text text-anchor="start" x="412.0091" y="-42.4" font-family="sans-serif" font-weight="bold" font-size="14.00" fill="#000000">Legend</text>
<polygon fill="#ffffb3" stroke="transparent" points="199,-10 199,-30 219,-30 219,-10 199,-10"/>
<text text-anchor="start" x="222.629" y="-15.4" font-family="sans-serif" font-size="14.00" fill="#000000"> &#160;Declarations</text>
<polygon fill="#8dd3c7" stroke="transparent" points="312,-10 312,-30 332,-30 332,-10 312,-10"/>
<text text-anchor="start" x="335.7251" y="-15.4" font-family="sans-serif" font-size="14.00" fill="#000000"> &#160;Module</text>
<polygon fill="#80b1d3" stroke="transparent" points="398,-10 398,-30 418,-30 418,-10 398,-10"/>
<text text-anchor="start" x="421.7812" y="-15.4" font-family="sans-serif" font-size="14.00" fill="#000000"> &#160;Bootstrap</text>
<polygon fill="#fdb462" stroke="transparent" points="495,-10 495,-30 515,-30 515,-10 495,-10"/>
<text text-anchor="start" x="518.6732" y="-15.4" font-family="sans-serif" font-size="14.00" fill="#000000"> &#160;Providers</text>
<polygon fill="#fb8072" stroke="transparent" points="591,-10 591,-30 611,-30 611,-10 591,-10"/>
<text text-anchor="start" x="614.7258" y="-15.4" font-family="sans-serif" font-size="14.00" fill="#000000"> &#160;Exports</text>
<g id="clust1" class="cluster">
<title>cluster_MonthlyAnalysisWidgetModule</title>
<polygon fill="none" stroke="#000000" stroke-dasharray="1,5" points="8,-70 8,-268 858,-268 858,-70 8,-70"/>
</g>
<g id="clust2" class="cluster">
<title>cluster_MonthlyAnalysisWidgetModule_declarations</title>
<polygon fill="none" stroke="#000000" points="290,-78 290,-130 850,-130 850,-78 290,-78"/>
</g>
<g id="clust6" class="cluster">
<title>cluster_MonthlyAnalysisWidgetModule_exports</title>
<polygon fill="none" stroke="#000000" points="331,-208 331,-260 571,-260 571,-208 331,-208"/>
</g>
<g id="clust8" class="cluster">
<title>cluster_MonthlyAnalysisWidgetModule_providers</title>
<polygon fill="none" stroke="#000000" points="16,-78 16,-130 282,-130 282,-78 16,-78"/>
</g>
<!-- MonthlyAnalysisWidgetComponent -->
<g id="node1" class="node">
<title>MonthlyAnalysisWidgetComponent</title>
<polygon fill="#ffffb3" stroke="#000000" points="841.7603,-122 622.2397,-122 622.2397,-86 841.7603,-86 841.7603,-122"/>
<text text-anchor="middle" x="732" y="-99.8" font-family="Times,serif" font-size="14.00" fill="#000000">MonthlyAnalysisWidgetComponent</text>
</g>
<!-- MonthlyAnalysisWidgetModule -->
<g id="node3" class="node">
<title>MonthlyAnalysisWidgetModule</title>
<polygon fill="#8dd3c7" stroke="#000000" points="549.9776,-187 546.9776,-191 525.9776,-191 522.9776,-187 352.0224,-187 352.0224,-151 549.9776,-151 549.9776,-187"/>
<text text-anchor="middle" x="451" y="-164.8" font-family="Times,serif" font-size="14.00" fill="#000000">MonthlyAnalysisWidgetModule</text>
</g>
<!-- MonthlyAnalysisWidgetComponent&#45;&gt;MonthlyAnalysisWidgetModule -->
<g id="edge1" class="edge">
<title>MonthlyAnalysisWidgetComponent&#45;&gt;MonthlyAnalysisWidgetModule</title>
<path fill="none" stroke="#000000" d="M732,-122.1061C732,-141.3391 732,-169 732,-169 732,-169 560.0701,-169 560.0701,-169"/>
<polygon fill="#000000" stroke="#000000" points="560.0701,-165.5001 550.0701,-169 560.0701,-172.5001 560.0701,-165.5001"/>
</g>
<!-- MonthlyAnalysisWidgetPersonalizationComponent -->
<g id="node2" class="node">
<title>MonthlyAnalysisWidgetPersonalizationComponent</title>
<polygon fill="#ffffb3" stroke="#000000" points="604.0688,-122 297.9312,-122 297.9312,-86 604.0688,-86 604.0688,-122"/>
<text text-anchor="middle" x="451" y="-99.8" font-family="Times,serif" font-size="14.00" fill="#000000">MonthlyAnalysisWidgetPersonalizationComponent</text>
</g>
<!-- MonthlyAnalysisWidgetPersonalizationComponent&#45;&gt;MonthlyAnalysisWidgetModule -->
<g id="edge2" class="edge">
<title>MonthlyAnalysisWidgetPersonalizationComponent&#45;&gt;MonthlyAnalysisWidgetModule</title>
<path fill="none" stroke="#000000" d="M451,-122.1061C451,-122.1061 451,-140.991 451,-140.991"/>
<polygon fill="#000000" stroke="#000000" points="447.5001,-140.9909 451,-150.991 454.5001,-140.991 447.5001,-140.9909"/>
</g>
<!-- MonthlyAnalysisWidgetComponent  -->
<g id="node4" class="node">
<title>MonthlyAnalysisWidgetComponent </title>
<polygon fill="#fb8072" stroke="#000000" points="562.7604,-252 339.2396,-252 339.2396,-216 562.7604,-216 562.7604,-252"/>
<text text-anchor="middle" x="451" y="-229.8" font-family="Times,serif" font-size="14.00" fill="#000000">MonthlyAnalysisWidgetComponent </text>
</g>
<!-- MonthlyAnalysisWidgetModule&#45;&gt;MonthlyAnalysisWidgetComponent  -->
<g id="edge3" class="edge">
<title>MonthlyAnalysisWidgetModule&#45;&gt;MonthlyAnalysisWidgetComponent </title>
<path fill="none" stroke="#000000" stroke-dasharray="5,2" d="M451,-187.1061C451,-187.1061 451,-205.991 451,-205.991"/>
<polygon fill="#000000" stroke="#000000" points="447.5001,-205.9909 451,-215.991 454.5001,-205.991 447.5001,-205.9909"/>
</g>
<!-- MonthlyAnalysisDataService -->
<g id="node5" class="node">
<title>MonthlyAnalysisDataService</title>
<ellipse fill="#fdb462" stroke="#000000" cx="149" cy="-104" rx="125.0586" ry="18"/>
<text text-anchor="middle" x="149" y="-99.8" font-family="Times,serif" font-size="14.00" fill="#000000">MonthlyAnalysisDataService</text>
</g>
<!-- MonthlyAnalysisDataService&#45;&gt;MonthlyAnalysisWidgetModule -->
<g id="edge4" class="edge">
<title>MonthlyAnalysisDataService&#45;&gt;MonthlyAnalysisWidgetModule</title>
<path fill="none" stroke="#000000" d="M149,-122.1061C149,-141.3391 149,-169 149,-169 149,-169 341.6956,-169 341.6956,-169"/>
<polygon fill="#000000" stroke="#000000" points="341.6957,-172.5001 351.6956,-169 341.6956,-165.5001 341.6957,-172.5001"/>
</g>
</g>
</svg>
