<?xml version="1.0" encoding="UTF-8" standalone="no"?>
<!DOCTYPE svg PUBLIC "-//W3C//DTD SVG 1.1//EN"
 "http://www.w3.org/Graphics/SVG/1.1/DTD/svg11.dtd">
<!-- Generated by graphviz version 2.40.1 (20161225.0304)
 -->
<!-- Title: dependencies Pages: 1 -->
<svg width="504pt" height="284pt"
 viewBox="0.00 0.00 504.00 284.00" xmlns="http://www.w3.org/2000/svg" xmlns:xlink="http://www.w3.org/1999/xlink">
<g id="graph0" class="graph" transform="scale(1 1) rotate(0) translate(4 280)">
<title>dependencies</title>
<polygon fill="#ffffff" stroke="transparent" points="-4,4 -4,-280 500,-280 500,4 -4,4"/>
<text text-anchor="start" x="227.0091" y="-42.4" font-family="sans-serif" font-weight="bold" font-size="14.00" fill="#000000">Legend</text>
<polygon fill="#ffffb3" stroke="transparent" points="14,-10 14,-30 34,-30 34,-10 14,-10"/>
<text text-anchor="start" x="37.629" y="-15.4" font-family="sans-serif" font-size="14.00" fill="#000000"> &#160;Declarations</text>
<polygon fill="#8dd3c7" stroke="transparent" points="127,-10 127,-30 147,-30 147,-10 127,-10"/>
<text text-anchor="start" x="150.7251" y="-15.4" font-family="sans-serif" font-size="14.00" fill="#000000"> &#160;Module</text>
<polygon fill="#80b1d3" stroke="transparent" points="213,-10 213,-30 233,-30 233,-10 213,-10"/>
<text text-anchor="start" x="236.7812" y="-15.4" font-family="sans-serif" font-size="14.00" fill="#000000"> &#160;Bootstrap</text>
<polygon fill="#fdb462" stroke="transparent" points="310,-10 310,-30 330,-30 330,-10 310,-10"/>
<text text-anchor="start" x="333.6732" y="-15.4" font-family="sans-serif" font-size="14.00" fill="#000000"> &#160;Providers</text>
<polygon fill="#fb8072" stroke="transparent" points="406,-10 406,-30 426,-30 426,-10 406,-10"/>
<text text-anchor="start" x="429.7258" y="-15.4" font-family="sans-serif" font-size="14.00" fill="#000000"> &#160;Exports</text>
<g id="clust1" class="cluster">
<title>cluster_WidgetTemplatesModule</title>
<polygon fill="none" stroke="#000000" stroke-dasharray="1,5" points="70,-70 70,-268 426,-268 426,-70 70,-70"/>
</g>
<g id="clust2" class="cluster">
<title>cluster_WidgetTemplatesModule_declarations</title>
<polygon fill="none" stroke="#000000" points="82,-78 82,-130 414,-130 414,-78 82,-78"/>
</g>
<g id="clust6" class="cluster">
<title>cluster_WidgetTemplatesModule_exports</title>
<polygon fill="none" stroke="#000000" points="78,-208 78,-260 418,-260 418,-208 78,-208"/>
</g>
<!-- WidgetActionsDirective -->
<g id="node1" class="node">
<title>WidgetActionsDirective</title>
<polygon fill="#ffffb3" stroke="#000000" points="406.3403,-122 253.6597,-122 253.6597,-86 406.3403,-86 406.3403,-122"/>
<text text-anchor="middle" x="330" y="-99.8" font-family="Times,serif" font-size="14.00" fill="#000000">WidgetActionsDirective</text>
</g>
<!-- WidgetTemplatesModule -->
<g id="node3" class="node">
<title>WidgetTemplatesModule</title>
<polygon fill="#8dd3c7" stroke="#000000" points="243.573,-187 240.573,-191 219.573,-191 216.573,-187 84.427,-187 84.427,-151 243.573,-151 243.573,-187"/>
<text text-anchor="middle" x="164" y="-164.8" font-family="Times,serif" font-size="14.00" fill="#000000">WidgetTemplatesModule</text>
</g>
<!-- WidgetActionsDirective&#45;&gt;WidgetTemplatesModule -->
<g id="edge1" class="edge">
<title>WidgetActionsDirective&#45;&gt;WidgetTemplatesModule</title>
<path fill="none" stroke="#000000" d="M253.4389,-104C245.1957,-104 239.7287,-104 239.7287,-104 239.7287,-104 239.7287,-140.8939 239.7287,-140.8939"/>
<polygon fill="#000000" stroke="#000000" points="236.2287,-140.8938 239.7287,-150.8939 243.2287,-140.8939 236.2287,-140.8938"/>
</g>
<!-- WidgetFooterDirective -->
<g id="node2" class="node">
<title>WidgetFooterDirective</title>
<polygon fill="#ffffb3" stroke="#000000" points="235.8417,-122 90.1583,-122 90.1583,-86 235.8417,-86 235.8417,-122"/>
<text text-anchor="middle" x="163" y="-99.8" font-family="Times,serif" font-size="14.00" fill="#000000">WidgetFooterDirective</text>
</g>
<!-- WidgetFooterDirective&#45;&gt;WidgetTemplatesModule -->
<g id="edge2" class="edge">
<title>WidgetFooterDirective&#45;&gt;WidgetTemplatesModule</title>
<path fill="none" stroke="#000000" d="M163,-122.1061C163,-122.1061 163,-140.991 163,-140.991"/>
<polygon fill="#000000" stroke="#000000" points="159.5001,-140.9909 163,-150.991 166.5001,-140.991 159.5001,-140.9909"/>
</g>
<!-- WidgetActionsDirective  -->
<g id="node4" class="node">
<title>WidgetActionsDirective </title>
<polygon fill="#fb8072" stroke="#000000" points="410.3406,-252 253.6594,-252 253.6594,-216 410.3406,-216 410.3406,-252"/>
<text text-anchor="middle" x="332" y="-229.8" font-family="Times,serif" font-size="14.00" fill="#000000">WidgetActionsDirective </text>
</g>
<!-- WidgetTemplatesModule&#45;&gt;WidgetActionsDirective  -->
<g id="edge3" class="edge">
<title>WidgetTemplatesModule&#45;&gt;WidgetActionsDirective </title>
<path fill="none" stroke="#000000" stroke-dasharray="5,2" d="M239.6037,-187.1061C239.6037,-206.3391 239.6037,-234 239.6037,-234 239.6037,-234 243.6367,-234 243.6367,-234"/>
<polygon fill="#000000" stroke="#000000" points="243.6367,-237.5001 253.6367,-234 243.6366,-230.5001 243.6367,-237.5001"/>
</g>
<!-- WidgetFooterDirective  -->
<g id="node5" class="node">
<title>WidgetFooterDirective </title>
<polygon fill="#fb8072" stroke="#000000" points="235.842,-252 86.158,-252 86.158,-216 235.842,-216 235.842,-252"/>
<text text-anchor="middle" x="161" y="-229.8" font-family="Times,serif" font-size="14.00" fill="#000000">WidgetFooterDirective </text>
</g>
<!-- WidgetTemplatesModule&#45;&gt;WidgetFooterDirective  -->
<g id="edge4" class="edge">
<title>WidgetTemplatesModule&#45;&gt;WidgetFooterDirective </title>
<path fill="none" stroke="#000000" stroke-dasharray="5,2" d="M161,-187.1061C161,-187.1061 161,-205.991 161,-205.991"/>
<polygon fill="#000000" stroke="#000000" points="157.5001,-205.9909 161,-215.991 164.5001,-205.991 157.5001,-205.9909"/>
</g>
</g>
</svg>
