<?xml version="1.0" encoding="UTF-8" standalone="no"?>
<!DOCTYPE svg PUBLIC "-//W3C//DTD SVG 1.1//EN"
 "http://www.w3.org/Graphics/SVG/1.1/DTD/svg11.dtd">
<!-- Generated by graphviz version 2.40.1 (20161225.0304)
 -->
<!-- Title: dependencies Pages: 1 -->
<svg width="817pt" height="284pt"
 viewBox="0.00 0.00 817.00 284.00" xmlns="http://www.w3.org/2000/svg" xmlns:xlink="http://www.w3.org/1999/xlink">
<g id="graph0" class="graph" transform="scale(1 1) rotate(0) translate(4 280)">
<title>dependencies</title>
<polygon fill="#ffffff" stroke="transparent" points="-4,4 -4,-280 813,-280 813,4 -4,4"/>
<text text-anchor="start" x="383.5091" y="-42.4" font-family="sans-serif" font-weight="bold" font-size="14.00" fill="#000000">Legend</text>
<polygon fill="#ffffb3" stroke="transparent" points="170.5,-10 170.5,-30 190.5,-30 190.5,-10 170.5,-10"/>
<text text-anchor="start" x="194.129" y="-15.4" font-family="sans-serif" font-size="14.00" fill="#000000"> &#160;Declarations</text>
<polygon fill="#8dd3c7" stroke="transparent" points="283.5,-10 283.5,-30 303.5,-30 303.5,-10 283.5,-10"/>
<text text-anchor="start" x="307.2251" y="-15.4" font-family="sans-serif" font-size="14.00" fill="#000000"> &#160;Module</text>
<polygon fill="#80b1d3" stroke="transparent" points="369.5,-10 369.5,-30 389.5,-30 389.5,-10 369.5,-10"/>
<text text-anchor="start" x="393.2812" y="-15.4" font-family="sans-serif" font-size="14.00" fill="#000000"> &#160;Bootstrap</text>
<polygon fill="#fdb462" stroke="transparent" points="466.5,-10 466.5,-30 486.5,-30 486.5,-10 466.5,-10"/>
<text text-anchor="start" x="490.1732" y="-15.4" font-family="sans-serif" font-size="14.00" fill="#000000"> &#160;Providers</text>
<polygon fill="#fb8072" stroke="transparent" points="562.5,-10 562.5,-30 582.5,-30 582.5,-10 562.5,-10"/>
<text text-anchor="start" x="586.2258" y="-15.4" font-family="sans-serif" font-size="14.00" fill="#000000"> &#160;Exports</text>
<g id="clust1" class="cluster">
<title>cluster_WidgetsModule</title>
<polygon fill="none" stroke="#000000" stroke-dasharray="1,5" points="8,-70 8,-268 801,-268 801,-70 8,-70"/>
</g>
<g id="clust2" class="cluster">
<title>cluster_WidgetsModule_declarations</title>
<polygon fill="none" stroke="#000000" points="16,-78 16,-130 793,-130 793,-78 16,-78"/>
</g>
<g id="clust8" class="cluster">
<title>cluster_WidgetsModule_exports</title>
<polygon fill="none" stroke="#000000" points="306,-208 306,-260 504,-260 504,-208 306,-208"/>
</g>
<!-- WidgetContainerComponent -->
<g id="node1" class="node">
<title>WidgetContainerComponent</title>
<polygon fill="#ffffb3" stroke="#000000" points="784.7506,-122 607.2494,-122 607.2494,-86 784.7506,-86 784.7506,-122"/>
<text text-anchor="middle" x="696" y="-99.8" font-family="Times,serif" font-size="14.00" fill="#000000">WidgetContainerComponent</text>
</g>
<!-- WidgetsModule -->
<g id="node5" class="node">
<title>WidgetsModule</title>
<polygon fill="#8dd3c7" stroke="#000000" points="458.205,-187 455.205,-191 434.205,-191 431.205,-187 351.795,-187 351.795,-151 458.205,-151 458.205,-187"/>
<text text-anchor="middle" x="405" y="-164.8" font-family="Times,serif" font-size="14.00" fill="#000000">WidgetsModule</text>
</g>
<!-- WidgetContainerComponent&#45;&gt;WidgetsModule -->
<g id="edge1" class="edge">
<title>WidgetContainerComponent&#45;&gt;WidgetsModule</title>
<path fill="none" stroke="#000000" d="M696,-122.1061C696,-141.3391 696,-169 696,-169 696,-169 468.3739,-169 468.3739,-169"/>
<polygon fill="#000000" stroke="#000000" points="468.3739,-165.5001 458.3739,-169 468.3739,-172.5001 468.3739,-165.5001"/>
</g>
<!-- WidgetPersonalizeComponent -->
<g id="node2" class="node">
<title>WidgetPersonalizeComponent</title>
<polygon fill="#ffffb3" stroke="#000000" points="589.5702,-122 402.4298,-122 402.4298,-86 589.5702,-86 589.5702,-122"/>
<text text-anchor="middle" x="496" y="-99.8" font-family="Times,serif" font-size="14.00" fill="#000000">WidgetPersonalizeComponent</text>
</g>
<!-- WidgetPersonalizeComponent&#45;&gt;WidgetsModule -->
<g id="edge2" class="edge">
<title>WidgetPersonalizeComponent&#45;&gt;WidgetsModule</title>
<path fill="none" stroke="#000000" d="M430.2837,-122.1061C430.2837,-122.1061 430.2837,-140.991 430.2837,-140.991"/>
<polygon fill="#000000" stroke="#000000" points="426.7837,-140.9909 430.2837,-150.991 433.7837,-140.991 426.7837,-140.9909"/>
</g>
<!-- WidgetSizerDirective -->
<g id="node3" class="node">
<title>WidgetSizerDirective</title>
<polygon fill="#ffffb3" stroke="#000000" points="384.0562,-122 245.9438,-122 245.9438,-86 384.0562,-86 384.0562,-122"/>
<text text-anchor="middle" x="315" y="-99.8" font-family="Times,serif" font-size="14.00" fill="#000000">WidgetSizerDirective</text>
</g>
<!-- WidgetSizerDirective&#45;&gt;WidgetsModule -->
<g id="edge3" class="edge">
<title>WidgetSizerDirective&#45;&gt;WidgetsModule</title>
<path fill="none" stroke="#000000" d="M367.9629,-122.1061C367.9629,-122.1061 367.9629,-140.991 367.9629,-140.991"/>
<polygon fill="#000000" stroke="#000000" points="364.4629,-140.9909 367.9629,-150.991 371.4629,-140.991 364.4629,-140.9909"/>
</g>
<!-- WidgetToggleDecoratorDirective -->
<g id="node4" class="node">
<title>WidgetToggleDecoratorDirective</title>
<polygon fill="#ffffb3" stroke="#000000" points="228.4132,-122 23.5868,-122 23.5868,-86 228.4132,-86 228.4132,-122"/>
<text text-anchor="middle" x="126" y="-99.8" font-family="Times,serif" font-size="14.00" fill="#000000">WidgetToggleDecoratorDirective</text>
</g>
<!-- WidgetToggleDecoratorDirective&#45;&gt;WidgetsModule -->
<g id="edge4" class="edge">
<title>WidgetToggleDecoratorDirective&#45;&gt;WidgetsModule</title>
<path fill="none" stroke="#000000" d="M126,-122.1061C126,-141.3391 126,-169 126,-169 126,-169 341.8655,-169 341.8655,-169"/>
<polygon fill="#000000" stroke="#000000" points="341.8656,-172.5001 351.8655,-169 341.8655,-165.5001 341.8656,-172.5001"/>
</g>
<!-- WidgetContainerComponent  -->
<g id="node6" class="node">
<title>WidgetContainerComponent </title>
<polygon fill="#fb8072" stroke="#000000" points="495.7506,-252 314.2494,-252 314.2494,-216 495.7506,-216 495.7506,-252"/>
<text text-anchor="middle" x="405" y="-229.8" font-family="Times,serif" font-size="14.00" fill="#000000">WidgetContainerComponent </text>
</g>
<!-- WidgetsModule&#45;&gt;WidgetContainerComponent  -->
<g id="edge5" class="edge">
<title>WidgetsModule&#45;&gt;WidgetContainerComponent </title>
<path fill="none" stroke="#000000" stroke-dasharray="5,2" d="M405,-187.1061C405,-187.1061 405,-205.991 405,-205.991"/>
<polygon fill="#000000" stroke="#000000" points="401.5001,-205.9909 405,-215.991 408.5001,-205.991 401.5001,-205.9909"/>
</g>
</g>
</svg>
