<?xml version="1.0" encoding="UTF-8" standalone="no"?>
<!DOCTYPE svg PUBLIC "-//W3C//DTD SVG 1.1//EN"
 "http://www.w3.org/Graphics/SVG/1.1/DTD/svg11.dtd">
<!-- Generated by graphviz version 2.40.1 (20161225.0304)
 -->
<!-- Title: dependencies Pages: 1 -->
<svg width="592pt" height="284pt"
 viewBox="0.00 0.00 592.00 284.00" xmlns="http://www.w3.org/2000/svg" xmlns:xlink="http://www.w3.org/1999/xlink">
<g id="graph0" class="graph" transform="scale(1 1) rotate(0) translate(4 280)">
<title>dependencies</title>
<polygon fill="#ffffff" stroke="transparent" points="-4,4 -4,-280 588,-280 588,4 -4,4"/>
<text text-anchor="start" x="271.0091" y="-42.4" font-family="sans-serif" font-weight="bold" font-size="14.00" fill="#000000">Legend</text>
<polygon fill="#ffffb3" stroke="transparent" points="58,-10 58,-30 78,-30 78,-10 58,-10"/>
<text text-anchor="start" x="81.629" y="-15.4" font-family="sans-serif" font-size="14.00" fill="#000000"> &#160;Declarations</text>
<polygon fill="#8dd3c7" stroke="transparent" points="171,-10 171,-30 191,-30 191,-10 171,-10"/>
<text text-anchor="start" x="194.7251" y="-15.4" font-family="sans-serif" font-size="14.00" fill="#000000"> &#160;Module</text>
<polygon fill="#80b1d3" stroke="transparent" points="257,-10 257,-30 277,-30 277,-10 257,-10"/>
<text text-anchor="start" x="280.7812" y="-15.4" font-family="sans-serif" font-size="14.00" fill="#000000"> &#160;Bootstrap</text>
<polygon fill="#fdb462" stroke="transparent" points="354,-10 354,-30 374,-30 374,-10 354,-10"/>
<text text-anchor="start" x="377.6732" y="-15.4" font-family="sans-serif" font-size="14.00" fill="#000000"> &#160;Providers</text>
<polygon fill="#fb8072" stroke="transparent" points="450,-10 450,-30 470,-30 470,-10 450,-10"/>
<text text-anchor="start" x="473.7258" y="-15.4" font-family="sans-serif" font-size="14.00" fill="#000000"> &#160;Exports</text>
<g id="clust1" class="cluster">
<title>cluster_ConfirmDialogModule</title>
<polygon fill="none" stroke="#000000" stroke-dasharray="1,5" points="8,-70 8,-268 576,-268 576,-70 8,-70"/>
</g>
<g id="clust2" class="cluster">
<title>cluster_ConfirmDialogModule_declarations</title>
<polygon fill="none" stroke="#000000" points="386,-78 386,-130 568,-130 568,-78 386,-78"/>
</g>
<g id="clust4" class="cluster">
<title>cluster_ConfirmDialogModule_imports</title>
<polygon fill="none" stroke="#000000" points="238,-78 238,-130 378,-130 378,-78 238,-78"/>
</g>
<g id="clust5" class="cluster">
<title>cluster_ConfirmDialogModule_exports</title>
<polygon fill="none" stroke="#000000" points="215,-208 215,-260 401,-260 401,-208 215,-208"/>
</g>
<g id="clust7" class="cluster">
<title>cluster_ConfirmDialogModule_providers</title>
<polygon fill="none" stroke="#000000" points="16,-78 16,-130 230,-130 230,-78 16,-78"/>
</g>
<!-- ConfirmDialogComponent -->
<g id="node1" class="node">
<title>ConfirmDialogComponent</title>
<polygon fill="#ffffb3" stroke="#000000" points="560.3738,-122 393.6262,-122 393.6262,-86 560.3738,-86 560.3738,-122"/>
<text text-anchor="middle" x="477" y="-99.8" font-family="Times,serif" font-size="14.00" fill="#000000">ConfirmDialogComponent</text>
</g>
<!-- ConfirmDialogModule -->
<g id="node2" class="node">
<title>ConfirmDialogModule</title>
<polygon fill="#8dd3c7" stroke="#000000" points="380.5912,-187 377.5912,-191 356.5912,-191 353.5912,-187 235.4088,-187 235.4088,-151 380.5912,-151 380.5912,-187"/>
<text text-anchor="middle" x="308" y="-164.8" font-family="Times,serif" font-size="14.00" fill="#000000">ConfirmDialogModule</text>
</g>
<!-- ConfirmDialogComponent&#45;&gt;ConfirmDialogModule -->
<g id="edge1" class="edge">
<title>ConfirmDialogComponent&#45;&gt;ConfirmDialogModule</title>
<path fill="none" stroke="#000000" d="M393.4815,-104C382.6877,-104 375.2995,-104 375.2995,-104 375.2995,-104 375.2995,-140.8939 375.2995,-140.8939"/>
<polygon fill="#000000" stroke="#000000" points="371.7995,-140.8938 375.2995,-150.8939 378.7995,-140.8939 371.7995,-140.8938"/>
</g>
<!-- ConfirmDialogComponent  -->
<g id="node4" class="node">
<title>ConfirmDialogComponent </title>
<polygon fill="#fb8072" stroke="#000000" points="393.3742,-252 222.6258,-252 222.6258,-216 393.3742,-216 393.3742,-252"/>
<text text-anchor="middle" x="308" y="-229.8" font-family="Times,serif" font-size="14.00" fill="#000000">ConfirmDialogComponent </text>
</g>
<!-- ConfirmDialogModule&#45;&gt;ConfirmDialogComponent  -->
<g id="edge3" class="edge">
<title>ConfirmDialogModule&#45;&gt;ConfirmDialogComponent </title>
<path fill="none" stroke="#000000" stroke-dasharray="5,2" d="M308,-187.1061C308,-187.1061 308,-205.991 308,-205.991"/>
<polygon fill="#000000" stroke="#000000" points="304.5001,-205.9909 308,-215.991 311.5001,-205.991 304.5001,-205.9909"/>
</g>
<!-- ButtonTitleModule -->
<g id="node3" class="node">
<title>ButtonTitleModule</title>
<polygon fill="#8dd3c7" stroke="#000000" points="370.1066,-122 367.1066,-126 346.1066,-126 343.1066,-122 245.8934,-122 245.8934,-86 370.1066,-86 370.1066,-122"/>
<text text-anchor="middle" x="308" y="-99.8" font-family="Times,serif" font-size="14.00" fill="#000000">ButtonTitleModule</text>
</g>
<!-- ButtonTitleModule&#45;&gt;ConfirmDialogModule -->
<g id="edge2" class="edge">
<title>ButtonTitleModule&#45;&gt;ConfirmDialogModule</title>
<path fill="none" stroke="#000000" d="M308,-122.1061C308,-122.1061 308,-140.991 308,-140.991"/>
<polygon fill="#000000" stroke="#000000" points="304.5001,-140.9909 308,-150.991 311.5001,-140.991 304.5001,-140.9909"/>
</g>
<!-- ConfirmDialogService -->
<g id="node5" class="node">
<title>ConfirmDialogService</title>
<ellipse fill="#fdb462" stroke="#000000" cx="123" cy="-104" rx="98.9936" ry="18"/>
<text text-anchor="middle" x="123" y="-99.8" font-family="Times,serif" font-size="14.00" fill="#000000">ConfirmDialogService</text>
</g>
<!-- ConfirmDialogService&#45;&gt;ConfirmDialogModule -->
<g id="edge4" class="edge">
<title>ConfirmDialogService&#45;&gt;ConfirmDialogModule</title>
<path fill="none" stroke="#000000" d="M222.0505,-104C233.2289,-104 240.7006,-104 240.7006,-104 240.7006,-104 240.7006,-140.8939 240.7006,-140.8939"/>
<polygon fill="#000000" stroke="#000000" points="237.2006,-140.8938 240.7006,-150.8939 244.2006,-140.8939 237.2006,-140.8938"/>
</g>
</g>
</svg>
