<?xml version="1.0" encoding="UTF-8" standalone="no"?>
<!DOCTYPE svg PUBLIC "-//W3C//DTD SVG 1.1//EN"
 "http://www.w3.org/Graphics/SVG/1.1/DTD/svg11.dtd">
<!-- Generated by graphviz version 2.40.1 (20161225.0304)
 -->
<!-- Title: dependencies Pages: 1 -->
<svg width="504pt" height="211pt"
 viewBox="0.00 0.00 504.00 211.00" xmlns="http://www.w3.org/2000/svg" xmlns:xlink="http://www.w3.org/1999/xlink">
<g id="graph0" class="graph" transform="scale(1 1) rotate(0) translate(4 207)">
<title>dependencies</title>
<polygon fill="#ffffff" stroke="transparent" points="-4,4 -4,-207 500,-207 500,4 -4,4"/>
<text text-anchor="start" x="227.0091" y="-42.4" font-family="sans-serif" font-weight="bold" font-size="14.00" fill="#000000">Legend</text>
<polygon fill="#ffffb3" stroke="transparent" points="14,-10 14,-30 34,-30 34,-10 14,-10"/>
<text text-anchor="start" x="37.629" y="-15.4" font-family="sans-serif" font-size="14.00" fill="#000000"> &#160;Declarations</text>
<polygon fill="#8dd3c7" stroke="transparent" points="127,-10 127,-30 147,-30 147,-10 127,-10"/>
<text text-anchor="start" x="150.7251" y="-15.4" font-family="sans-serif" font-size="14.00" fill="#000000"> &#160;Module</text>
<polygon fill="#80b1d3" stroke="transparent" points="213,-10 213,-30 233,-30 233,-10 213,-10"/>
<text text-anchor="start" x="236.7812" y="-15.4" font-family="sans-serif" font-size="14.00" fill="#000000"> &#160;Bootstrap</text>
<polygon fill="#fdb462" stroke="transparent" points="310,-10 310,-30 330,-30 330,-10 310,-10"/>
<text text-anchor="start" x="333.6732" y="-15.4" font-family="sans-serif" font-size="14.00" fill="#000000"> &#160;Providers</text>
<polygon fill="#fb8072" stroke="transparent" points="406,-10 406,-30 426,-30 426,-10 406,-10"/>
<text text-anchor="start" x="429.7258" y="-15.4" font-family="sans-serif" font-size="14.00" fill="#000000"> &#160;Exports</text>
<g id="clust1" class="cluster">
<title>cluster_UnsavedChangesDialogModule</title>
<polygon fill="none" stroke="#000000" stroke-dasharray="1,5" points="14,-70 14,-195 482,-195 482,-70 14,-70"/>
</g>
<g id="clust3" class="cluster">
<title>cluster_UnsavedChangesDialogModule_imports</title>
<polygon fill="none" stroke="#000000" points="312,-78 312,-130 474,-130 474,-78 312,-78"/>
</g>
<g id="clust6" class="cluster">
<title>cluster_UnsavedChangesDialogModule_providers</title>
<polygon fill="none" stroke="#000000" points="22,-78 22,-130 304,-130 304,-78 22,-78"/>
</g>
<!-- ConfirmDialogModule -->
<g id="node1" class="node">
<title>ConfirmDialogModule</title>
<polygon fill="#8dd3c7" stroke="#000000" points="465.5912,-122 462.5912,-126 441.5912,-126 438.5912,-122 320.4088,-122 320.4088,-86 465.5912,-86 465.5912,-122"/>
<text text-anchor="middle" x="393" y="-99.8" font-family="Times,serif" font-size="14.00" fill="#000000">ConfirmDialogModule</text>
</g>
<!-- UnsavedChangesDialogModule -->
<g id="node2" class="node">
<title>UnsavedChangesDialogModule</title>
<polygon fill="#8dd3c7" stroke="#000000" points="367.3431,-187 364.3431,-191 343.3431,-191 340.3431,-187 172.6569,-187 172.6569,-151 367.3431,-151 367.3431,-187"/>
<text text-anchor="middle" x="270" y="-164.8" font-family="Times,serif" font-size="14.00" fill="#000000">UnsavedChangesDialogModule</text>
</g>
<!-- ConfirmDialogModule&#45;&gt;UnsavedChangesDialogModule -->
<g id="edge1" class="edge">
<title>ConfirmDialogModule&#45;&gt;UnsavedChangesDialogModule</title>
<path fill="none" stroke="#000000" d="M343.938,-122.1061C343.938,-122.1061 343.938,-140.991 343.938,-140.991"/>
<polygon fill="#000000" stroke="#000000" points="340.438,-140.9909 343.938,-150.991 347.438,-140.991 340.438,-140.9909"/>
</g>
<!-- UnsavedChangesDialogService -->
<g id="node3" class="node">
<title>UnsavedChangesDialogService</title>
<ellipse fill="#fdb462" stroke="#000000" cx="163" cy="-104" rx="133.1296" ry="18"/>
<text text-anchor="middle" x="163" y="-99.8" font-family="Times,serif" font-size="14.00" fill="#000000">UnsavedChangesDialogService</text>
</g>
<!-- UnsavedChangesDialogService&#45;&gt;UnsavedChangesDialogModule -->
<g id="edge2" class="edge">
<title>UnsavedChangesDialogService&#45;&gt;UnsavedChangesDialogModule</title>
<path fill="none" stroke="#000000" d="M234.4466,-119.4041C234.4466,-119.4041 234.4466,-140.9397 234.4466,-140.9397"/>
<polygon fill="#000000" stroke="#000000" points="230.9467,-140.9397 234.4466,-150.9397 237.9467,-140.9398 230.9467,-140.9397"/>
</g>
</g>
</svg>
